<svg xmlns="http://www.w3.org/2000/svg" xmlns:xlink="http://www.w3.org/1999/xlink" width="500" zoomAndPan="magnify" viewBox="0 0 375 374.999991" height="500" preserveAspectRatio="xMidYMid meet" version="1.0"><defs><g/><clipPath id="75d4c7291e"><path d="M 140.046875 133 L 190 133 L 190 187 L 140.046875 187 Z M 140.046875 133 " clip-rule="nonzero"/></clipPath><clipPath id="0f6b29dce2"><path d="M 153 163 L 205 163 L 205 215.175781 L 153 215.175781 Z M 153 163 " clip-rule="nonzero"/></clipPath><clipPath id="54453dba50"><path d="M 168 188 L 201 188 L 201 215.175781 L 168 215.175781 Z M 168 188 " clip-rule="nonzero"/></clipPath><clipPath id="2f6e00b380"><path d="M 223 120 L 234.945312 120 L 234.945312 132 L 223 132 Z M 223 120 " clip-rule="nonzero"/></clipPath><clipPath id="f4da45ad37"><path d="M 205 99.675781 L 213 99.675781 L 213 107 L 205 107 Z M 205 99.675781 " clip-rule="nonzero"/></clipPath></defs><rect x="-37.5" width="450" fill="#ffffff" y="-37.499999" height="449.999989" fill-opacity="1"/><rect x="-37.5" width="450" fill="#ffffff" y="-37.499999" height="449.999989" fill-opacity="1"/><rect x="-37.5" width="450" fill="#f6f6f6" y="-37.499999" height="449.999989" fill-opacity="1"/><path fill="#f9ed32" d="M 185.289062 115.601562 C 184.878906 115.601562 184.476562 115.5625 184.074219 115.480469 C 183.671875 115.402344 183.28125 115.28125 182.90625 115.125 C 182.527344 114.96875 182.167969 114.773438 181.828125 114.546875 C 181.488281 114.320312 181.171875 114.058594 180.882812 113.769531 C 180.59375 113.476562 180.335938 113.160156 180.105469 112.820312 C 179.878906 112.476562 179.6875 112.117188 179.53125 111.734375 C 179.375 111.355469 179.253906 110.964844 179.175781 110.5625 C 179.09375 110.15625 179.054688 109.75 179.054688 109.339844 C 179.054688 108.929688 179.09375 108.519531 179.175781 108.117188 C 179.253906 107.714844 179.371094 107.320312 179.527344 106.941406 C 179.683594 106.5625 179.875 106.199219 180.101562 105.859375 C 180.328125 105.515625 180.585938 105.199219 180.875 104.90625 C 181.164062 104.617188 181.480469 104.355469 181.820312 104.128906 C 182.160156 103.898438 182.519531 103.707031 182.898438 103.546875 C 183.273438 103.390625 183.664062 103.269531 184.066406 103.191406 C 184.464844 103.109375 184.871094 103.070312 185.28125 103.066406 C 185.691406 103.066406 186.09375 103.105469 186.496094 103.1875 C 186.898438 103.265625 187.289062 103.386719 187.667969 103.542969 C 188.042969 103.699219 188.402344 103.890625 188.746094 104.117188 C 189.085938 104.347656 189.398438 104.605469 189.691406 104.898438 C 189.980469 105.1875 190.238281 105.503906 190.464844 105.84375 C 190.695312 106.1875 190.886719 106.546875 191.042969 106.925781 C 191.203125 107.304688 191.320312 107.699219 191.402344 108.101562 C 191.480469 108.503906 191.523438 108.910156 191.523438 109.324219 C 191.523438 109.734375 191.484375 110.144531 191.402344 110.546875 C 191.324219 110.949219 191.207031 111.34375 191.046875 111.722656 C 190.890625 112.105469 190.699219 112.464844 190.472656 112.808594 C 190.246094 113.148438 189.988281 113.46875 189.699219 113.757812 C 189.410156 114.050781 189.09375 114.3125 188.753906 114.539062 C 188.414062 114.769531 188.054688 114.960938 187.675781 115.121094 C 187.296875 115.277344 186.90625 115.398438 186.503906 115.480469 C 186.105469 115.558594 185.699219 115.601562 185.289062 115.601562 Z M 185.289062 115.601562 " fill-opacity="0.7765" fill-rule="evenodd"/><path fill="#662d91" d="M 155.089844 120.433594 C 153.398438 122.410156 151.996094 124.574219 150.890625 126.933594 C 149.785156 129.289062 149.011719 131.753906 148.570312 134.324219 C 147.304688 141.75 149.234375 148.628906 147.882812 153.253906 C 147.566406 154.289062 147.140625 155.28125 146.609375 156.222656 C 147.242188 156.59375 147.894531 156.925781 148.5625 157.21875 C 149.234375 157.515625 149.917969 157.769531 150.617188 157.988281 C 151.316406 158.203125 152.027344 158.378906 152.746094 158.511719 C 153.464844 158.644531 154.1875 158.738281 154.917969 158.789062 C 155.648438 158.835938 156.378906 158.847656 157.109375 158.8125 C 157.839844 158.777344 158.566406 158.703125 159.289062 158.585938 C 160.011719 158.464844 160.722656 158.308594 161.425781 158.105469 C 162.132812 157.90625 162.820312 157.667969 163.496094 157.386719 C 164.175781 157.109375 164.832031 156.789062 165.472656 156.433594 C 166.113281 156.078125 166.730469 155.6875 167.324219 155.261719 C 167.921875 154.832031 168.492188 154.375 169.035156 153.878906 C 169.578125 153.386719 170.089844 152.867188 170.574219 152.3125 C 171.054688 151.761719 171.507812 151.183594 171.925781 150.578125 C 172.339844 149.976562 172.722656 149.351562 173.070312 148.703125 C 173.414062 148.054688 173.722656 147.386719 173.992188 146.703125 C 174.261719 146.019531 174.492188 145.324219 174.683594 144.613281 C 174.871094 143.902344 175.023438 143.1875 175.128906 142.457031 C 175.238281 141.730469 175.304688 141 175.328125 140.265625 C 175.355469 139.53125 175.335938 138.796875 175.277344 138.0625 C 175.21875 137.332031 175.117188 136.601562 174.976562 135.882812 C 174.832031 135.160156 174.648438 134.449219 174.425781 133.75 C 174.203125 133.050781 173.941406 132.363281 173.640625 131.695312 C 173.335938 131.023438 173 130.375 172.625 129.742188 C 172.246094 129.113281 171.835938 128.503906 171.390625 127.921875 C 170.945312 127.339844 170.46875 126.78125 169.960938 126.253906 C 169.453125 125.726562 168.914062 125.226562 168.347656 124.761719 C 167.785156 124.296875 167.195312 123.863281 166.578125 123.464844 C 165.964844 123.066406 165.328125 122.703125 164.671875 122.378906 C 164.015625 122.054688 163.34375 121.769531 162.65625 121.519531 C 161.964844 121.273438 161.265625 121.066406 160.554688 120.902344 C 159.839844 120.734375 159.121094 120.609375 158.394531 120.527344 C 157.667969 120.441406 156.9375 120.402344 156.207031 120.402344 C 155.847656 120.402344 155.46875 120.414062 155.089844 120.433594 Z M 155.089844 120.433594 " fill-opacity="0.7765" fill-rule="evenodd"/><g clip-path="url(#75d4c7291e)"><path fill="#92278f" d="M 148.199219 137.589844 C 147.796875 143.746094 149.035156 149.316406 147.882812 153.269531 C 145.910156 160.019531 137.171875 166.132812 141.257812 169.605469 C 142.546875 170.648438 144.769531 170.714844 146.074219 171.734375 C 148.148438 173.363281 146.730469 175.125 146.546875 176.394531 C 146.457031 177 147.003906 177.96875 148.796875 179.144531 C 147.441406 180.148438 147.566406 181.003906 148.050781 181.785156 C 148.710938 182.242188 149.390625 182.664062 150.089844 183.058594 C 150.789062 183.453125 151.503906 183.8125 152.234375 184.140625 C 152.964844 184.472656 153.710938 184.765625 154.46875 185.027344 C 155.226562 185.289062 155.992188 185.511719 156.773438 185.703125 C 157.550781 185.894531 158.335938 186.050781 159.128906 186.171875 C 159.917969 186.289062 160.714844 186.375 161.515625 186.421875 C 162.316406 186.46875 163.113281 186.480469 163.914062 186.453125 C 164.714844 186.429688 165.511719 186.367188 166.308594 186.269531 C 167.105469 186.171875 167.894531 186.039062 168.675781 185.867188 C 169.457031 185.699219 170.234375 185.492188 170.996094 185.253906 C 171.761719 185.015625 172.515625 184.738281 173.253906 184.429688 C 173.996094 184.125 174.71875 183.78125 175.429688 183.40625 C 176.136719 183.035156 176.828125 182.628906 177.5 182.191406 C 178.175781 181.753906 178.824219 181.289062 179.457031 180.792969 C 180.085938 180.296875 180.695312 179.769531 181.277344 179.21875 C 181.863281 178.667969 182.421875 178.089844 182.953125 177.488281 C 183.484375 176.886719 183.988281 176.261719 184.464844 175.613281 C 184.9375 174.964844 185.382812 174.296875 185.800781 173.609375 C 186.214844 172.921875 186.601562 172.214844 186.953125 171.492188 C 187.304688 170.769531 187.621094 170.03125 187.910156 169.277344 C 188.195312 168.527344 188.445312 167.761719 188.664062 166.988281 C 188.878906 166.210938 189.0625 165.429688 189.207031 164.636719 C 189.355469 163.847656 189.464844 163.050781 189.539062 162.246094 C 189.617188 161.445312 189.65625 160.640625 189.65625 159.835938 C 189.660156 159.03125 189.625 158.226562 189.558594 157.425781 C 189.488281 156.625 189.382812 155.828125 189.242188 155.035156 C 189.097656 154.242188 188.921875 153.457031 188.710938 152.679688 C 188.5 151.902344 188.253906 151.136719 187.972656 150.382812 C 187.691406 149.628906 187.378906 148.890625 187.03125 148.164062 C 186.683594 147.4375 186.304688 146.730469 185.894531 146.039062 C 185.480469 145.347656 185.039062 144.675781 184.570312 144.023438 C 184.097656 143.375 183.597656 142.746094 183.070312 142.140625 C 182.542969 141.535156 181.988281 140.953125 181.410156 140.398438 C 180.828125 139.84375 180.226562 139.316406 179.597656 138.8125 C 178.96875 138.3125 178.320312 137.84375 177.652344 137.402344 C 176.980469 136.960938 176.292969 136.550781 175.585938 136.171875 C 174.878906 135.792969 174.15625 135.445312 173.417969 135.132812 C 172.679688 134.820312 171.929688 134.539062 171.167969 134.292969 C 170.40625 134.050781 169.632812 133.839844 168.851562 133.664062 C 168.070312 133.488281 167.28125 133.351562 166.484375 133.246094 C 165.691406 133.144531 164.894531 133.078125 164.09375 133.046875 C 163.292969 133.015625 162.492188 133.019531 161.695312 133.0625 C 160.894531 133.105469 160.097656 133.183594 159.304688 133.296875 C 158.511719 133.410156 157.726562 133.5625 156.945312 133.746094 C 156.167969 133.933594 155.398438 134.15625 154.636719 134.410156 C 153.878906 134.664062 153.132812 134.957031 152.398438 135.277344 C 151.664062 135.601562 150.945312 135.957031 150.246094 136.347656 C 149.542969 136.738281 148.863281 137.15625 148.199219 137.605469 Z M 148.199219 137.589844 " fill-opacity="0.7765" fill-rule="evenodd"/></g><g clip-path="url(#0f6b29dce2)"><path fill="#007fc6" d="M 153.886719 196.636719 C 163.984375 200.769531 177.5 186.90625 179.320312 215.175781 C 185.882812 210.84375 192.839844 207.28125 200.1875 204.5 C 200.492188 204.050781 200.777344 203.59375 201.054688 203.128906 C 201.328125 202.664062 201.585938 202.1875 201.832031 201.707031 C 202.078125 201.226562 202.308594 200.734375 202.519531 200.238281 C 202.734375 199.742188 202.933594 199.238281 203.117188 198.730469 C 203.300781 198.222656 203.46875 197.707031 203.617188 197.1875 C 203.769531 196.667969 203.90625 196.144531 204.023438 195.617188 C 204.140625 195.089844 204.242188 194.558594 204.328125 194.023438 C 204.414062 193.488281 204.484375 192.953125 204.535156 192.414062 C 204.589844 191.875 204.625 191.335938 204.640625 190.792969 C 204.660156 190.253906 204.664062 189.710938 204.648438 189.171875 C 204.632812 188.628906 204.601562 188.089844 204.550781 187.550781 C 204.503906 187.011719 204.4375 186.476562 204.355469 185.941406 C 204.273438 185.40625 204.175781 184.871094 204.058594 184.34375 C 203.945312 183.816406 203.8125 183.289062 203.664062 182.769531 C 203.515625 182.25 203.355469 181.734375 203.171875 181.222656 C 202.992188 180.714844 202.796875 180.210938 202.585938 179.710938 C 202.375 179.214844 202.148438 178.722656 201.90625 178.238281 C 201.664062 177.757812 201.410156 177.28125 201.136719 176.8125 C 200.867188 176.347656 200.582031 175.886719 200.28125 175.4375 C 199.980469 174.988281 199.667969 174.546875 199.339844 174.117188 C 199.011719 173.6875 198.671875 173.269531 198.320312 172.863281 C 197.964844 172.453125 197.601562 172.054688 197.222656 171.671875 C 196.84375 171.285156 196.457031 170.910156 196.054688 170.550781 C 195.652344 170.191406 195.242188 169.84375 194.816406 169.507812 C 194.394531 169.171875 193.960938 168.851562 193.519531 168.542969 C 193.078125 168.234375 192.625 167.941406 192.164062 167.660156 C 191.703125 167.382812 191.234375 167.117188 190.753906 166.867188 C 190.277344 166.617188 189.792969 166.382812 189.300781 166.164062 C 188.808594 165.945312 188.308594 165.742188 187.804688 165.550781 C 187.300781 165.363281 186.789062 165.191406 186.273438 165.035156 C 185.757812 164.878906 185.238281 164.742188 184.714844 164.617188 C 184.191406 164.492188 183.664062 164.386719 183.132812 164.296875 C 182.601562 164.207031 182.070312 164.132812 181.53125 164.078125 C 180.996094 164.019531 180.460938 163.980469 179.921875 163.957031 C 179.386719 163.933594 178.847656 163.929688 178.308594 163.941406 C 177.769531 163.949219 177.234375 163.976562 176.695312 164.023438 C 176.160156 164.066406 175.625 164.128906 175.09375 164.207031 C 174.558594 164.285156 174.03125 164.382812 173.503906 164.492188 C 172.976562 164.605469 172.453125 164.730469 171.933594 164.875 C 171.414062 165.019531 170.902344 165.183594 170.394531 165.359375 C 169.882812 165.535156 169.382812 165.726562 168.882812 165.9375 C 168.386719 166.144531 167.898438 166.367188 167.414062 166.609375 C 166.929688 166.847656 166.457031 167.101562 165.988281 167.371094 C 165.523438 167.640625 165.0625 167.921875 164.613281 168.222656 C 164.164062 168.519531 163.726562 168.832031 163.296875 169.15625 C 162.863281 169.480469 162.445312 169.820312 162.035156 170.171875 C 161.628906 170.523438 161.230469 170.890625 160.84375 171.265625 C 160.457031 171.644531 160.082031 172.03125 159.71875 172.433594 C 159.359375 172.832031 159.007812 173.246094 158.671875 173.667969 C 158.335938 174.089844 158.011719 174.523438 157.703125 174.964844 C 157.394531 175.40625 157.097656 175.859375 156.816406 176.320312 C 156.535156 176.78125 156.269531 177.253906 156.015625 177.730469 C 155.761719 178.207031 155.527344 178.695312 155.304688 179.1875 C 155.082031 179.679688 154.875 180.179688 154.683594 180.6875 C 154.492188 181.191406 154.316406 181.703125 154.160156 182.21875 C 154 182.738281 153.855469 183.257812 153.730469 183.785156 C 153.601562 184.3125 153.492188 184.839844 153.398438 185.375 C 153.304688 185.90625 153.226562 186.441406 153.167969 186.980469 C 153.105469 187.519531 153.0625 188.058594 153.035156 188.597656 C 153.007812 189.136719 153 189.679688 153.003906 190.21875 C 153.011719 190.761719 153.035156 191.300781 153.074219 191.84375 C 153.117188 192.382812 153.171875 192.917969 153.246094 193.457031 C 153.320312 193.992188 153.410156 194.523438 153.519531 195.054688 C 153.625 195.585938 153.75 196.113281 153.886719 196.636719 Z M 153.886719 196.636719 " fill-opacity="0.7765" fill-rule="evenodd"/></g><g clip-path="url(#54453dba50)"><path fill="#01a6e6" d="M 168.710938 196.78125 C 174.042969 197.003906 178.347656 200.09375 179.320312 215.175781 C 185.847656 210.867188 192.761719 207.324219 200.0625 204.542969 C 200.042969 203.625 199.945312 202.71875 199.777344 201.816406 C 199.605469 200.914062 199.367188 200.035156 199.054688 199.171875 C 198.742188 198.3125 198.359375 197.480469 197.910156 196.683594 C 197.464844 195.882812 196.953125 195.128906 196.382812 194.414062 C 195.8125 193.699219 195.1875 193.035156 194.507812 192.421875 C 193.828125 191.808594 193.105469 191.257812 192.335938 190.761719 C 191.566406 190.269531 190.761719 189.84375 189.925781 189.480469 C 189.085938 189.121094 188.226562 188.832031 187.339844 188.613281 C 186.453125 188.394531 185.554688 188.246094 184.648438 188.175781 C 183.738281 188.105469 182.828125 188.105469 181.917969 188.183594 C 181.011719 188.261719 180.113281 188.414062 179.230469 188.640625 C 178.347656 188.863281 177.484375 189.160156 176.648438 189.527344 C 175.8125 189.894531 175.011719 190.324219 174.246094 190.824219 C 173.480469 191.320312 172.761719 191.878906 172.085938 192.496094 C 171.410156 193.113281 170.789062 193.78125 170.222656 194.5 C 169.65625 195.21875 169.152344 195.980469 168.710938 196.78125 Z M 168.710938 196.78125 " fill-opacity="0.7765" fill-rule="evenodd"/></g><path fill="#2063b2" d="M 144.316406 170.871094 C 144.949219 171.054688 145.535156 171.339844 146.074219 171.71875 C 148.148438 173.347656 146.730469 175.109375 146.546875 176.378906 C 146.457031 176.980469 147.003906 177.949219 148.796875 179.128906 C 146.722656 180.667969 148.117188 181.847656 148.953125 182.980469 C 152.835938 185.792969 147.433594 191.890625 153.839844 196.621094 C 160.304688 199.296875 168.167969 194.574219 173.476562 198.199219 C 173.5625 197.710938 173.628906 197.222656 173.683594 196.730469 C 173.738281 196.238281 173.777344 195.746094 173.800781 195.25 C 173.824219 194.753906 173.832031 194.261719 173.824219 193.765625 C 173.816406 193.269531 173.796875 192.777344 173.757812 192.285156 C 173.722656 191.789062 173.667969 191.296875 173.601562 190.808594 C 173.53125 190.316406 173.449219 189.828125 173.351562 189.34375 C 173.253906 188.859375 173.140625 188.378906 173.011719 187.898438 C 172.886719 187.421875 172.742188 186.949219 172.585938 186.480469 C 172.429688 186.011719 172.257812 185.546875 172.074219 185.085938 C 171.886719 184.628906 171.6875 184.175781 171.476562 183.730469 C 171.261719 183.285156 171.035156 182.84375 170.792969 182.414062 C 170.554688 181.980469 170.300781 181.558594 170.035156 181.140625 C 169.765625 180.726562 169.488281 180.316406 169.195312 179.917969 C 168.902344 179.519531 168.601562 179.132812 168.285156 178.75 C 167.96875 178.371094 167.640625 178.003906 167.300781 177.644531 C 166.964844 177.285156 166.613281 176.933594 166.253906 176.597656 C 165.894531 176.261719 165.523438 175.933594 165.144531 175.621094 C 164.765625 175.304688 164.375 175.003906 163.976562 174.710938 C 163.578125 174.421875 163.167969 174.144531 162.753906 173.878906 C 162.335938 173.617188 161.914062 173.363281 161.480469 173.125 C 161.050781 172.886719 160.613281 172.664062 160.167969 172.453125 C 159.722656 172.242188 159.269531 172.042969 158.8125 171.859375 C 158.355469 171.679688 157.890625 171.507812 157.421875 171.355469 C 156.957031 171.203125 156.484375 171.0625 156.007812 170.9375 C 155.53125 170.8125 155.050781 170.703125 154.566406 170.609375 C 154.085938 170.515625 153.597656 170.433594 153.109375 170.371094 C 152.621094 170.304688 152.132812 170.257812 151.640625 170.222656 C 151.148438 170.191406 150.65625 170.171875 150.164062 170.167969 C 149.671875 170.164062 149.179688 170.175781 148.691406 170.203125 C 148.199219 170.234375 147.707031 170.273438 147.21875 170.332031 C 146.730469 170.390625 146.242188 170.464844 145.757812 170.554688 C 145.273438 170.640625 144.792969 170.746094 144.316406 170.863281 Z M 144.316406 170.871094 " fill-opacity="0.7765" fill-rule="evenodd"/><path fill="#12bcbc" d="M 219.402344 171.171875 C 218.796875 171.171875 218.195312 171.113281 217.601562 170.996094 C 217.003906 170.878906 216.425781 170.703125 215.867188 170.46875 C 215.308594 170.234375 214.773438 169.949219 214.269531 169.609375 C 213.765625 169.273438 213.300781 168.886719 212.871094 168.457031 C 212.441406 168.027344 212.058594 167.558594 211.722656 167.050781 C 211.386719 166.542969 211.101562 166.007812 210.867188 165.445312 C 210.636719 164.882812 210.460938 164.300781 210.34375 163.703125 C 210.222656 163.105469 210.164062 162.503906 210.164062 161.894531 C 210.164062 161.285156 210.222656 160.679688 210.339844 160.082031 C 210.460938 159.484375 210.636719 158.902344 210.867188 158.339844 C 211.097656 157.777344 211.382812 157.242188 211.71875 156.734375 C 212.058594 156.226562 212.441406 155.757812 212.867188 155.328125 C 213.296875 154.898438 213.765625 154.511719 214.269531 154.171875 C 214.773438 153.835938 215.304688 153.550781 215.863281 153.316406 C 216.425781 153.082031 217.003906 152.90625 217.597656 152.789062 C 218.191406 152.667969 218.792969 152.609375 219.398438 152.609375 C 220.003906 152.609375 220.605469 152.667969 221.199219 152.789062 C 221.792969 152.90625 222.371094 153.082031 222.933594 153.316406 C 223.492188 153.550781 224.023438 153.835938 224.527344 154.175781 C 225.03125 154.515625 225.5 154.898438 225.929688 155.328125 C 226.355469 155.761719 226.738281 156.230469 227.074219 156.738281 C 227.414062 157.242188 227.695312 157.777344 227.929688 158.34375 C 228.160156 158.90625 228.335938 159.484375 228.453125 160.085938 C 228.570312 160.683594 228.628906 161.285156 228.628906 161.894531 C 228.628906 162.503906 228.570312 163.105469 228.449219 163.703125 C 228.332031 164.300781 228.15625 164.878906 227.921875 165.441406 C 227.691406 166.003906 227.40625 166.539062 227.070312 167.046875 C 226.730469 167.550781 226.347656 168.019531 225.921875 168.449219 C 225.492188 168.878906 225.027344 169.265625 224.523438 169.605469 C 224.019531 169.941406 223.488281 170.226562 222.929688 170.460938 C 222.371094 170.695312 221.792969 170.871094 221.199219 170.992188 C 220.605469 171.113281 220.007812 171.171875 219.402344 171.171875 Z M 219.402344 171.171875 " fill-opacity="0.7765" fill-rule="evenodd"/><path fill="#00b9f1" d="M 200.0625 184.09375 C 199.511719 184.09375 198.960938 184.042969 198.417969 183.933594 C 197.875 183.828125 197.347656 183.667969 196.835938 183.457031 C 196.324219 183.246094 195.839844 182.984375 195.378906 182.679688 C 194.917969 182.371094 194.492188 182.019531 194.097656 181.628906 C 193.707031 181.234375 193.355469 180.808594 193.046875 180.347656 C 192.738281 179.886719 192.480469 179.398438 192.265625 178.882812 C 192.054688 178.371094 191.894531 177.839844 191.785156 177.296875 C 191.675781 176.75 191.621094 176.199219 191.617188 175.644531 C 191.617188 175.085938 191.671875 174.535156 191.777344 173.992188 C 191.882812 173.445312 192.042969 172.914062 192.253906 172.402344 C 192.464844 171.886719 192.722656 171.398438 193.03125 170.933594 C 193.335938 170.472656 193.6875 170.042969 194.078125 169.648438 C 194.46875 169.257812 194.894531 168.902344 195.351562 168.59375 C 195.8125 168.285156 196.296875 168.023438 196.808594 167.808594 C 197.320312 167.597656 197.847656 167.433594 198.386719 167.324219 C 198.929688 167.21875 199.480469 167.160156 200.03125 167.160156 C 200.585938 167.160156 201.132812 167.214844 201.675781 167.324219 C 202.21875 167.429688 202.746094 167.589844 203.257812 167.804688 C 203.769531 168.015625 204.253906 168.277344 204.714844 168.585938 C 205.175781 168.894531 205.601562 169.246094 205.992188 169.636719 C 206.382812 170.03125 206.734375 170.460938 207.039062 170.921875 C 207.347656 171.382812 207.605469 171.871094 207.820312 172.386719 C 208.03125 172.898438 208.191406 173.429688 208.300781 173.976562 C 208.40625 174.519531 208.460938 175.070312 208.460938 175.628906 C 208.460938 176.183594 208.40625 176.730469 208.296875 177.273438 C 208.1875 177.820312 208.03125 178.347656 207.816406 178.859375 C 207.605469 179.371094 207.347656 179.859375 207.042969 180.320312 C 206.734375 180.78125 206.386719 181.207031 206 181.601562 C 205.609375 181.992188 205.183594 182.34375 204.726562 182.652344 C 204.269531 182.960938 203.785156 183.222656 203.277344 183.4375 C 202.769531 183.652344 202.242188 183.8125 201.703125 183.925781 C 201.160156 184.035156 200.617188 184.089844 200.0625 184.09375 Z M 200.0625 184.09375 " fill-opacity="0.7765" fill-rule="evenodd"/><path fill="#8dc63f" d="M 220.730469 148.585938 C 220.304688 148.585938 219.882812 148.542969 219.464844 148.460938 C 219.050781 148.378906 218.644531 148.253906 218.253906 148.089844 C 217.859375 147.925781 217.488281 147.726562 217.132812 147.488281 C 216.78125 147.25 216.453125 146.980469 216.152344 146.679688 C 215.851562 146.378906 215.585938 146.050781 215.347656 145.695312 C 215.113281 145.339844 214.914062 144.964844 214.75 144.570312 C 214.589844 144.175781 214.464844 143.769531 214.382812 143.347656 C 214.300781 142.929688 214.257812 142.507812 214.257812 142.078125 C 214.257812 141.652344 214.300781 141.230469 214.382812 140.8125 C 214.464844 140.390625 214.589844 139.984375 214.753906 139.589844 C 214.914062 139.195312 215.113281 138.820312 215.351562 138.464844 C 215.585938 138.109375 215.855469 137.78125 216.15625 137.480469 C 216.457031 137.179688 216.78125 136.910156 217.136719 136.671875 C 217.488281 136.433594 217.863281 136.234375 218.253906 136.070312 C 218.648438 135.90625 219.050781 135.785156 219.46875 135.703125 C 219.886719 135.617188 220.304688 135.578125 220.730469 135.578125 C 221.15625 135.578125 221.578125 135.621094 221.992188 135.703125 C 222.410156 135.785156 222.816406 135.910156 223.207031 136.074219 C 223.601562 136.238281 223.972656 136.4375 224.324219 136.675781 C 224.679688 136.914062 225.003906 137.183594 225.304688 137.484375 C 225.605469 137.785156 225.875 138.117188 226.109375 138.472656 C 226.347656 138.824219 226.546875 139.199219 226.707031 139.59375 C 226.871094 139.992188 226.992188 140.398438 227.074219 140.816406 C 227.15625 141.234375 227.199219 141.660156 227.199219 142.085938 C 227.199219 142.511719 227.15625 142.933594 227.074219 143.351562 C 226.988281 143.773438 226.867188 144.179688 226.703125 144.570312 C 226.539062 144.964844 226.339844 145.339844 226.105469 145.695312 C 225.867188 146.050781 225.601562 146.378906 225.300781 146.679688 C 225 146.980469 224.671875 147.25 224.320312 147.488281 C 223.96875 147.726562 223.59375 147.925781 223.203125 148.089844 C 222.808594 148.253906 222.40625 148.375 221.988281 148.460938 C 221.574219 148.542969 221.152344 148.585938 220.730469 148.585938 Z M 220.730469 148.585938 " fill-opacity="0.7765" fill-rule="evenodd"/><g clip-path="url(#2f6e00b380)"><path fill="#ffd900" d="M 223.957031 125.921875 C 223.957031 126.292969 223.992188 126.65625 224.0625 127.019531 C 224.136719 127.382812 224.242188 127.734375 224.382812 128.078125 C 224.523438 128.417969 224.695312 128.742188 224.898438 129.050781 C 225.105469 129.359375 225.335938 129.640625 225.597656 129.902344 C 225.855469 130.164062 226.140625 130.398438 226.445312 130.605469 C 226.75 130.808594 227.074219 130.984375 227.414062 131.125 C 227.753906 131.265625 228.105469 131.371094 228.464844 131.445312 C 228.824219 131.515625 229.191406 131.554688 229.558594 131.554688 C 229.925781 131.554688 230.289062 131.515625 230.652344 131.445312 C 231.011719 131.371094 231.363281 131.265625 231.703125 131.125 C 232.042969 130.984375 232.363281 130.808594 232.671875 130.605469 C 232.976562 130.398438 233.257812 130.164062 233.519531 129.902344 C 233.777344 129.640625 234.011719 129.359375 234.214844 129.050781 C 234.421875 128.742188 234.59375 128.417969 234.734375 128.078125 C 234.875 127.734375 234.980469 127.382812 235.050781 127.019531 C 235.125 126.65625 235.160156 126.292969 235.160156 125.921875 C 235.160156 125.550781 235.125 125.183594 235.050781 124.824219 C 234.980469 124.460938 234.875 124.109375 234.734375 123.765625 C 234.59375 123.425781 234.421875 123.101562 234.214844 122.792969 C 234.011719 122.484375 233.777344 122.199219 233.519531 121.9375 C 233.257812 121.675781 232.976562 121.445312 232.671875 121.238281 C 232.363281 121.03125 232.042969 120.859375 231.703125 120.71875 C 231.363281 120.578125 231.011719 120.46875 230.652344 120.398438 C 230.289062 120.324219 229.925781 120.289062 229.558594 120.289062 C 229.191406 120.289062 228.824219 120.324219 228.464844 120.398438 C 228.105469 120.46875 227.753906 120.578125 227.414062 120.71875 C 227.074219 120.859375 226.75 121.03125 226.445312 121.238281 C 226.140625 121.445312 225.855469 121.675781 225.597656 121.9375 C 225.335938 122.199219 225.105469 122.484375 224.898438 122.792969 C 224.695312 123.101562 224.523438 123.425781 224.382812 123.765625 C 224.242188 124.109375 224.136719 124.460938 224.0625 124.824219 C 223.992188 125.183594 223.957031 125.550781 223.957031 125.921875 Z M 223.957031 125.921875 " fill-opacity="0.7765" fill-rule="nonzero"/></g><path fill="#009444" d="M 217.722656 115.601562 C 217.378906 115.601562 217.039062 115.570312 216.703125 115.5 C 216.363281 115.433594 216.039062 115.335938 215.71875 115.203125 C 215.402344 115.070312 215.101562 114.910156 214.816406 114.71875 C 214.53125 114.527344 214.265625 114.308594 214.023438 114.066406 C 213.777344 113.820312 213.5625 113.554688 213.371094 113.269531 C 213.179688 112.980469 213.019531 112.679688 212.886719 112.359375 C 212.753906 112.039062 212.65625 111.710938 212.589844 111.371094 C 212.523438 111.035156 212.488281 110.691406 212.488281 110.347656 C 212.488281 110 212.519531 109.660156 212.585938 109.320312 C 212.65625 108.980469 212.753906 108.652344 212.886719 108.335938 C 213.015625 108.015625 213.175781 107.710938 213.367188 107.425781 C 213.558594 107.136719 213.773438 106.871094 214.019531 106.628906 C 214.261719 106.382812 214.523438 106.164062 214.8125 105.972656 C 215.097656 105.78125 215.398438 105.621094 215.714844 105.488281 C 216.03125 105.355469 216.359375 105.253906 216.695312 105.1875 C 217.03125 105.121094 217.371094 105.085938 217.714844 105.085938 C 218.058594 105.085938 218.398438 105.121094 218.738281 105.1875 C 219.074219 105.253906 219.402344 105.355469 219.71875 105.484375 C 220.035156 105.617188 220.335938 105.78125 220.621094 105.972656 C 220.910156 106.164062 221.171875 106.382812 221.414062 106.625 C 221.660156 106.871094 221.875 107.136719 222.066406 107.421875 C 222.257812 107.710938 222.417969 108.011719 222.550781 108.332031 C 222.679688 108.652344 222.78125 108.980469 222.847656 109.316406 C 222.914062 109.65625 222.949219 110 222.949219 110.34375 C 222.949219 110.6875 222.914062 111.03125 222.847656 111.367188 C 222.777344 111.707031 222.679688 112.035156 222.546875 112.355469 C 222.417969 112.671875 222.253906 112.976562 222.066406 113.261719 C 221.875 113.550781 221.65625 113.8125 221.414062 114.058594 C 221.171875 114.300781 220.910156 114.519531 220.625 114.710938 C 220.339844 114.902344 220.039062 115.066406 219.722656 115.199219 C 219.402344 115.332031 219.078125 115.429688 218.742188 115.5 C 218.40625 115.566406 218.066406 115.601562 217.722656 115.601562 Z M 217.722656 115.601562 " fill-opacity="0.7765" fill-rule="evenodd"/><path fill="#56ba48" d="M 215.945312 128.707031 C 215.488281 128.707031 215.046875 128.617188 214.625 128.441406 C 214.199219 128.265625 213.828125 128.015625 213.503906 127.691406 C 213.179688 127.363281 212.929688 126.988281 212.753906 126.5625 C 212.578125 126.136719 212.492188 125.695312 212.492188 125.234375 C 212.492188 124.773438 212.578125 124.332031 212.753906 123.90625 C 212.929688 123.480469 213.179688 123.105469 213.503906 122.777344 C 213.828125 122.453125 214.199219 122.203125 214.625 122.023438 C 215.046875 121.847656 215.488281 121.761719 215.945312 121.761719 C 216.40625 121.761719 216.84375 121.847656 217.269531 122.023438 C 217.691406 122.203125 218.066406 122.453125 218.390625 122.777344 C 218.714844 123.105469 218.964844 123.480469 219.136719 123.90625 C 219.3125 124.332031 219.402344 124.773438 219.402344 125.234375 C 219.398438 125.695312 219.3125 126.136719 219.136719 126.5625 C 218.960938 126.988281 218.710938 127.363281 218.386719 127.6875 C 218.0625 128.011719 217.691406 128.265625 217.265625 128.441406 C 216.84375 128.617188 216.402344 128.707031 215.945312 128.707031 Z M 215.945312 128.707031 " fill-opacity="0.7765" fill-rule="evenodd"/><g clip-path="url(#f4da45ad37)"><path fill="#fbad17" d="M 208.742188 106.621094 C 208.28125 106.621094 207.84375 106.535156 207.417969 106.355469 C 206.996094 106.179688 206.621094 105.929688 206.296875 105.605469 C 205.972656 105.277344 205.722656 104.902344 205.550781 104.476562 C 205.375 104.050781 205.285156 103.609375 205.285156 103.148438 C 205.285156 102.6875 205.375 102.246094 205.550781 101.820312 C 205.722656 101.394531 205.972656 101.019531 206.296875 100.691406 C 206.621094 100.367188 206.996094 100.117188 207.417969 99.941406 C 207.84375 99.761719 208.28125 99.675781 208.742188 99.675781 C 209.199219 99.675781 209.640625 99.761719 210.0625 99.941406 C 210.484375 100.117188 210.859375 100.367188 211.183594 100.691406 C 211.507812 101.019531 211.757812 101.394531 211.933594 101.820312 C 212.109375 102.246094 212.195312 102.6875 212.195312 103.148438 C 212.195312 103.609375 212.105469 104.050781 211.929688 104.476562 C 211.753906 104.902344 211.503906 105.277344 211.179688 105.601562 C 210.859375 105.925781 210.484375 106.179688 210.0625 106.355469 C 209.640625 106.53125 209.199219 106.621094 208.742188 106.621094 Z M 208.742188 106.621094 " fill-opacity="0.7765" fill-rule="evenodd"/></g><path fill="#f15c22" d="M 229.960938 114.363281 C 229.613281 114.363281 229.28125 114.292969 228.960938 114.160156 C 228.644531 114.023438 228.363281 113.835938 228.117188 113.585938 C 227.875 113.339844 227.6875 113.054688 227.554688 112.734375 C 227.421875 112.410156 227.359375 112.074219 227.359375 111.726562 C 227.359375 111.378906 227.425781 111.042969 227.558594 110.722656 C 227.695312 110.402344 227.882812 110.117188 228.128906 109.871094 C 228.375 109.625 228.65625 109.4375 228.976562 109.304688 C 229.296875 109.171875 229.632812 109.105469 229.976562 109.105469 C 230.324219 109.105469 230.65625 109.171875 230.976562 109.308594 C 231.296875 109.441406 231.578125 109.632812 231.824219 109.878906 C 232.070312 110.125 232.257812 110.40625 232.390625 110.730469 C 232.523438 111.050781 232.589844 111.386719 232.589844 111.734375 C 232.585938 112.085938 232.519531 112.421875 232.386719 112.742188 C 232.253906 113.066406 232.0625 113.347656 231.816406 113.597656 C 231.570312 113.84375 231.285156 114.03125 230.964844 114.164062 C 230.644531 114.296875 230.308594 114.363281 229.960938 114.363281 Z M 229.960938 114.363281 " fill-opacity="0.7765" fill-rule="evenodd"/><path fill="#fbad17" d="M 167.800781 141.183594 C 167.800781 141.90625 167.835938 142.621094 167.902344 143.339844 C 167.972656 144.054688 168.078125 144.765625 168.21875 145.472656 C 168.359375 146.175781 168.53125 146.875 168.738281 147.5625 C 168.949219 148.25 169.1875 148.925781 169.460938 149.59375 C 169.738281 150.257812 170.042969 150.90625 170.378906 151.539062 C 170.714844 152.175781 171.085938 152.792969 171.480469 153.390625 C 171.878906 153.988281 172.304688 154.566406 172.757812 155.121094 C 173.214844 155.679688 173.695312 156.210938 174.199219 156.71875 C 174.707031 157.226562 175.234375 157.710938 175.789062 158.167969 C 176.339844 158.625 176.914062 159.050781 177.511719 159.453125 C 178.105469 159.851562 178.71875 160.21875 179.351562 160.558594 C 179.980469 160.898438 180.628906 161.207031 181.289062 161.480469 C 181.949219 161.757812 182.625 162 183.308594 162.207031 C 183.992188 162.417969 184.6875 162.589844 185.386719 162.730469 C 186.089844 162.871094 186.796875 162.976562 187.507812 163.046875 C 188.222656 163.117188 188.9375 163.152344 189.652344 163.152344 C 190.367188 163.152344 191.082031 163.117188 191.792969 163.046875 C 192.503906 162.976562 193.210938 162.871094 193.914062 162.730469 C 194.617188 162.589844 195.308594 162.417969 195.996094 162.207031 C 196.679688 162 197.351562 161.757812 198.015625 161.480469 C 198.675781 161.207031 199.320312 160.898438 199.953125 160.558594 C 200.582031 160.21875 201.195312 159.851562 201.792969 159.453125 C 202.386719 159.050781 202.960938 158.625 203.515625 158.167969 C 204.066406 157.710938 204.597656 157.226562 205.105469 156.71875 C 205.609375 156.210938 206.089844 155.679688 206.542969 155.121094 C 206.996094 154.566406 207.421875 153.988281 207.820312 153.390625 C 208.21875 152.792969 208.585938 152.175781 208.921875 151.539062 C 209.261719 150.90625 209.566406 150.257812 209.839844 149.59375 C 210.113281 148.925781 210.355469 148.25 210.5625 147.5625 C 210.769531 146.875 210.945312 146.175781 211.085938 145.472656 C 211.222656 144.765625 211.328125 144.054688 211.398438 143.339844 C 211.46875 142.621094 211.503906 141.90625 211.503906 141.183594 C 211.503906 140.464844 211.46875 139.746094 211.398438 139.03125 C 211.328125 138.316406 211.222656 137.605469 211.085938 136.898438 C 210.945312 136.191406 210.769531 135.496094 210.5625 134.808594 C 210.355469 134.121094 210.113281 133.441406 209.839844 132.777344 C 209.566406 132.113281 209.261719 131.464844 208.921875 130.828125 C 208.585938 130.195312 208.21875 129.578125 207.820312 128.980469 C 207.421875 128.382812 206.996094 127.804688 206.542969 127.246094 C 206.089844 126.691406 205.609375 126.160156 205.105469 125.652344 C 204.597656 125.140625 204.066406 124.660156 203.515625 124.203125 C 202.960938 123.746094 202.386719 123.316406 201.792969 122.917969 C 201.195312 122.519531 200.582031 122.148438 199.953125 121.808594 C 199.320312 121.472656 198.675781 121.164062 198.015625 120.886719 C 197.351562 120.613281 196.679688 120.371094 195.996094 120.160156 C 195.308594 119.953125 194.617188 119.777344 193.914062 119.636719 C 193.210938 119.496094 192.503906 119.390625 191.792969 119.320312 C 191.082031 119.25 190.367188 119.214844 189.652344 119.214844 C 188.9375 119.214844 188.222656 119.25 187.507812 119.320312 C 186.796875 119.390625 186.089844 119.496094 185.386719 119.636719 C 184.6875 119.777344 183.992188 119.953125 183.308594 120.160156 C 182.625 120.371094 181.949219 120.613281 181.289062 120.886719 C 180.628906 121.164062 179.980469 121.472656 179.351562 121.808594 C 178.71875 122.148438 178.105469 122.519531 177.511719 122.917969 C 176.914062 123.316406 176.339844 123.746094 175.789062 124.203125 C 175.234375 124.660156 174.707031 125.140625 174.199219 125.652344 C 173.695312 126.160156 173.214844 126.691406 172.757812 127.246094 C 172.304688 127.804688 171.878906 128.382812 171.480469 128.980469 C 171.085938 129.578125 170.714844 130.195312 170.378906 130.828125 C 170.042969 131.464844 169.738281 132.113281 169.460938 132.777344 C 169.1875 133.441406 168.949219 134.121094 168.738281 134.808594 C 168.53125 135.496094 168.359375 136.191406 168.21875 136.898438 C 168.078125 137.605469 167.972656 138.316406 167.902344 139.03125 C 167.835938 139.746094 167.800781 140.464844 167.800781 141.183594 Z M 167.800781 141.183594 " fill-opacity="0.7765" fill-rule="nonzero"/><path fill="#ec008b" d="M 177.578125 107.933594 C 167.105469 110.101562 158.335938 115.378906 153.160156 122.960938 C 153.25 123.605469 153.378906 124.242188 153.542969 124.867188 C 153.710938 125.496094 153.917969 126.109375 154.160156 126.710938 C 154.402344 127.3125 154.683594 127.894531 154.996094 128.460938 C 155.3125 129.027344 155.660156 129.574219 156.042969 130.097656 C 156.425781 130.621094 156.839844 131.117188 157.28125 131.589844 C 157.726562 132.0625 158.195312 132.503906 158.695312 132.917969 C 159.195312 133.328125 159.714844 133.710938 160.261719 134.058594 C 160.804688 134.40625 161.371094 134.71875 161.953125 134.996094 C 162.539062 135.273438 163.136719 135.511719 163.75 135.714844 C 164.363281 135.917969 164.988281 136.082031 165.621094 136.207031 C 166.253906 136.332031 166.894531 136.417969 167.539062 136.464844 C 168.179688 136.507812 168.824219 136.515625 169.472656 136.480469 C 170.117188 136.445312 170.757812 136.371094 171.390625 136.253906 C 172.027344 136.140625 172.652344 135.984375 173.269531 135.792969 C 173.886719 135.601562 174.488281 135.371094 175.078125 135.101562 C 175.664062 134.835938 176.234375 134.53125 176.785156 134.191406 C 177.335938 133.851562 177.863281 133.480469 178.367188 133.074219 C 178.875 132.671875 179.351562 132.238281 179.804688 131.773438 C 180.253906 131.308594 180.675781 130.816406 181.066406 130.300781 C 181.457031 129.785156 181.8125 129.246094 182.136719 128.683594 C 182.460938 128.121094 182.75 127.542969 183.003906 126.945312 C 183.257812 126.347656 183.472656 125.734375 183.648438 125.113281 C 183.824219 124.488281 183.964844 123.855469 184.0625 123.214844 C 184.164062 122.570312 184.222656 121.925781 184.242188 121.277344 C 184.261719 120.628906 184.242188 119.980469 184.179688 119.335938 C 184.121094 118.6875 184.019531 118.046875 183.882812 117.414062 C 183.742188 116.78125 183.5625 116.15625 183.347656 115.546875 C 183.132812 114.933594 182.878906 114.339844 182.589844 113.757812 C 182.300781 113.179688 181.976562 112.617188 181.617188 112.078125 C 181.257812 111.539062 180.867188 111.023438 180.445312 110.53125 C 180.023438 110.039062 179.570312 109.578125 179.09375 109.140625 C 178.613281 108.707031 178.109375 108.304688 177.578125 107.933594 Z M 177.578125 107.933594 " fill-opacity="0.7765" fill-rule="evenodd"/><path fill="#56ba48" d="M 197.007812 131.558594 C 196.148438 131.558594 195.296875 131.472656 194.457031 131.304688 C 193.613281 131.136719 192.792969 130.886719 192 130.558594 C 191.207031 130.226562 190.453125 129.820312 189.738281 129.339844 C 189.023438 128.863281 188.359375 128.316406 187.753906 127.707031 C 187.144531 127.09375 186.601562 126.429688 186.125 125.710938 C 185.648438 124.996094 185.242188 124.234375 184.914062 123.4375 C 184.585938 122.640625 184.335938 121.816406 184.167969 120.96875 C 184 120.121094 183.917969 119.265625 183.917969 118.402344 C 183.917969 117.539062 184 116.683594 184.167969 115.835938 C 184.335938 114.988281 184.585938 114.164062 184.914062 113.367188 C 185.242188 112.570312 185.644531 111.8125 186.121094 111.09375 C 186.597656 110.375 187.140625 109.707031 187.75 109.097656 C 188.355469 108.488281 189.019531 107.941406 189.734375 107.460938 C 190.445312 106.980469 191.199219 106.574219 191.996094 106.246094 C 192.789062 105.914062 193.605469 105.664062 194.449219 105.496094 C 195.292969 105.328125 196.144531 105.242188 197.003906 105.242188 C 197.863281 105.242188 198.714844 105.328125 199.558594 105.496094 C 200.398438 105.664062 201.21875 105.914062 202.011719 106.242188 C 202.804688 106.574219 203.5625 106.980469 204.273438 107.460938 C 204.988281 107.941406 205.652344 108.484375 206.257812 109.097656 C 206.867188 109.707031 207.410156 110.371094 207.886719 111.089844 C 208.363281 111.808594 208.765625 112.566406 209.097656 113.363281 C 209.425781 114.164062 209.671875 114.984375 209.839844 115.832031 C 210.007812 116.679688 210.09375 117.535156 210.09375 118.398438 C 210.089844 119.261719 210.003906 120.117188 209.835938 120.964844 C 209.667969 121.8125 209.417969 122.632812 209.089844 123.429688 C 208.761719 124.226562 208.359375 124.984375 207.878906 125.703125 C 207.402344 126.421875 206.859375 127.085938 206.253906 127.695312 C 205.648438 128.304688 204.984375 128.851562 204.273438 129.332031 C 203.558594 129.8125 202.804688 130.21875 202.011719 130.546875 C 201.21875 130.878906 200.402344 131.128906 199.558594 131.300781 C 198.71875 131.46875 197.867188 131.554688 197.007812 131.558594 Z M 197.007812 131.558594 " fill-opacity="0.7765" fill-rule="evenodd"/><g fill="#000000" fill-opacity="1"><g transform="translate(118.042277, 248.00011)"><g><path d="M 10.40625 0.234375 C 8.71875 0.234375 7.203125 -0.0390625 5.859375 -0.59375 C 4.523438 -1.144531 3.457031 -1.957031 2.65625 -3.03125 C 1.851562 -4.101562 1.429688 -5.398438 1.390625 -6.921875 L 7.375 -6.921875 C 7.46875 -6.054688 7.765625 -5.398438 8.265625 -4.953125 C 8.773438 -4.503906 9.4375 -4.28125 10.25 -4.28125 C 11.082031 -4.28125 11.738281 -4.472656 12.21875 -4.859375 C 12.695312 -5.242188 12.9375 -5.773438 12.9375 -6.453125 C 12.9375 -7.023438 12.742188 -7.5 12.359375 -7.875 C 11.984375 -8.25 11.515625 -8.554688 10.953125 -8.796875 C 10.390625 -9.035156 9.59375 -9.3125 8.5625 -9.625 C 7.070312 -10.082031 5.851562 -10.539062 4.90625 -11 C 3.957031 -11.457031 3.144531 -12.132812 2.46875 -13.03125 C 1.789062 -13.9375 1.453125 -15.113281 1.453125 -16.5625 C 1.453125 -18.71875 2.226562 -20.40625 3.78125 -21.625 C 5.34375 -22.84375 7.375 -23.453125 9.875 -23.453125 C 12.425781 -23.453125 14.476562 -22.84375 16.03125 -21.625 C 17.59375 -20.40625 18.429688 -18.707031 18.546875 -16.53125 L 12.453125 -16.53125 C 12.410156 -17.28125 12.132812 -17.867188 11.625 -18.296875 C 11.125 -18.722656 10.476562 -18.9375 9.6875 -18.9375 C 9 -18.9375 8.445312 -18.753906 8.03125 -18.390625 C 7.613281 -18.035156 7.40625 -17.515625 7.40625 -16.828125 C 7.40625 -16.085938 7.753906 -15.503906 8.453125 -15.078125 C 9.160156 -14.660156 10.265625 -14.210938 11.765625 -13.734375 C 13.253906 -13.234375 14.460938 -12.75 15.390625 -12.28125 C 16.328125 -11.820312 17.132812 -11.148438 17.8125 -10.265625 C 18.5 -9.390625 18.84375 -8.265625 18.84375 -6.890625 C 18.84375 -5.566406 18.503906 -4.367188 17.828125 -3.296875 C 17.160156 -2.222656 16.191406 -1.363281 14.921875 -0.71875 C 13.648438 -0.0820312 12.144531 0.234375 10.40625 0.234375 Z M 10.40625 0.234375 "/></g></g></g><g fill="#000000" fill-opacity="1"><g transform="translate(139.97415, 248.00011)"><g><path d="M 7.671875 -23.125 L 7.671875 0 L 2.046875 0 L 2.046875 -23.125 Z M 7.671875 -23.125 "/></g></g></g><g fill="#000000" fill-opacity="1"><g transform="translate(151.368534, 248.00011)"><g><path d="M 22.734375 0 L 17.09375 0 L 7.671875 -14.265625 L 7.671875 0 L 2.046875 0 L 2.046875 -23.125 L 7.671875 -23.125 L 17.09375 -8.796875 L 17.09375 -23.125 L 22.734375 -23.125 Z M 22.734375 0 "/></g></g></g><g fill="#000000" fill-opacity="1"><g transform="translate(177.811771, 248.00011)"><g><path d="M 7.671875 -18.609375 L 7.671875 -13.9375 L 15.21875 -13.9375 L 15.21875 -9.578125 L 7.671875 -9.578125 L 7.671875 -4.515625 L 16.203125 -4.515625 L 16.203125 0 L 2.046875 0 L 2.046875 -23.125 L 16.203125 -23.125 L 16.203125 -18.609375 Z M 7.671875 -18.609375 "/></g></g></g><g fill="#000000" fill-opacity="1"><g transform="translate(197.306854, 248.00011)"><g><path d="M 13.828125 0 L 9.03125 -8.734375 L 7.671875 -8.734375 L 7.671875 0 L 2.046875 0 L 2.046875 -23.125 L 11.5 -23.125 C 13.320312 -23.125 14.875 -22.804688 16.15625 -22.171875 C 17.4375 -21.535156 18.394531 -20.660156 19.03125 -19.546875 C 19.675781 -18.441406 20 -17.207031 20 -15.84375 C 20 -14.300781 19.5625 -12.925781 18.6875 -11.71875 C 17.820312 -10.519531 16.546875 -9.664062 14.859375 -9.15625 L 20.1875 0 Z M 7.671875 -12.71875 L 11.171875 -12.71875 C 12.203125 -12.71875 12.972656 -12.96875 13.484375 -13.46875 C 14.003906 -13.976562 14.265625 -14.691406 14.265625 -15.609375 C 14.265625 -16.492188 14.003906 -17.1875 13.484375 -17.6875 C 12.972656 -18.1875 12.203125 -18.4375 11.171875 -18.4375 L 7.671875 -18.4375 Z M 7.671875 -12.71875 "/></g></g></g><g fill="#000000" fill-opacity="1"><g transform="translate(220.457118, 248.00011)"><g><path d="M 17.390625 -15.8125 C 16.972656 -16.582031 16.375 -17.171875 15.59375 -17.578125 C 14.8125 -17.984375 13.894531 -18.1875 12.84375 -18.1875 C 11.019531 -18.1875 9.554688 -17.585938 8.453125 -16.390625 C 7.359375 -15.191406 6.8125 -13.59375 6.8125 -11.59375 C 6.8125 -9.46875 7.390625 -7.804688 8.546875 -6.609375 C 9.703125 -5.410156 11.289062 -4.8125 13.3125 -4.8125 C 14.6875 -4.8125 15.851562 -5.160156 16.8125 -5.859375 C 17.769531 -6.566406 18.46875 -7.578125 18.90625 -8.890625 L 11.765625 -8.890625 L 11.765625 -13.046875 L 24.015625 -13.046875 L 24.015625 -7.8125 C 23.597656 -6.40625 22.890625 -5.097656 21.890625 -3.890625 C 20.890625 -2.679688 19.617188 -1.703125 18.078125 -0.953125 C 16.546875 -0.203125 14.8125 0.171875 12.875 0.171875 C 10.59375 0.171875 8.554688 -0.328125 6.765625 -1.328125 C 4.972656 -2.328125 3.578125 -3.71875 2.578125 -5.5 C 1.585938 -7.28125 1.09375 -9.3125 1.09375 -11.59375 C 1.09375 -13.875 1.585938 -15.910156 2.578125 -17.703125 C 3.578125 -19.492188 4.96875 -20.890625 6.75 -21.890625 C 8.53125 -22.890625 10.5625 -23.390625 12.84375 -23.390625 C 15.613281 -23.390625 17.945312 -22.71875 19.84375 -21.375 C 21.738281 -20.039062 22.992188 -18.1875 23.609375 -15.8125 Z M 17.390625 -15.8125 "/></g></g></g><g fill="#000000" fill-opacity="1"><g transform="translate(247.229653, 248.00011)"><g><path d="M 7.671875 -23.125 L 7.671875 0 L 2.046875 0 L 2.046875 -23.125 Z M 7.671875 -23.125 "/></g></g></g><g fill="#000000" fill-opacity="1"><g transform="translate(142.617548, 264.774093)"><g><path d="M 4.53125 -6.484375 L 4.53125 -5.9375 L 2.734375 -5.9375 L 2.734375 0 L 2.078125 0 L 2.078125 -5.9375 L 0.28125 -5.9375 L 0.28125 -6.484375 Z M 4.53125 -6.484375 "/></g></g></g><g fill="#000000" fill-opacity="1"><g transform="translate(147.895055, 264.774093)"><g><path d="M 0.4375 -2.53125 C 0.4375 -3.050781 0.539062 -3.507812 0.75 -3.90625 C 0.957031 -4.300781 1.242188 -4.601562 1.609375 -4.8125 C 1.984375 -5.03125 2.398438 -5.140625 2.859375 -5.140625 C 3.335938 -5.140625 3.753906 -5.023438 4.109375 -4.796875 C 4.460938 -4.578125 4.710938 -4.296875 4.859375 -3.953125 L 4.859375 -5.0625 L 5.515625 -5.0625 L 5.515625 0 L 4.859375 0 L 4.859375 -1.125 C 4.703125 -0.78125 4.445312 -0.492188 4.09375 -0.265625 C 3.75 -0.0351562 3.335938 0.078125 2.859375 0.078125 C 2.398438 0.078125 1.984375 -0.03125 1.609375 -0.25 C 1.242188 -0.46875 0.957031 -0.773438 0.75 -1.171875 C 0.539062 -1.566406 0.4375 -2.019531 0.4375 -2.53125 Z M 4.859375 -2.53125 C 4.859375 -2.9375 4.773438 -3.289062 4.609375 -3.59375 C 4.441406 -3.90625 4.210938 -4.144531 3.921875 -4.3125 C 3.640625 -4.476562 3.328125 -4.5625 2.984375 -4.5625 C 2.628906 -4.5625 2.304688 -4.484375 2.015625 -4.328125 C 1.734375 -4.171875 1.507812 -3.9375 1.34375 -3.625 C 1.1875 -3.320312 1.109375 -2.957031 1.109375 -2.53125 C 1.109375 -2.125 1.1875 -1.765625 1.34375 -1.453125 C 1.507812 -1.140625 1.734375 -0.898438 2.015625 -0.734375 C 2.304688 -0.566406 2.628906 -0.484375 2.984375 -0.484375 C 3.328125 -0.484375 3.640625 -0.566406 3.921875 -0.734375 C 4.210938 -0.898438 4.441406 -1.140625 4.609375 -1.453125 C 4.773438 -1.765625 4.859375 -2.125 4.859375 -2.53125 Z M 4.859375 -2.53125 "/></g></g></g><g fill="#000000" fill-opacity="1"><g transform="translate(154.607502, 264.774093)"><g><path d="M 1.390625 -6.859375 L 1.390625 0 L 0.734375 0 L 0.734375 -6.859375 Z M 1.390625 -6.859375 "/></g></g></g><g fill="#000000" fill-opacity="1"><g transform="translate(157.191001, 264.774093)"><g><path d="M 5.3125 -2.78125 C 5.3125 -2.5625 5.304688 -2.394531 5.296875 -2.28125 L 1.109375 -2.28125 C 1.117188 -1.894531 1.207031 -1.566406 1.375 -1.296875 C 1.539062 -1.023438 1.757812 -0.816406 2.03125 -0.671875 C 2.3125 -0.535156 2.609375 -0.46875 2.921875 -0.46875 C 3.347656 -0.46875 3.703125 -0.566406 3.984375 -0.765625 C 4.273438 -0.972656 4.46875 -1.253906 4.5625 -1.609375 L 5.25 -1.609375 C 5.125 -1.109375 4.859375 -0.703125 4.453125 -0.390625 C 4.046875 -0.078125 3.535156 0.078125 2.921875 0.078125 C 2.453125 0.078125 2.023438 -0.0234375 1.640625 -0.234375 C 1.265625 -0.453125 0.96875 -0.753906 0.75 -1.140625 C 0.539062 -1.535156 0.4375 -2 0.4375 -2.53125 C 0.4375 -3.050781 0.539062 -3.507812 0.75 -3.90625 C 0.96875 -4.300781 1.265625 -4.601562 1.640625 -4.8125 C 2.015625 -5.03125 2.441406 -5.140625 2.921875 -5.140625 C 3.410156 -5.140625 3.832031 -5.03125 4.1875 -4.8125 C 4.550781 -4.601562 4.828125 -4.320312 5.015625 -3.96875 C 5.210938 -3.613281 5.3125 -3.21875 5.3125 -2.78125 Z M 4.65625 -2.8125 C 4.664062 -3.1875 4.59375 -3.503906 4.4375 -3.765625 C 4.28125 -4.035156 4.0625 -4.238281 3.78125 -4.375 C 3.507812 -4.507812 3.21875 -4.578125 2.90625 -4.578125 C 2.414062 -4.578125 2 -4.421875 1.65625 -4.109375 C 1.320312 -3.804688 1.140625 -3.375 1.109375 -2.8125 Z M 4.65625 -2.8125 "/></g></g></g><g fill="#000000" fill-opacity="1"><g transform="translate(163.412795, 264.774093)"><g><path d="M 3.109375 -5.15625 C 3.710938 -5.15625 4.207031 -4.96875 4.59375 -4.59375 C 4.976562 -4.21875 5.171875 -3.675781 5.171875 -2.96875 L 5.171875 0 L 4.53125 0 L 4.53125 -2.890625 C 4.53125 -3.441406 4.390625 -3.863281 4.109375 -4.15625 C 3.835938 -4.445312 3.46875 -4.59375 3 -4.59375 C 2.507812 -4.59375 2.117188 -4.4375 1.828125 -4.125 C 1.535156 -3.8125 1.390625 -3.359375 1.390625 -2.765625 L 1.390625 0 L 0.734375 0 L 0.734375 -5.0625 L 1.390625 -5.0625 L 1.390625 -4.203125 C 1.546875 -4.503906 1.773438 -4.738281 2.078125 -4.90625 C 2.378906 -5.070312 2.722656 -5.15625 3.109375 -5.15625 Z M 3.109375 -5.15625 "/></g></g></g><g fill="#000000" fill-opacity="1"><g transform="translate(169.736416, 264.774093)"><g><path d="M 1.578125 -4.515625 L 1.578125 -1.375 C 1.578125 -1.0625 1.632812 -0.847656 1.75 -0.734375 C 1.875 -0.617188 2.082031 -0.5625 2.375 -0.5625 L 2.96875 -0.5625 L 2.96875 0 L 2.28125 0 C 1.820312 0 1.476562 -0.101562 1.25 -0.3125 C 1.03125 -0.53125 0.921875 -0.882812 0.921875 -1.375 L 0.921875 -4.515625 L 0.21875 -4.515625 L 0.21875 -5.0625 L 0.921875 -5.0625 L 0.921875 -6.328125 L 1.578125 -6.328125 L 1.578125 -5.0625 L 2.96875 -5.0625 L 2.96875 -4.515625 Z M 1.578125 -4.515625 "/></g></g></g><g fill="#000000" fill-opacity="1"><g transform="translate(173.495645, 264.774093)"><g/></g></g><g fill="#000000" fill-opacity="1"><g transform="translate(176.495742, 264.774093)"><g><path d="M 5.3125 -2.78125 C 5.3125 -2.5625 5.304688 -2.394531 5.296875 -2.28125 L 1.109375 -2.28125 C 1.117188 -1.894531 1.207031 -1.566406 1.375 -1.296875 C 1.539062 -1.023438 1.757812 -0.816406 2.03125 -0.671875 C 2.3125 -0.535156 2.609375 -0.46875 2.921875 -0.46875 C 3.347656 -0.46875 3.703125 -0.566406 3.984375 -0.765625 C 4.273438 -0.972656 4.46875 -1.253906 4.5625 -1.609375 L 5.25 -1.609375 C 5.125 -1.109375 4.859375 -0.703125 4.453125 -0.390625 C 4.046875 -0.078125 3.535156 0.078125 2.921875 0.078125 C 2.453125 0.078125 2.023438 -0.0234375 1.640625 -0.234375 C 1.265625 -0.453125 0.96875 -0.753906 0.75 -1.140625 C 0.539062 -1.535156 0.4375 -2 0.4375 -2.53125 C 0.4375 -3.050781 0.539062 -3.507812 0.75 -3.90625 C 0.96875 -4.300781 1.265625 -4.601562 1.640625 -4.8125 C 2.015625 -5.03125 2.441406 -5.140625 2.921875 -5.140625 C 3.410156 -5.140625 3.832031 -5.03125 4.1875 -4.8125 C 4.550781 -4.601562 4.828125 -4.320312 5.015625 -3.96875 C 5.210938 -3.613281 5.3125 -3.21875 5.3125 -2.78125 Z M 4.65625 -2.8125 C 4.664062 -3.1875 4.59375 -3.503906 4.4375 -3.765625 C 4.28125 -4.035156 4.0625 -4.238281 3.78125 -4.375 C 3.507812 -4.507812 3.21875 -4.578125 2.90625 -4.578125 C 2.414062 -4.578125 2 -4.421875 1.65625 -4.109375 C 1.320312 -3.804688 1.140625 -3.375 1.109375 -2.8125 Z M 4.65625 -2.8125 "/></g></g></g><g fill="#000000" fill-opacity="1"><g transform="translate(182.717534, 264.774093)"><g><path d="M 3.078125 -3.234375 L 5.046875 0 L 4.3125 0 L 2.671875 -2.703125 L 1.109375 0 L 0.375 0 L 2.328125 -3.265625 L 0.375 -6.484375 L 1.109375 -6.484375 L 2.75 -3.78125 L 4.328125 -6.484375 L 5.046875 -6.484375 Z M 3.078125 -3.234375 "/></g></g></g><g fill="#000000" fill-opacity="1"><g transform="translate(188.596793, 264.774093)"><g><path d="M 1.375 -3.953125 C 1.539062 -4.285156 1.796875 -4.566406 2.140625 -4.796875 C 2.492188 -5.023438 2.910156 -5.140625 3.390625 -5.140625 C 3.847656 -5.140625 4.257812 -5.03125 4.625 -4.8125 C 4.988281 -4.601562 5.273438 -4.300781 5.484375 -3.90625 C 5.691406 -3.507812 5.796875 -3.050781 5.796875 -2.53125 C 5.796875 -2.019531 5.691406 -1.566406 5.484375 -1.171875 C 5.273438 -0.773438 4.988281 -0.46875 4.625 -0.25 C 4.257812 -0.03125 3.847656 0.078125 3.390625 0.078125 C 2.910156 0.078125 2.492188 -0.0351562 2.140625 -0.265625 C 1.796875 -0.492188 1.539062 -0.773438 1.375 -1.109375 L 1.375 2.390625 L 0.734375 2.390625 L 0.734375 -5.0625 L 1.375 -5.0625 Z M 5.140625 -2.53125 C 5.140625 -2.957031 5.054688 -3.320312 4.890625 -3.625 C 4.734375 -3.9375 4.507812 -4.171875 4.21875 -4.328125 C 3.9375 -4.484375 3.617188 -4.5625 3.265625 -4.5625 C 2.921875 -4.5625 2.601562 -4.476562 2.3125 -4.3125 C 2.019531 -4.144531 1.789062 -3.90625 1.625 -3.59375 C 1.457031 -3.289062 1.375 -2.9375 1.375 -2.53125 C 1.375 -2.125 1.457031 -1.765625 1.625 -1.453125 C 1.789062 -1.140625 2.019531 -0.898438 2.3125 -0.734375 C 2.601562 -0.566406 2.921875 -0.484375 3.265625 -0.484375 C 3.617188 -0.484375 3.9375 -0.566406 4.21875 -0.734375 C 4.507812 -0.898438 4.734375 -1.140625 4.890625 -1.453125 C 5.054688 -1.765625 5.140625 -2.125 5.140625 -2.53125 Z M 5.140625 -2.53125 "/></g></g></g><g fill="#000000" fill-opacity="1"><g transform="translate(195.309239, 264.774093)"><g><path d="M 5.3125 -2.78125 C 5.3125 -2.5625 5.304688 -2.394531 5.296875 -2.28125 L 1.109375 -2.28125 C 1.117188 -1.894531 1.207031 -1.566406 1.375 -1.296875 C 1.539062 -1.023438 1.757812 -0.816406 2.03125 -0.671875 C 2.3125 -0.535156 2.609375 -0.46875 2.921875 -0.46875 C 3.347656 -0.46875 3.703125 -0.566406 3.984375 -0.765625 C 4.273438 -0.972656 4.46875 -1.253906 4.5625 -1.609375 L 5.25 -1.609375 C 5.125 -1.109375 4.859375 -0.703125 4.453125 -0.390625 C 4.046875 -0.078125 3.535156 0.078125 2.921875 0.078125 C 2.453125 0.078125 2.023438 -0.0234375 1.640625 -0.234375 C 1.265625 -0.453125 0.96875 -0.753906 0.75 -1.140625 C 0.539062 -1.535156 0.4375 -2 0.4375 -2.53125 C 0.4375 -3.050781 0.539062 -3.507812 0.75 -3.90625 C 0.96875 -4.300781 1.265625 -4.601562 1.640625 -4.8125 C 2.015625 -5.03125 2.441406 -5.140625 2.921875 -5.140625 C 3.410156 -5.140625 3.832031 -5.03125 4.1875 -4.8125 C 4.550781 -4.601562 4.828125 -4.320312 5.015625 -3.96875 C 5.210938 -3.613281 5.3125 -3.21875 5.3125 -2.78125 Z M 4.65625 -2.8125 C 4.664062 -3.1875 4.59375 -3.503906 4.4375 -3.765625 C 4.28125 -4.035156 4.0625 -4.238281 3.78125 -4.375 C 3.507812 -4.507812 3.21875 -4.578125 2.90625 -4.578125 C 2.414062 -4.578125 2 -4.421875 1.65625 -4.109375 C 1.320312 -3.804688 1.140625 -3.375 1.109375 -2.8125 Z M 4.65625 -2.8125 "/></g></g></g><g fill="#000000" fill-opacity="1"><g transform="translate(201.531031, 264.774093)"><g><path d="M 1.390625 -4.15625 C 1.535156 -4.476562 1.753906 -4.722656 2.046875 -4.890625 C 2.335938 -5.066406 2.695312 -5.15625 3.125 -5.15625 L 3.125 -4.46875 L 2.953125 -4.46875 C 2.484375 -4.46875 2.101562 -4.34375 1.8125 -4.09375 C 1.53125 -3.84375 1.390625 -3.421875 1.390625 -2.828125 L 1.390625 0 L 0.734375 0 L 0.734375 -5.0625 L 1.390625 -5.0625 Z M 1.390625 -4.15625 "/></g></g></g><g fill="#000000" fill-opacity="1"><g transform="translate(205.34581, 264.774093)"><g><path d="M 1.0625 -6.015625 C 0.9375 -6.015625 0.828125 -6.0625 0.734375 -6.15625 C 0.640625 -6.25 0.59375 -6.363281 0.59375 -6.5 C 0.59375 -6.632812 0.640625 -6.742188 0.734375 -6.828125 C 0.828125 -6.921875 0.9375 -6.96875 1.0625 -6.96875 C 1.195312 -6.96875 1.304688 -6.921875 1.390625 -6.828125 C 1.484375 -6.742188 1.53125 -6.632812 1.53125 -6.5 C 1.53125 -6.363281 1.484375 -6.25 1.390625 -6.15625 C 1.304688 -6.0625 1.195312 -6.015625 1.0625 -6.015625 Z M 1.390625 -5.0625 L 1.390625 0 L 0.734375 0 L 0.734375 -5.0625 Z M 1.390625 -5.0625 "/></g></g></g><g fill="#000000" fill-opacity="1"><g transform="translate(207.929307, 264.774093)"><g><path d="M 5.3125 -2.78125 C 5.3125 -2.5625 5.304688 -2.394531 5.296875 -2.28125 L 1.109375 -2.28125 C 1.117188 -1.894531 1.207031 -1.566406 1.375 -1.296875 C 1.539062 -1.023438 1.757812 -0.816406 2.03125 -0.671875 C 2.3125 -0.535156 2.609375 -0.46875 2.921875 -0.46875 C 3.347656 -0.46875 3.703125 -0.566406 3.984375 -0.765625 C 4.273438 -0.972656 4.46875 -1.253906 4.5625 -1.609375 L 5.25 -1.609375 C 5.125 -1.109375 4.859375 -0.703125 4.453125 -0.390625 C 4.046875 -0.078125 3.535156 0.078125 2.921875 0.078125 C 2.453125 0.078125 2.023438 -0.0234375 1.640625 -0.234375 C 1.265625 -0.453125 0.96875 -0.753906 0.75 -1.140625 C 0.539062 -1.535156 0.4375 -2 0.4375 -2.53125 C 0.4375 -3.050781 0.539062 -3.507812 0.75 -3.90625 C 0.96875 -4.300781 1.265625 -4.601562 1.640625 -4.8125 C 2.015625 -5.03125 2.441406 -5.140625 2.921875 -5.140625 C 3.410156 -5.140625 3.832031 -5.03125 4.1875 -4.8125 C 4.550781 -4.601562 4.828125 -4.320312 5.015625 -3.96875 C 5.210938 -3.613281 5.3125 -3.21875 5.3125 -2.78125 Z M 4.65625 -2.8125 C 4.664062 -3.1875 4.59375 -3.503906 4.4375 -3.765625 C 4.28125 -4.035156 4.0625 -4.238281 3.78125 -4.375 C 3.507812 -4.507812 3.21875 -4.578125 2.90625 -4.578125 C 2.414062 -4.578125 2 -4.421875 1.65625 -4.109375 C 1.320312 -3.804688 1.140625 -3.375 1.109375 -2.8125 Z M 4.65625 -2.8125 "/></g></g></g><g fill="#000000" fill-opacity="1"><g transform="translate(214.151099, 264.774093)"><g><path d="M 3.109375 -5.15625 C 3.710938 -5.15625 4.207031 -4.96875 4.59375 -4.59375 C 4.976562 -4.21875 5.171875 -3.675781 5.171875 -2.96875 L 5.171875 0 L 4.53125 0 L 4.53125 -2.890625 C 4.53125 -3.441406 4.390625 -3.863281 4.109375 -4.15625 C 3.835938 -4.445312 3.46875 -4.59375 3 -4.59375 C 2.507812 -4.59375 2.117188 -4.4375 1.828125 -4.125 C 1.535156 -3.8125 1.390625 -3.359375 1.390625 -2.765625 L 1.390625 0 L 0.734375 0 L 0.734375 -5.0625 L 1.390625 -5.0625 L 1.390625 -4.203125 C 1.546875 -4.503906 1.773438 -4.738281 2.078125 -4.90625 C 2.378906 -5.070312 2.722656 -5.15625 3.109375 -5.15625 Z M 3.109375 -5.15625 "/></g></g></g><g fill="#000000" fill-opacity="1"><g transform="translate(220.474721, 264.774093)"><g><path d="M 0.4375 -2.53125 C 0.4375 -3.050781 0.539062 -3.507812 0.75 -3.90625 C 0.96875 -4.300781 1.257812 -4.601562 1.625 -4.8125 C 2 -5.03125 2.425781 -5.140625 2.90625 -5.140625 C 3.53125 -5.140625 4.039062 -4.984375 4.4375 -4.671875 C 4.84375 -4.359375 5.101562 -3.9375 5.21875 -3.40625 L 4.53125 -3.40625 C 4.445312 -3.769531 4.257812 -4.054688 3.96875 -4.265625 C 3.6875 -4.472656 3.332031 -4.578125 2.90625 -4.578125 C 2.5625 -4.578125 2.253906 -4.5 1.984375 -4.34375 C 1.710938 -4.1875 1.5 -3.957031 1.34375 -3.65625 C 1.1875 -3.351562 1.109375 -2.976562 1.109375 -2.53125 C 1.109375 -2.082031 1.1875 -1.703125 1.34375 -1.390625 C 1.5 -1.085938 1.710938 -0.859375 1.984375 -0.703125 C 2.253906 -0.546875 2.5625 -0.46875 2.90625 -0.46875 C 3.332031 -0.46875 3.6875 -0.570312 3.96875 -0.78125 C 4.257812 -0.988281 4.445312 -1.28125 4.53125 -1.65625 L 5.21875 -1.65625 C 5.101562 -1.132812 4.84375 -0.710938 4.4375 -0.390625 C 4.03125 -0.078125 3.519531 0.078125 2.90625 0.078125 C 2.425781 0.078125 2 -0.0234375 1.625 -0.234375 C 1.257812 -0.453125 0.96875 -0.753906 0.75 -1.140625 C 0.539062 -1.535156 0.4375 -2 0.4375 -2.53125 Z M 0.4375 -2.53125 "/></g></g></g><g fill="#000000" fill-opacity="1"><g transform="translate(226.613188, 264.774093)"><g><path d="M 5.3125 -2.78125 C 5.3125 -2.5625 5.304688 -2.394531 5.296875 -2.28125 L 1.109375 -2.28125 C 1.117188 -1.894531 1.207031 -1.566406 1.375 -1.296875 C 1.539062 -1.023438 1.757812 -0.816406 2.03125 -0.671875 C 2.3125 -0.535156 2.609375 -0.46875 2.921875 -0.46875 C 3.347656 -0.46875 3.703125 -0.566406 3.984375 -0.765625 C 4.273438 -0.972656 4.46875 -1.253906 4.5625 -1.609375 L 5.25 -1.609375 C 5.125 -1.109375 4.859375 -0.703125 4.453125 -0.390625 C 4.046875 -0.078125 3.535156 0.078125 2.921875 0.078125 C 2.453125 0.078125 2.023438 -0.0234375 1.640625 -0.234375 C 1.265625 -0.453125 0.96875 -0.753906 0.75 -1.140625 C 0.539062 -1.535156 0.4375 -2 0.4375 -2.53125 C 0.4375 -3.050781 0.539062 -3.507812 0.75 -3.90625 C 0.96875 -4.300781 1.265625 -4.601562 1.640625 -4.8125 C 2.015625 -5.03125 2.441406 -5.140625 2.921875 -5.140625 C 3.410156 -5.140625 3.832031 -5.03125 4.1875 -4.8125 C 4.550781 -4.601562 4.828125 -4.320312 5.015625 -3.96875 C 5.210938 -3.613281 5.3125 -3.21875 5.3125 -2.78125 Z M 4.65625 -2.8125 C 4.664062 -3.1875 4.59375 -3.503906 4.4375 -3.765625 C 4.28125 -4.035156 4.0625 -4.238281 3.78125 -4.375 C 3.507812 -4.507812 3.21875 -4.578125 2.90625 -4.578125 C 2.414062 -4.578125 2 -4.421875 1.65625 -4.109375 C 1.320312 -3.804688 1.140625 -3.375 1.109375 -2.8125 Z M 4.65625 -2.8125 "/></g></g></g></svg>