<svg xmlns="http://www.w3.org/2000/svg" xmlns:xlink="http://www.w3.org/1999/xlink" width="500" zoomAndPan="magnify" viewBox="0 0 375 374.999991" height="500" preserveAspectRatio="xMidYMid meet" version="1.0"><defs><clipPath id="9eb7f05a69"><path d="M 68.324219 132 L 193 132 L 193 266 L 68.324219 266 Z M 68.324219 132 " clip-rule="nonzero"/></clipPath><clipPath id="66c58b23c4"><path d="M 100 209 L 230 209 L 230 337.261719 L 100 337.261719 Z M 100 209 " clip-rule="nonzero"/></clipPath><clipPath id="97045fe752"><path d="M 139 269 L 219 269 L 219 337.261719 L 139 337.261719 Z M 139 269 " clip-rule="nonzero"/></clipPath><clipPath id="5f5d956a3a"><path d="M 278 101 L 306.671875 101 L 306.671875 130 L 278 130 Z M 278 101 " clip-rule="nonzero"/></clipPath><clipPath id="316090d8c3"><path d="M 231 50.011719 L 249 50.011719 L 249 68 L 231 68 Z M 231 50.011719 " clip-rule="nonzero"/></clipPath></defs><rect x="-37.5" width="450" fill="#ffffff" y="-37.499999" height="449.999989" fill-opacity="1"/><rect x="-37.5" width="450" fill="#f6f6f6" y="-37.499999" height="449.999989" fill-opacity="1"/><path fill="#f9ed32" d="M 181.460938 89.625 C 180.433594 89.625 179.417969 89.523438 178.414062 89.324219 C 177.410156 89.125 176.433594 88.828125 175.488281 88.4375 C 174.542969 88.046875 173.640625 87.566406 172.789062 87 C 171.9375 86.429688 171.148438 85.785156 170.425781 85.0625 C 169.699219 84.339844 169.054688 83.550781 168.484375 82.703125 C 167.914062 81.851562 167.433594 80.953125 167.042969 80.007812 C 166.648438 79.0625 166.351562 78.089844 166.152344 77.085938 C 165.953125 76.082031 165.851562 75.070312 165.851562 74.046875 C 165.847656 73.023438 165.949219 72.011719 166.148438 71.007812 C 166.347656 70.003906 166.640625 69.03125 167.035156 68.085938 C 167.425781 67.140625 167.90625 66.242188 168.472656 65.390625 C 169.042969 64.539062 169.6875 63.75 170.410156 63.027344 C 171.136719 62.300781 171.921875 61.65625 172.773438 61.085938 C 173.625 60.515625 174.523438 60.035156 175.46875 59.644531 C 176.414062 59.25 177.390625 58.953125 178.394531 58.753906 C 179.398438 58.554688 180.414062 58.453125 181.4375 58.449219 C 182.464844 58.449219 183.476562 58.546875 184.484375 58.746094 C 185.488281 58.945312 186.464844 59.238281 187.410156 59.628906 C 188.359375 60.019531 189.257812 60.496094 190.109375 61.066406 C 190.964844 61.632812 191.753906 62.277344 192.476562 63 C 193.203125 63.71875 193.851562 64.507812 194.421875 65.355469 C 194.992188 66.207031 195.476562 67.101562 195.871094 68.046875 C 196.261719 68.992188 196.5625 69.964844 196.761719 70.96875 C 196.964844 71.972656 197.066406 72.984375 197.066406 74.007812 C 197.066406 75.03125 196.96875 76.046875 196.769531 77.050781 C 196.566406 78.054688 196.273438 79.03125 195.878906 79.976562 C 195.488281 80.921875 195.007812 81.820312 194.4375 82.671875 C 193.871094 83.527344 193.222656 84.3125 192.496094 85.039062 C 191.773438 85.765625 190.984375 86.410156 190.132812 86.980469 C 189.28125 87.550781 188.382812 88.03125 187.433594 88.425781 C 186.488281 88.820312 185.511719 89.117188 184.503906 89.316406 C 183.5 89.519531 182.484375 89.621094 181.460938 89.625 Z M 181.460938 89.625 " fill-opacity="0.7765" fill-rule="evenodd"/><path fill="#662d91" d="M 105.847656 101.640625 C 101.605469 106.550781 98.101562 111.9375 95.328125 117.800781 C 92.558594 123.664062 90.621094 129.792969 89.519531 136.183594 C 86.355469 154.65625 91.179688 171.761719 87.796875 183.261719 C 87.003906 185.839844 85.941406 188.300781 84.613281 190.648438 C 85.402344 191.109375 86.207031 191.546875 87.023438 191.957031 C 87.835938 192.371094 88.664062 192.761719 89.503906 193.128906 C 90.339844 193.496094 91.1875 193.835938 92.046875 194.15625 C 92.90625 194.472656 93.769531 194.765625 94.644531 195.035156 C 95.519531 195.300781 96.402344 195.542969 97.289062 195.761719 C 98.179688 195.980469 99.074219 196.171875 99.972656 196.339844 C 100.871094 196.503906 101.777344 196.644531 102.683594 196.757812 C 103.59375 196.875 104.503906 196.960938 105.414062 197.023438 C 106.328125 197.085938 107.242188 197.125 108.15625 197.132812 C 109.070312 197.144531 109.988281 197.128906 110.902344 197.085938 C 111.8125 197.042969 112.726562 196.976562 113.636719 196.882812 C 114.546875 196.785156 115.453125 196.667969 116.355469 196.519531 C 117.257812 196.375 118.15625 196.203125 119.050781 196.003906 C 119.945312 195.804688 120.832031 195.582031 121.710938 195.332031 C 122.59375 195.085938 123.464844 194.8125 124.328125 194.511719 C 125.195312 194.214844 126.050781 193.890625 126.894531 193.542969 C 127.742188 193.195312 128.578125 192.824219 129.402344 192.429688 C 130.226562 192.035156 131.039062 191.617188 131.839844 191.171875 C 132.640625 190.730469 133.429688 190.265625 134.203125 189.78125 C 134.976562 189.292969 135.738281 188.785156 136.480469 188.253906 C 137.226562 187.722656 137.957031 187.171875 138.667969 186.597656 C 139.382812 186.027344 140.078125 185.433594 140.757812 184.820312 C 141.4375 184.210938 142.097656 183.578125 142.742188 182.929688 C 143.382812 182.277344 144.007812 181.609375 144.613281 180.925781 C 145.214844 180.238281 145.800781 179.535156 146.363281 178.816406 C 146.929688 178.097656 147.472656 177.363281 147.996094 176.613281 C 148.515625 175.863281 149.015625 175.097656 149.496094 174.320312 C 149.972656 173.539062 150.429688 172.746094 150.859375 171.941406 C 151.292969 171.136719 151.703125 170.320312 152.089844 169.492188 C 152.472656 168.664062 152.835938 167.824219 153.171875 166.976562 C 153.511719 166.125 153.824219 165.269531 154.109375 164.402344 C 154.398438 163.535156 154.664062 162.660156 154.902344 161.777344 C 155.136719 160.894531 155.351562 160.007812 155.539062 159.113281 C 155.726562 158.21875 155.886719 157.320312 156.019531 156.414062 C 156.15625 155.511719 156.265625 154.605469 156.347656 153.695312 C 156.433594 152.785156 156.488281 151.875 156.519531 150.960938 C 156.550781 150.046875 156.554688 149.132812 156.535156 148.21875 C 156.511719 147.308594 156.464844 146.394531 156.390625 145.484375 C 156.316406 144.574219 156.214844 143.664062 156.089844 142.761719 C 155.964844 141.855469 155.8125 140.957031 155.632812 140.058594 C 155.457031 139.164062 155.253906 138.273438 155.023438 137.386719 C 154.796875 136.503906 154.539062 135.625 154.261719 134.757812 C 153.980469 133.886719 153.679688 133.023438 153.347656 132.171875 C 153.019531 131.320312 152.667969 130.476562 152.289062 129.644531 C 151.914062 128.8125 151.511719 127.992188 151.085938 127.183594 C 150.664062 126.371094 150.214844 125.574219 149.746094 124.792969 C 149.273438 124.007812 148.78125 123.238281 148.269531 122.484375 C 147.753906 121.726562 147.21875 120.988281 146.660156 120.261719 C 146.105469 119.539062 145.527344 118.828125 144.929688 118.136719 C 144.332031 117.445312 143.714844 116.769531 143.078125 116.113281 C 142.441406 115.457031 141.789062 114.820312 141.113281 114.203125 C 140.441406 113.582031 139.75 112.984375 139.042969 112.402344 C 138.335938 111.824219 137.613281 111.265625 136.875 110.726562 C 136.132812 110.1875 135.378906 109.671875 134.609375 109.175781 C 133.84375 108.683594 133.058594 108.210938 132.261719 107.761719 C 131.46875 107.308594 130.660156 106.882812 129.835938 106.480469 C 129.015625 106.074219 128.183594 105.695312 127.34375 105.339844 C 126.5 104.984375 125.648438 104.652344 124.785156 104.34375 C 123.925781 104.039062 123.054688 103.753906 122.175781 103.496094 C 121.296875 103.238281 120.414062 103.007812 119.523438 102.800781 C 118.632812 102.59375 117.734375 102.414062 116.832031 102.257812 C 115.933594 102.101562 115.027344 101.972656 114.117188 101.867188 C 113.207031 101.765625 112.296875 101.6875 111.382812 101.636719 C 110.46875 101.585938 109.554688 101.558594 108.640625 101.558594 C 107.738281 101.558594 106.789062 101.589844 105.847656 101.640625 Z M 105.847656 101.640625 " fill-opacity="0.7765" fill-rule="evenodd"/><g clip-path="url(#9eb7f05a69)"><path fill="#92278f" d="M 88.585938 144.308594 C 87.585938 159.617188 90.679688 173.472656 87.796875 183.300781 C 82.859375 200.085938 60.984375 215.292969 71.207031 223.929688 C 74.441406 226.519531 80.007812 226.691406 83.269531 229.230469 C 88.464844 233.277344 84.914062 237.65625 84.453125 240.816406 C 84.230469 242.316406 85.59375 244.726562 90.089844 247.65625 C 86.695312 250.152344 87.003906 252.273438 88.214844 254.222656 C 89.871094 255.355469 91.574219 256.410156 93.324219 257.390625 C 95.070312 258.367188 96.863281 259.265625 98.695312 260.082031 C 100.523438 260.902344 102.390625 261.632812 104.285156 262.28125 C 106.183594 262.929688 108.105469 263.492188 110.054688 263.96875 C 112.003906 264.445312 113.96875 264.832031 115.953125 265.128906 C 117.9375 265.425781 119.929688 265.632812 121.929688 265.75 C 123.933594 265.867188 125.9375 265.894531 127.941406 265.832031 C 129.945312 265.769531 131.945312 265.617188 133.933594 265.375 C 135.925781 265.128906 137.902344 264.796875 139.863281 264.375 C 141.820312 263.953125 143.761719 263.445312 145.675781 262.847656 C 147.589844 262.25 149.472656 261.570312 151.324219 260.804688 C 153.179688 260.035156 154.992188 259.1875 156.769531 258.257812 C 158.542969 257.328125 160.273438 256.316406 161.960938 255.230469 C 163.644531 254.144531 165.277344 252.984375 166.855469 251.75 C 168.433594 250.515625 169.957031 249.210938 171.417969 247.839844 C 172.878906 246.46875 174.277344 245.035156 175.609375 243.539062 C 176.941406 242.039062 178.199219 240.484375 179.390625 238.875 C 180.582031 237.261719 181.699219 235.601562 182.738281 233.890625 C 183.78125 232.175781 184.742188 230.421875 185.621094 228.625 C 186.503906 226.824219 187.300781 224.988281 188.019531 223.117188 C 188.734375 221.246094 189.363281 219.347656 189.90625 217.421875 C 190.449219 215.492188 190.90625 213.542969 191.273438 211.574219 C 191.640625 209.605469 191.917969 207.625 192.105469 205.632812 C 192.292969 203.636719 192.390625 201.640625 192.394531 199.636719 C 192.402344 197.632812 192.320312 195.632812 192.144531 193.640625 C 191.972656 191.644531 191.707031 189.660156 191.351562 187.691406 C 191 185.71875 190.558594 183.765625 190.027344 181.835938 C 189.496094 179.90625 188.878906 178 188.175781 176.125 C 187.472656 174.25 186.6875 172.410156 185.816406 170.605469 C 184.949219 168.800781 184 167.039062 182.96875 165.320312 C 181.941406 163.597656 180.835938 161.929688 179.65625 160.3125 C 178.476562 158.691406 177.226562 157.128906 175.902344 155.621094 C 174.582031 154.117188 173.195312 152.671875 171.742188 151.292969 C 170.289062 149.910156 168.777344 148.597656 167.207031 147.351562 C 165.636719 146.109375 164.011719 144.9375 162.335938 143.839844 C 160.65625 142.738281 158.933594 141.71875 157.164062 140.777344 C 155.394531 139.835938 153.585938 138.972656 151.738281 138.195312 C 149.890625 137.414062 148.011719 136.722656 146.101562 136.113281 C 144.191406 135.503906 142.257812 134.980469 140.300781 134.542969 C 138.339844 134.109375 136.367188 133.765625 134.378906 133.507812 C 132.390625 133.25 130.394531 133.082031 128.390625 133.007812 C 126.386719 132.929688 124.382812 132.945312 122.378906 133.050781 C 120.375 133.152344 118.382812 133.347656 116.394531 133.632812 C 114.410156 133.917969 112.441406 134.289062 110.492188 134.75 C 108.539062 135.214844 106.613281 135.761719 104.710938 136.398438 C 102.808594 137.035156 100.941406 137.753906 99.101562 138.558594 C 97.265625 139.363281 95.46875 140.25 93.714844 141.21875 C 91.957031 142.183594 90.25 143.230469 88.585938 144.351562 Z M 88.585938 144.308594 " fill-opacity="0.7765" fill-rule="evenodd"/></g><g clip-path="url(#66c58b23c4)"><path fill="#007fc6" d="M 102.832031 291.152344 C 128.113281 301.433594 161.957031 266.960938 166.511719 337.261719 C 182.945312 326.484375 200.363281 317.632812 218.765625 310.710938 C 219.523438 309.597656 220.246094 308.460938 220.929688 307.300781 C 221.617188 306.144531 222.269531 304.964844 222.882812 303.765625 C 223.496094 302.566406 224.070312 301.351562 224.605469 300.117188 C 225.144531 298.882812 225.640625 297.632812 226.097656 296.363281 C 226.558594 295.097656 226.976562 293.820312 227.355469 292.527344 C 227.734375 291.234375 228.070312 289.933594 228.367188 288.621094 C 228.664062 287.308594 228.921875 285.988281 229.132812 284.65625 C 229.347656 283.328125 229.519531 281.992188 229.652344 280.652344 C 229.78125 279.3125 229.871094 277.972656 229.917969 276.625 C 229.964844 275.28125 229.96875 273.933594 229.929688 272.589844 C 229.890625 271.246094 229.8125 269.902344 229.691406 268.558594 C 229.570312 267.21875 229.40625 265.882812 229.199219 264.554688 C 228.992188 263.222656 228.746094 261.902344 228.457031 260.585938 C 228.171875 259.269531 227.839844 257.964844 227.472656 256.671875 C 227.101562 255.378906 226.691406 254.097656 226.242188 252.828125 C 225.789062 251.558594 225.300781 250.304688 224.769531 249.066406 C 224.242188 247.828125 223.675781 246.609375 223.070312 245.40625 C 222.464844 244.203125 221.824219 243.019531 221.144531 241.855469 C 220.464844 240.695312 219.75 239.554688 218.996094 238.433594 C 218.246094 237.316406 217.460938 236.222656 216.640625 235.15625 C 215.824219 234.085938 214.972656 233.042969 214.085938 232.027344 C 213.203125 231.011719 212.285156 230.023438 211.339844 229.066406 C 210.394531 228.105469 209.417969 227.179688 208.414062 226.28125 C 207.410156 225.382812 206.378906 224.519531 205.320312 223.683594 C 204.261719 222.851562 203.175781 222.050781 202.066406 221.285156 C 200.957031 220.519531 199.828125 219.789062 198.671875 219.097656 C 197.519531 218.402344 196.34375 217.742188 195.148438 217.121094 C 193.949219 216.5 192.738281 215.914062 191.503906 215.371094 C 190.273438 214.824219 189.023438 214.316406 187.757812 213.851562 C 186.496094 213.382812 185.21875 212.953125 183.925781 212.566406 C 182.636719 212.179688 181.335938 211.832031 180.023438 211.523438 C 178.710938 211.21875 177.386719 210.953125 176.058594 210.726562 C 174.730469 210.503906 173.394531 210.320312 172.054688 210.179688 C 170.714844 210.039062 169.371094 209.941406 168.023438 209.882812 C 166.675781 209.828125 165.328125 209.8125 163.980469 209.839844 C 162.632812 209.867188 161.289062 209.933594 159.945312 210.046875 C 158.601562 210.15625 157.261719 210.3125 155.925781 210.503906 C 154.59375 210.699219 153.265625 210.9375 151.949219 211.214844 C 150.628906 211.492188 149.320312 211.8125 148.019531 212.171875 C 146.722656 212.53125 145.433594 212.929688 144.160156 213.367188 C 142.886719 213.808594 141.628906 214.289062 140.382812 214.804688 C 139.140625 215.324219 137.914062 215.882812 136.703125 216.476562 C 135.492188 217.070312 134.304688 217.703125 133.136719 218.371094 C 131.964844 219.042969 130.816406 219.746094 129.691406 220.488281 C 128.566406 221.230469 127.464844 222.003906 126.386719 222.8125 C 125.3125 223.625 124.261719 224.464844 123.238281 225.339844 C 122.210938 226.21875 121.21875 227.125 120.25 228.0625 C 119.28125 229 118.34375 229.964844 117.4375 230.960938 C 116.53125 231.957031 115.65625 232.980469 114.8125 234.03125 C 113.972656 235.082031 113.160156 236.15625 112.386719 237.257812 C 111.609375 238.359375 110.871094 239.484375 110.164062 240.632812 C 109.460938 241.78125 108.792969 242.949219 108.160156 244.136719 C 107.527344 245.324219 106.933594 246.535156 106.378906 247.761719 C 105.824219 248.984375 105.304688 250.230469 104.828125 251.488281 C 104.347656 252.746094 103.910156 254.019531 103.511719 255.304688 C 103.113281 256.589844 102.753906 257.886719 102.4375 259.195312 C 102.121094 260.503906 101.84375 261.820312 101.609375 263.144531 C 101.375 264.472656 101.179688 265.804688 101.027344 267.140625 C 100.878906 268.476562 100.769531 269.820312 100.699219 271.164062 C 100.632812 272.507812 100.609375 273.855469 100.625 275.199219 C 100.640625 276.546875 100.699219 277.890625 100.800781 279.230469 C 100.902344 280.574219 101.042969 281.914062 101.230469 283.246094 C 101.414062 284.578125 101.640625 285.90625 101.90625 287.226562 C 102.175781 288.542969 102.484375 289.855469 102.832031 291.152344 Z M 102.832031 291.152344 " fill-opacity="0.7765" fill-rule="evenodd"/></g><g clip-path="url(#97045fe752)"><path fill="#01a6e6" d="M 139.949219 291.515625 C 153.304688 292.074219 164.078125 299.753906 166.511719 337.261719 C 182.855469 326.550781 200.167969 317.734375 218.453125 310.820312 C 218.425781 309.679688 218.351562 308.546875 218.234375 307.414062 C 218.113281 306.28125 217.945312 305.15625 217.734375 304.039062 C 217.523438 302.921875 217.265625 301.8125 216.964844 300.714844 C 216.660156 299.617188 216.3125 298.535156 215.921875 297.464844 C 215.53125 296.394531 215.097656 295.34375 214.621094 294.308594 C 214.144531 293.277344 213.625 292.261719 213.066406 291.273438 C 212.503906 290.28125 211.90625 289.3125 211.265625 288.371094 C 210.628906 287.425781 209.953125 286.511719 209.238281 285.625 C 208.523438 284.738281 207.777344 283.878906 206.992188 283.054688 C 206.207031 282.226562 205.390625 281.433594 204.542969 280.675781 C 203.695312 279.914062 202.816406 279.191406 201.90625 278.5 C 201 277.8125 200.066406 277.164062 199.105469 276.550781 C 198.144531 275.9375 197.160156 275.367188 196.152344 274.835938 C 195.144531 274.300781 194.117188 273.8125 193.066406 273.363281 C 192.019531 272.914062 190.953125 272.511719 189.875 272.148438 C 188.792969 271.789062 187.699219 271.472656 186.59375 271.199219 C 185.484375 270.925781 184.367188 270.699219 183.242188 270.519531 C 182.117188 270.339844 180.988281 270.203125 179.851562 270.113281 C 178.714844 270.023438 177.574219 269.980469 176.4375 269.984375 C 175.296875 269.988281 174.15625 270.039062 173.023438 270.136719 C 171.886719 270.234375 170.757812 270.375 169.632812 270.5625 C 168.507812 270.753906 167.394531 270.988281 166.289062 271.265625 C 165.183594 271.546875 164.089844 271.871094 163.011719 272.238281 C 161.933594 272.605469 160.871094 273.019531 159.828125 273.472656 C 158.78125 273.929688 157.757812 274.425781 156.753906 274.964844 C 155.75 275.503906 154.769531 276.082031 153.8125 276.699219 C 152.855469 277.320312 151.925781 277.976562 151.019531 278.671875 C 150.117188 279.363281 149.246094 280.09375 148.402344 280.859375 C 147.558594 281.625 146.746094 282.425781 145.96875 283.257812 C 145.1875 284.085938 144.445312 284.949219 143.738281 285.84375 C 143.03125 286.734375 142.359375 287.652344 141.726562 288.601562 C 141.09375 289.546875 140.503906 290.519531 139.949219 291.515625 Z M 139.949219 291.515625 " fill-opacity="0.7765" fill-rule="evenodd"/></g><path fill="#2063b2" d="M 78.863281 227.078125 C 80.449219 227.539062 81.917969 228.242188 83.269531 229.1875 C 88.464844 233.238281 84.914062 237.617188 84.453125 240.777344 C 84.230469 242.277344 85.59375 244.6875 90.089844 247.613281 C 84.890625 251.445312 88.386719 254.375 90.480469 257.191406 C 100.199219 264.191406 86.675781 279.355469 102.714844 291.113281 C 118.902344 297.773438 138.585938 286.027344 151.882812 295.042969 C 152.09375 293.832031 152.265625 292.613281 152.402344 291.386719 C 152.539062 290.164062 152.632812 288.9375 152.691406 287.707031 C 152.753906 286.480469 152.773438 285.25 152.753906 284.019531 C 152.738281 282.785156 152.683594 281.558594 152.589844 280.332031 C 152.496094 279.101562 152.363281 277.878906 152.191406 276.660156 C 152.023438 275.441406 151.816406 274.226562 151.570312 273.023438 C 151.324219 271.816406 151.042969 270.617188 150.722656 269.429688 C 150.402344 268.238281 150.046875 267.0625 149.652344 265.894531 C 149.261719 264.726562 148.832031 263.574219 148.367188 262.433594 C 147.902344 261.292969 147.402344 260.167969 146.871094 259.058594 C 146.335938 257.949219 145.765625 256.859375 145.164062 255.785156 C 144.5625 254.710938 143.929688 253.65625 143.261719 252.621094 C 142.59375 251.585938 141.894531 250.574219 141.164062 249.582031 C 140.433594 248.589844 139.671875 247.621094 138.878906 246.675781 C 138.089844 245.734375 137.269531 244.8125 136.421875 243.917969 C 135.574219 243.027344 134.699219 242.160156 133.796875 241.320312 C 132.898438 240.480469 131.96875 239.667969 131.019531 238.886719 C 130.066406 238.105469 129.089844 237.355469 128.089844 236.632812 C 127.09375 235.910156 126.074219 235.21875 125.03125 234.5625 C 123.988281 233.902344 122.929688 233.277344 121.847656 232.683594 C 120.765625 232.09375 119.667969 231.535156 118.554688 231.007812 C 117.4375 230.484375 116.308594 229.992188 115.164062 229.539062 C 114.019531 229.085938 112.859375 228.664062 111.6875 228.28125 C 110.515625 227.898438 109.332031 227.554688 108.140625 227.242188 C 106.945312 226.933594 105.746094 226.660156 104.535156 226.425781 C 103.324219 226.191406 102.109375 225.992188 100.886719 225.832031 C 99.664062 225.671875 98.4375 225.550781 97.207031 225.46875 C 95.976562 225.382812 94.746094 225.335938 93.515625 225.328125 C 92.28125 225.320312 91.050781 225.351562 89.820312 225.421875 C 88.585938 225.488281 87.359375 225.597656 86.136719 225.742188 C 84.910156 225.886719 83.691406 226.066406 82.480469 226.289062 C 81.265625 226.507812 80.0625 226.765625 78.863281 227.058594 Z M 78.863281 227.078125 " fill-opacity="0.7765" fill-rule="evenodd"/><path fill="#12bcbc" d="M 266.871094 227.828125 C 266.113281 227.828125 265.359375 227.792969 264.605469 227.71875 C 263.851562 227.644531 263.105469 227.535156 262.359375 227.386719 C 261.617188 227.242188 260.882812 227.058594 260.160156 226.839844 C 259.433594 226.617188 258.722656 226.363281 258.023438 226.074219 C 257.324219 225.785156 256.640625 225.464844 255.972656 225.109375 C 255.304688 224.75 254.65625 224.363281 254.023438 223.945312 C 253.394531 223.523438 252.789062 223.074219 252.203125 222.59375 C 251.617188 222.113281 251.054688 221.609375 250.519531 221.074219 C 249.984375 220.539062 249.476562 219.980469 248.996094 219.394531 C 248.515625 218.808594 248.066406 218.203125 247.644531 217.574219 C 247.222656 216.945312 246.832031 216.296875 246.476562 215.632812 C 246.121094 214.964844 245.796875 214.28125 245.507812 213.582031 C 245.214844 212.886719 244.960938 212.175781 244.742188 211.449219 C 244.519531 210.726562 244.335938 209.996094 244.1875 209.253906 C 244.042969 208.511719 243.929688 207.765625 243.855469 207.011719 C 243.78125 206.257812 243.746094 205.503906 243.746094 204.75 C 243.746094 203.992188 243.78125 203.238281 243.855469 202.484375 C 243.929688 201.734375 244.039062 200.984375 244.1875 200.246094 C 244.335938 199.503906 244.519531 198.769531 244.738281 198.046875 C 244.960938 197.324219 245.214844 196.613281 245.503906 195.914062 C 245.792969 195.214844 246.117188 194.53125 246.472656 193.863281 C 246.832031 193.199219 247.21875 192.550781 247.640625 191.921875 C 248.0625 191.292969 248.511719 190.6875 248.992188 190.101562 C 249.472656 189.515625 249.980469 188.957031 250.515625 188.421875 C 251.050781 187.886719 251.613281 187.378906 252.195312 186.902344 C 252.78125 186.421875 253.390625 185.972656 254.019531 185.550781 C 254.648438 185.128906 255.296875 184.742188 255.964844 184.386719 C 256.632812 184.03125 257.316406 183.707031 258.015625 183.417969 C 258.714844 183.128906 259.429688 182.875 260.152344 182.65625 C 260.878906 182.433594 261.613281 182.25 262.355469 182.105469 C 263.097656 181.957031 263.84375 181.847656 264.597656 181.773438 C 265.351562 181.699219 266.109375 181.660156 266.867188 181.660156 C 267.621094 181.660156 268.378906 181.699219 269.132812 181.773438 C 269.886719 181.847656 270.632812 181.957031 271.375 182.105469 C 272.121094 182.253906 272.851562 182.4375 273.578125 182.65625 C 274.300781 182.875 275.015625 183.128906 275.714844 183.421875 C 276.414062 183.710938 277.097656 184.03125 277.765625 184.390625 C 278.433594 184.746094 279.082031 185.132812 279.710938 185.554688 C 280.339844 185.976562 280.949219 186.425781 281.53125 186.90625 C 282.117188 187.382812 282.679688 187.890625 283.214844 188.425781 C 283.75 188.960938 284.257812 189.523438 284.738281 190.105469 C 285.21875 190.691406 285.667969 191.296875 286.089844 191.925781 C 286.507812 192.554688 286.898438 193.203125 287.253906 193.871094 C 287.609375 194.539062 287.933594 195.21875 288.222656 195.917969 C 288.511719 196.617188 288.769531 197.328125 288.988281 198.050781 C 289.207031 198.777344 289.390625 199.507812 289.539062 200.25 C 289.683594 200.992188 289.796875 201.738281 289.871094 202.492188 C 289.945312 203.246094 289.980469 204 289.980469 204.753906 C 289.980469 205.511719 289.941406 206.265625 289.863281 207.015625 C 289.789062 207.765625 289.675781 208.511719 289.527344 209.253906 C 289.378906 209.992188 289.195312 210.726562 288.972656 211.449219 C 288.753906 212.171875 288.5 212.878906 288.207031 213.578125 C 287.917969 214.273438 287.59375 214.957031 287.238281 215.621094 C 286.878906 216.289062 286.492188 216.933594 286.070312 217.5625 C 285.648438 218.191406 285.199219 218.796875 284.71875 219.378906 C 284.238281 219.964844 283.730469 220.523438 283.199219 221.058594 C 282.664062 221.589844 282.101562 222.097656 281.519531 222.578125 C 280.933594 223.054688 280.328125 223.503906 279.699219 223.925781 C 279.070312 224.34375 278.421875 224.734375 277.753906 225.089844 C 277.089844 225.445312 276.40625 225.769531 275.707031 226.058594 C 275.007812 226.351562 274.296875 226.605469 273.574219 226.824219 C 272.851562 227.046875 272.117188 227.230469 271.378906 227.378906 C 270.636719 227.527344 269.886719 227.636719 269.136719 227.714844 C 268.382812 227.789062 267.628906 227.828125 266.871094 227.828125 Z M 266.871094 227.828125 " fill-opacity="0.7765" fill-rule="evenodd"/><path fill="#00b9f1" d="M 218.453125 259.960938 C 217.761719 259.964844 217.074219 259.933594 216.386719 259.867188 C 215.699219 259.800781 215.015625 259.703125 214.335938 259.570312 C 213.660156 259.4375 212.988281 259.269531 212.328125 259.070312 C 211.664062 258.875 211.015625 258.644531 210.375 258.378906 C 209.738281 258.117188 209.113281 257.824219 208.5 257.5 C 207.890625 257.175781 207.296875 256.824219 206.722656 256.441406 C 206.148438 256.0625 205.59375 255.652344 205.058594 255.214844 C 204.523438 254.777344 204.007812 254.316406 203.519531 253.832031 C 203.03125 253.34375 202.566406 252.835938 202.125 252.300781 C 201.6875 251.769531 201.273438 251.21875 200.886719 250.644531 C 200.503906 250.070312 200.148438 249.480469 199.820312 248.871094 C 199.492188 248.265625 199.195312 247.644531 198.929688 247.007812 C 198.664062 246.367188 198.429688 245.71875 198.230469 245.0625 C 198.027344 244.402344 197.859375 243.734375 197.722656 243.054688 C 197.585938 242.378906 197.484375 241.699219 197.414062 241.011719 C 197.34375 240.324219 197.308594 239.636719 197.308594 238.945312 C 197.308594 238.257812 197.339844 237.570312 197.40625 236.882812 C 197.472656 236.195312 197.574219 235.511719 197.707031 234.835938 C 197.839844 234.160156 198.007812 233.492188 198.207031 232.828125 C 198.40625 232.167969 198.636719 231.519531 198.898438 230.882812 C 199.164062 230.246094 199.457031 229.621094 199.78125 229.011719 C 200.105469 228.402344 200.460938 227.8125 200.84375 227.238281 C 201.226562 226.664062 201.636719 226.109375 202.074219 225.574219 C 202.511719 225.039062 202.976562 224.527344 203.460938 224.039062 C 203.949219 223.550781 204.460938 223.089844 204.996094 222.648438 C 205.527344 222.210938 206.082031 221.800781 206.65625 221.414062 C 207.230469 221.03125 207.820312 220.675781 208.429688 220.351562 C 209.039062 220.023438 209.664062 219.730469 210.300781 219.464844 C 210.941406 219.199219 211.589844 218.964844 212.25 218.765625 C 212.910156 218.566406 213.582031 218.398438 214.257812 218.261719 C 214.9375 218.125 215.617188 218.023438 216.304688 217.957031 C 216.992188 217.886719 217.683594 217.851562 218.375 217.851562 C 219.066406 217.851562 219.753906 217.882812 220.441406 217.953125 C 221.128906 218.019531 221.8125 218.121094 222.488281 218.253906 C 223.167969 218.386719 223.835938 218.554688 224.5 218.753906 C 225.160156 218.953125 225.808594 219.1875 226.449219 219.449219 C 227.085938 219.710938 227.710938 220.007812 228.320312 220.332031 C 228.929688 220.65625 229.523438 221.011719 230.097656 221.394531 C 230.671875 221.777344 231.226562 222.1875 231.761719 222.625 C 232.296875 223.0625 232.808594 223.523438 233.296875 224.011719 C 233.785156 224.5 234.25 225.011719 234.6875 225.542969 C 235.125 226.078125 235.539062 226.628906 235.921875 227.203125 C 236.304688 227.777344 236.660156 228.367188 236.988281 228.976562 C 237.3125 229.585938 237.609375 230.207031 237.871094 230.84375 C 238.136719 231.484375 238.371094 232.132812 238.570312 232.792969 C 238.769531 233.453125 238.9375 234.121094 239.074219 234.796875 C 239.207031 235.472656 239.308594 236.15625 239.378906 236.84375 C 239.445312 237.527344 239.480469 238.21875 239.480469 238.90625 C 239.476562 239.59375 239.441406 240.28125 239.375 240.964844 C 239.304688 241.648438 239.203125 242.328125 239.070312 243.003906 C 238.933594 243.679688 238.765625 244.34375 238.566406 245.003906 C 238.367188 245.660156 238.132812 246.308594 237.871094 246.945312 C 237.605469 247.578125 237.3125 248.199219 236.988281 248.808594 C 236.660156 249.414062 236.308594 250.003906 235.925781 250.578125 C 235.542969 251.148438 235.132812 251.699219 234.699219 252.234375 C 234.261719 252.765625 233.800781 253.273438 233.3125 253.761719 C 232.828125 254.25 232.316406 254.710938 231.785156 255.148438 C 231.253906 255.585938 230.703125 255.996094 230.128906 256.378906 C 229.558594 256.765625 228.96875 257.117188 228.363281 257.445312 C 227.753906 257.769531 227.132812 258.066406 226.5 258.332031 C 225.863281 258.597656 225.214844 258.832031 224.558594 259.03125 C 223.898438 259.234375 223.230469 259.402344 222.554688 259.539062 C 221.882812 259.675781 221.199219 259.78125 220.515625 259.851562 C 219.828125 259.921875 219.144531 259.957031 218.453125 259.960938 Z M 218.453125 259.960938 " fill-opacity="0.7765" fill-rule="evenodd"/><path fill="#8dc63f" d="M 270.195312 171.652344 C 269.664062 171.652344 269.136719 171.628906 268.609375 171.574219 C 268.082031 171.523438 267.554688 171.445312 267.035156 171.34375 C 266.515625 171.238281 266 171.109375 265.492188 170.957031 C 264.984375 170.804688 264.488281 170.625 263.996094 170.421875 C 263.507812 170.21875 263.027344 169.992188 262.558594 169.742188 C 262.089844 169.492188 261.636719 169.222656 261.195312 168.925781 C 260.753906 168.632812 260.328125 168.316406 259.917969 167.980469 C 259.507812 167.644531 259.117188 167.289062 258.742188 166.914062 C 258.363281 166.539062 258.007812 166.148438 257.671875 165.738281 C 257.335938 165.328125 257.019531 164.902344 256.726562 164.460938 C 256.429688 164.023438 256.160156 163.566406 255.910156 163.101562 C 255.660156 162.632812 255.433594 162.15625 255.230469 161.664062 C 255.027344 161.175781 254.847656 160.675781 254.695312 160.171875 C 254.539062 159.664062 254.410156 159.148438 254.308594 158.628906 C 254.203125 158.109375 254.125 157.585938 254.074219 157.058594 C 254.023438 156.53125 253.996094 156.003906 253.996094 155.472656 C 253.996094 154.945312 254.023438 154.414062 254.074219 153.886719 C 254.128906 153.359375 254.207031 152.835938 254.308594 152.316406 C 254.414062 151.796875 254.542969 151.285156 254.695312 150.777344 C 254.851562 150.269531 255.027344 149.773438 255.230469 149.28125 C 255.433594 148.792969 255.660156 148.316406 255.910156 147.847656 C 256.160156 147.382812 256.433594 146.925781 256.730469 146.488281 C 257.023438 146.046875 257.339844 145.621094 257.675781 145.210938 C 258.015625 144.800781 258.371094 144.410156 258.746094 144.035156 C 259.121094 143.660156 259.511719 143.304688 259.921875 142.96875 C 260.332031 142.632812 260.757812 142.320312 261.199219 142.023438 C 261.640625 141.730469 262.097656 141.457031 262.566406 141.207031 C 263.03125 140.960938 263.511719 140.734375 264.003906 140.53125 C 264.492188 140.328125 264.992188 140.148438 265.5 139.996094 C 266.007812 139.84375 266.523438 139.714844 267.042969 139.609375 C 267.5625 139.507812 268.085938 139.429688 268.613281 139.378906 C 269.144531 139.328125 269.671875 139.300781 270.203125 139.300781 C 270.734375 139.300781 271.261719 139.328125 271.792969 139.378906 C 272.320312 139.433594 272.84375 139.511719 273.363281 139.613281 C 273.882812 139.71875 274.398438 139.847656 274.90625 140 C 275.414062 140.152344 275.914062 140.332031 276.402344 140.535156 C 276.894531 140.738281 277.371094 140.964844 277.839844 141.214844 C 278.308594 141.464844 278.761719 141.738281 279.203125 142.03125 C 279.644531 142.328125 280.070312 142.640625 280.480469 142.976562 C 280.890625 143.316406 281.28125 143.671875 281.65625 144.046875 C 282.03125 144.417969 282.386719 144.8125 282.722656 145.222656 C 283.0625 145.632812 283.375 146.058594 283.671875 146.496094 C 283.964844 146.9375 284.238281 147.390625 284.488281 147.859375 C 284.738281 148.328125 284.964844 148.804688 285.167969 149.296875 C 285.371094 149.785156 285.546875 150.285156 285.703125 150.789062 C 285.855469 151.296875 285.984375 151.8125 286.085938 152.332031 C 286.191406 152.851562 286.265625 153.375 286.320312 153.902344 C 286.371094 154.429688 286.394531 154.957031 286.394531 155.488281 C 286.394531 156.015625 286.367188 156.542969 286.316406 157.070312 C 286.261719 157.597656 286.183594 158.121094 286.078125 158.640625 C 285.976562 159.160156 285.847656 159.671875 285.691406 160.179688 C 285.535156 160.683594 285.359375 161.183594 285.15625 161.671875 C 284.953125 162.160156 284.722656 162.636719 284.472656 163.105469 C 284.222656 163.570312 283.949219 164.023438 283.65625 164.464844 C 283.363281 164.90625 283.046875 165.328125 282.710938 165.738281 C 282.371094 166.148438 282.015625 166.539062 281.640625 166.914062 C 281.265625 167.289062 280.875 167.640625 280.464844 167.976562 C 280.054688 168.3125 279.628906 168.628906 279.1875 168.921875 C 278.746094 169.21875 278.292969 169.488281 277.824219 169.738281 C 277.359375 169.988281 276.878906 170.214844 276.390625 170.417969 C 275.902344 170.621094 275.402344 170.800781 274.894531 170.953125 C 274.386719 171.105469 273.875 171.234375 273.355469 171.339844 C 272.835938 171.441406 272.3125 171.519531 271.78125 171.574219 C 271.253906 171.625 270.726562 171.652344 270.195312 171.652344 Z M 270.195312 171.652344 " fill-opacity="0.7765" fill-rule="evenodd"/><g clip-path="url(#5f5d956a3a)"><path fill="#ffd900" d="M 278.277344 115.289062 C 278.277344 116.207031 278.367188 117.117188 278.546875 118.019531 C 278.726562 118.921875 278.992188 119.796875 279.34375 120.648438 C 279.695312 121.496094 280.128906 122.304688 280.640625 123.070312 C 281.152344 123.832031 281.734375 124.539062 282.382812 125.191406 C 283.035156 125.839844 283.746094 126.421875 284.511719 126.933594 C 285.277344 127.445312 286.085938 127.875 286.933594 128.226562 C 287.785156 128.578125 288.664062 128.84375 289.566406 129.023438 C 290.46875 129.203125 291.382812 129.292969 292.304688 129.292969 C 293.222656 129.292969 294.136719 129.203125 295.039062 129.023438 C 295.941406 128.84375 296.820312 128.578125 297.671875 128.226562 C 298.523438 127.875 299.332031 127.445312 300.097656 126.933594 C 300.863281 126.421875 301.570312 125.839844 302.222656 125.191406 C 302.871094 124.539062 303.453125 123.832031 303.964844 123.070312 C 304.476562 122.304688 304.910156 121.496094 305.261719 120.648438 C 305.613281 119.796875 305.882812 118.921875 306.0625 118.019531 C 306.242188 117.117188 306.332031 116.207031 306.332031 115.289062 C 306.332031 114.367188 306.242188 113.457031 306.0625 112.554688 C 305.882812 111.652344 305.613281 110.777344 305.261719 109.925781 C 304.910156 109.078125 304.476562 108.269531 303.964844 107.503906 C 303.453125 106.742188 302.871094 106.035156 302.222656 105.382812 C 301.570312 104.734375 300.863281 104.152344 300.097656 103.640625 C 299.332031 103.128906 298.523438 102.699219 297.671875 102.347656 C 296.820312 101.996094 295.941406 101.730469 295.039062 101.550781 C 294.136719 101.371094 293.222656 101.28125 292.304688 101.28125 C 291.382812 101.28125 290.46875 101.371094 289.566406 101.550781 C 288.664062 101.730469 287.785156 101.996094 286.933594 102.347656 C 286.085938 102.699219 285.277344 103.128906 284.511719 103.640625 C 283.746094 104.152344 283.035156 104.734375 282.382812 105.382812 C 281.734375 106.035156 281.152344 106.742188 280.640625 107.503906 C 280.128906 108.269531 279.695312 109.078125 279.34375 109.925781 C 278.992188 110.777344 278.726562 111.652344 278.546875 112.554688 C 278.367188 113.457031 278.277344 114.367188 278.277344 115.289062 Z M 278.277344 115.289062 " fill-opacity="0.7765" fill-rule="nonzero"/></g><path fill="#009444" d="M 262.667969 89.625 C 261.808594 89.625 260.957031 89.539062 260.113281 89.375 C 259.269531 89.207031 258.449219 88.960938 257.652344 88.632812 C 256.859375 88.304688 256.105469 87.902344 255.390625 87.425781 C 254.671875 86.949219 254.011719 86.40625 253.402344 85.800781 C 252.792969 85.191406 252.25 84.53125 251.773438 83.816406 C 251.292969 83.105469 250.890625 82.351562 250.5625 81.558594 C 250.230469 80.765625 249.984375 79.945312 249.8125 79.105469 C 249.644531 78.261719 249.5625 77.410156 249.5625 76.554688 C 249.5625 75.695312 249.644531 74.84375 249.8125 74 C 249.980469 73.160156 250.226562 72.339844 250.554688 71.546875 C 250.886719 70.753906 251.289062 70 251.765625 69.285156 C 252.242188 68.570312 252.785156 67.910156 253.394531 67.304688 C 254 66.695312 254.664062 66.152344 255.378906 65.675781 C 256.09375 65.199219 256.847656 64.796875 257.640625 64.464844 C 258.4375 64.136719 259.253906 63.890625 260.097656 63.722656 C 260.941406 63.554688 261.792969 63.46875 262.652344 63.46875 C 263.515625 63.46875 264.367188 63.554688 265.210938 63.71875 C 266.054688 63.886719 266.871094 64.136719 267.667969 64.464844 C 268.460938 64.792969 269.214844 65.195312 269.929688 65.671875 C 270.644531 66.148438 271.308594 66.691406 271.917969 67.296875 C 272.523438 67.90625 273.066406 68.566406 273.546875 69.28125 C 274.023438 69.996094 274.425781 70.75 274.757812 71.542969 C 275.085938 72.335938 275.332031 73.152344 275.5 73.996094 C 275.667969 74.835938 275.753906 75.6875 275.753906 76.546875 C 275.75 77.40625 275.667969 78.253906 275.5 79.09375 C 275.328125 79.9375 275.082031 80.753906 274.75 81.546875 C 274.421875 82.335938 274.019531 83.089844 273.542969 83.804688 C 273.066406 84.515625 272.523438 85.175781 271.914062 85.785156 C 271.308594 86.390625 270.648438 86.933594 269.933594 87.410156 C 269.21875 87.886719 268.464844 88.289062 267.671875 88.621094 C 266.878906 88.949219 266.0625 89.199219 265.21875 89.367188 C 264.378906 89.535156 263.527344 89.621094 262.667969 89.625 Z M 262.667969 89.625 " fill-opacity="0.7765" fill-rule="evenodd"/><path fill="#56ba48" d="M 258.222656 122.214844 C 257.652344 122.214844 257.089844 122.160156 256.535156 122.050781 C 255.976562 121.9375 255.4375 121.773438 254.910156 121.558594 C 254.386719 121.339844 253.886719 121.074219 253.414062 120.757812 C 252.945312 120.445312 252.507812 120.085938 252.105469 119.683594 C 251.703125 119.285156 251.34375 118.847656 251.03125 118.375 C 250.714844 117.90625 250.449219 117.40625 250.230469 116.882812 C 250.011719 116.359375 249.847656 115.820312 249.738281 115.261719 C 249.625 114.707031 249.570312 114.144531 249.570312 113.578125 C 249.570312 113.011719 249.625 112.449219 249.738281 111.890625 C 249.847656 111.335938 250.011719 110.796875 250.230469 110.273438 C 250.449219 109.746094 250.714844 109.25 251.03125 108.777344 C 251.34375 108.308594 251.703125 107.871094 252.105469 107.46875 C 252.507812 107.070312 252.945312 106.710938 253.414062 106.394531 C 253.886719 106.082031 254.386719 105.8125 254.910156 105.597656 C 255.4375 105.378906 255.976562 105.214844 256.535156 105.105469 C 257.089844 104.996094 257.652344 104.941406 258.222656 104.941406 C 258.789062 104.941406 259.351562 104.996094 259.910156 105.105469 C 260.464844 105.214844 261.007812 105.378906 261.53125 105.597656 C 262.058594 105.8125 262.554688 106.082031 263.027344 106.394531 C 263.5 106.710938 263.9375 107.070312 264.339844 107.46875 C 264.742188 107.871094 265.097656 108.308594 265.414062 108.777344 C 265.730469 109.25 265.996094 109.746094 266.214844 110.273438 C 266.429688 110.796875 266.59375 111.335938 266.707031 111.890625 C 266.816406 112.449219 266.871094 113.011719 266.871094 113.578125 C 266.871094 114.144531 266.816406 114.707031 266.703125 115.261719 C 266.589844 115.816406 266.425781 116.355469 266.207031 116.878906 C 265.992188 117.402344 265.722656 117.902344 265.410156 118.371094 C 265.09375 118.84375 264.734375 119.277344 264.332031 119.679688 C 263.929688 120.082031 263.496094 120.4375 263.023438 120.753906 C 262.550781 121.070312 262.054688 121.335938 261.527344 121.550781 C 261.003906 121.769531 260.464844 121.933594 259.90625 122.046875 C 259.351562 122.15625 258.789062 122.214844 258.222656 122.214844 Z M 258.222656 122.214844 " fill-opacity="0.7765" fill-rule="evenodd"/><g clip-path="url(#316090d8c3)"><path fill="#fbad17" d="M 240.179688 67.289062 C 239.613281 67.289062 239.050781 67.234375 238.492188 67.121094 C 237.933594 67.011719 237.394531 66.847656 236.871094 66.632812 C 236.34375 66.414062 235.847656 66.148438 235.375 65.832031 C 234.902344 65.519531 234.464844 65.160156 234.0625 64.757812 C 233.660156 64.359375 233.304688 63.921875 232.988281 63.449219 C 232.671875 62.976562 232.40625 62.480469 232.1875 61.957031 C 231.972656 61.433594 231.804688 60.890625 231.695312 60.335938 C 231.585938 59.78125 231.53125 59.21875 231.53125 58.652344 C 231.53125 58.082031 231.585938 57.523438 231.695312 56.964844 C 231.804688 56.410156 231.972656 55.871094 232.1875 55.34375 C 232.40625 54.820312 232.671875 54.324219 232.988281 53.851562 C 233.304688 53.378906 233.660156 52.945312 234.0625 52.542969 C 234.464844 52.140625 234.902344 51.785156 235.375 51.46875 C 235.847656 51.152344 236.34375 50.886719 236.871094 50.671875 C 237.394531 50.453125 237.933594 50.289062 238.492188 50.179688 C 239.050781 50.070312 239.613281 50.011719 240.179688 50.011719 C 240.75 50.011719 241.3125 50.070312 241.867188 50.179688 C 242.425781 50.289062 242.964844 50.453125 243.492188 50.671875 C 244.015625 50.886719 244.515625 51.152344 244.984375 51.46875 C 245.457031 51.785156 245.894531 52.140625 246.296875 52.542969 C 246.699219 52.945312 247.058594 53.378906 247.371094 53.851562 C 247.6875 54.324219 247.953125 54.820312 248.171875 55.34375 C 248.390625 55.871094 248.554688 56.410156 248.664062 56.964844 C 248.773438 57.523438 248.832031 58.082031 248.832031 58.652344 C 248.828125 59.21875 248.773438 59.777344 248.660156 60.335938 C 248.550781 60.890625 248.382812 61.429688 248.167969 61.953125 C 247.949219 62.476562 247.683594 62.972656 247.367188 63.445312 C 247.050781 63.917969 246.691406 64.351562 246.292969 64.753906 C 245.890625 65.152344 245.453125 65.511719 244.980469 65.828125 C 244.507812 66.140625 244.011719 66.410156 243.488281 66.625 C 242.964844 66.84375 242.421875 67.007812 241.867188 67.121094 C 241.308594 67.230469 240.746094 67.289062 240.179688 67.289062 Z M 240.179688 67.289062 " fill-opacity="0.7765" fill-rule="evenodd"/></g><path fill="#f15c22" d="M 293.3125 86.542969 C 292.886719 86.542969 292.460938 86.5 292.039062 86.414062 C 291.617188 86.328125 291.210938 86.203125 290.8125 86.035156 C 290.417969 85.871094 290.039062 85.667969 289.683594 85.425781 C 289.328125 85.1875 289 84.914062 288.695312 84.613281 C 288.394531 84.308594 288.125 83.976562 287.886719 83.617188 C 287.648438 83.261719 287.449219 82.882812 287.285156 82.488281 C 287.125 82.089844 287 81.679688 286.917969 81.261719 C 286.835938 80.839844 286.796875 80.414062 286.796875 79.984375 C 286.796875 79.558594 286.839844 79.132812 286.925781 78.710938 C 287.011719 78.292969 287.136719 77.882812 287.300781 77.488281 C 287.46875 77.089844 287.667969 76.714844 287.910156 76.359375 C 288.148438 76.003906 288.421875 75.675781 288.726562 75.371094 C 289.03125 75.070312 289.359375 74.800781 289.71875 74.5625 C 290.074219 74.324219 290.453125 74.125 290.851562 73.960938 C 291.246094 73.796875 291.65625 73.671875 292.078125 73.589844 C 292.5 73.507812 292.925781 73.464844 293.355469 73.46875 C 293.785156 73.46875 294.210938 73.511719 294.628906 73.59375 C 295.050781 73.679688 295.460938 73.804688 295.855469 73.96875 C 296.253906 74.132812 296.628906 74.335938 296.988281 74.574219 C 297.34375 74.8125 297.675781 75.082031 297.976562 75.386719 C 298.28125 75.691406 298.550781 76.019531 298.789062 76.375 C 299.03125 76.734375 299.230469 77.109375 299.394531 77.507812 C 299.558594 77.902344 299.683594 78.3125 299.765625 78.730469 C 299.851562 79.152344 299.890625 79.578125 299.890625 80.003906 C 299.890625 80.4375 299.847656 80.863281 299.761719 81.285156 C 299.675781 81.707031 299.550781 82.113281 299.386719 82.511719 C 299.21875 82.910156 299.015625 83.285156 298.777344 83.644531 C 298.535156 84 298.261719 84.332031 297.957031 84.632812 C 297.652344 84.9375 297.320312 85.207031 296.960938 85.445312 C 296.601562 85.683594 296.226562 85.886719 295.828125 86.050781 C 295.429688 86.214844 295.015625 86.335938 294.59375 86.421875 C 294.171875 86.503906 293.746094 86.542969 293.3125 86.542969 Z M 293.3125 86.542969 " fill-opacity="0.7765" fill-rule="evenodd"/><path fill="#fbad17" d="M 137.667969 153.246094 C 137.667969 155.039062 137.753906 156.824219 137.929688 158.601562 C 138.105469 160.382812 138.367188 162.152344 138.71875 163.90625 C 139.066406 165.660156 139.5 167.394531 140.023438 169.109375 C 140.542969 170.820312 141.144531 172.503906 141.832031 174.15625 C 142.515625 175.808594 143.28125 177.425781 144.125 179.003906 C 144.972656 180.582031 145.890625 182.113281 146.886719 183.601562 C 147.882812 185.089844 148.949219 186.527344 150.085938 187.910156 C 151.222656 189.292969 152.425781 190.617188 153.691406 191.882812 C 154.960938 193.148438 156.285156 194.347656 157.671875 195.484375 C 159.054688 196.617188 160.492188 197.683594 161.984375 198.675781 C 163.472656 199.671875 165.007812 200.589844 166.589844 201.433594 C 168.167969 202.277344 169.789062 203.039062 171.441406 203.726562 C 173.097656 204.410156 174.785156 205.011719 176.5 205.53125 C 178.214844 206.050781 179.949219 206.484375 181.707031 206.835938 C 183.464844 207.183594 185.234375 207.445312 187.019531 207.621094 C 188.800781 207.796875 190.589844 207.882812 192.382812 207.882812 C 194.175781 207.882812 195.960938 207.796875 197.746094 207.621094 C 199.527344 207.445312 201.300781 207.183594 203.058594 206.835938 C 204.8125 206.484375 206.550781 206.050781 208.265625 205.53125 C 209.980469 205.011719 211.664062 204.410156 213.320312 203.726562 C 214.976562 203.039062 216.59375 202.277344 218.175781 201.433594 C 219.753906 200.589844 221.289062 199.671875 222.78125 198.675781 C 224.269531 197.683594 225.707031 196.617188 227.09375 195.484375 C 228.480469 194.347656 229.804688 193.148438 231.074219 191.882812 C 232.339844 190.617188 233.542969 189.292969 234.679688 187.910156 C 235.816406 186.527344 236.882812 185.089844 237.878906 183.601562 C 238.871094 182.113281 239.792969 180.582031 240.636719 179.003906 C 241.480469 177.425781 242.246094 175.808594 242.933594 174.15625 C 243.621094 172.503906 244.222656 170.820312 244.742188 169.109375 C 245.261719 167.394531 245.699219 165.660156 246.046875 163.90625 C 246.398438 162.152344 246.660156 160.382812 246.835938 158.601562 C 247.011719 156.824219 247.097656 155.039062 247.097656 153.246094 C 247.097656 151.457031 247.011719 149.671875 246.835938 147.890625 C 246.660156 146.113281 246.398438 144.34375 246.046875 142.589844 C 245.699219 140.832031 245.261719 139.101562 244.742188 137.386719 C 244.222656 135.675781 243.621094 133.992188 242.933594 132.339844 C 242.246094 130.6875 241.480469 129.070312 240.636719 127.492188 C 239.792969 125.914062 238.871094 124.382812 237.878906 122.894531 C 236.882812 121.40625 235.816406 119.96875 234.679688 118.585938 C 233.542969 117.203125 232.339844 115.878906 231.074219 114.613281 C 229.804688 113.347656 228.480469 112.148438 227.09375 111.011719 C 225.707031 109.878906 224.269531 108.8125 222.78125 107.820312 C 221.289062 106.824219 219.753906 105.90625 218.175781 105.0625 C 216.59375 104.21875 214.976562 103.453125 213.320312 102.769531 C 211.664062 102.085938 209.980469 101.484375 208.265625 100.964844 C 206.550781 100.445312 204.8125 100.011719 203.058594 99.660156 C 201.300781 99.3125 199.527344 99.050781 197.746094 98.875 C 195.960938 98.699219 194.175781 98.609375 192.382812 98.609375 C 190.589844 98.609375 188.800781 98.699219 187.019531 98.875 C 185.234375 99.050781 183.464844 99.3125 181.707031 99.660156 C 179.949219 100.011719 178.214844 100.445312 176.5 100.964844 C 174.785156 101.484375 173.097656 102.085938 171.441406 102.769531 C 169.789062 103.453125 168.167969 104.21875 166.589844 105.0625 C 165.007812 105.90625 163.472656 106.824219 161.984375 107.820312 C 160.492188 108.8125 159.054688 109.878906 157.671875 111.011719 C 156.285156 112.148438 154.960938 113.347656 153.691406 114.613281 C 152.425781 115.878906 151.222656 117.203125 150.085938 118.585938 C 148.949219 119.96875 147.882812 121.40625 146.886719 122.894531 C 145.890625 124.382812 144.972656 125.914062 144.125 127.492188 C 143.28125 129.070312 142.515625 130.6875 141.832031 132.339844 C 141.144531 133.992188 140.542969 135.675781 140.023438 137.386719 C 139.5 139.101562 139.066406 140.832031 138.71875 142.589844 C 138.367188 144.34375 138.105469 146.113281 137.929688 147.890625 C 137.753906 149.671875 137.667969 151.457031 137.667969 153.246094 Z M 137.667969 153.246094 " fill-opacity="0.7765" fill-rule="nonzero"/><path fill="#ec008b" d="M 162.15625 70.546875 C 135.933594 75.945312 113.96875 89.0625 101.011719 107.929688 C 101.121094 108.726562 101.257812 109.523438 101.417969 110.3125 C 101.578125 111.101562 101.765625 111.886719 101.972656 112.667969 C 102.183594 113.445312 102.417969 114.21875 102.671875 114.980469 C 102.929688 115.746094 103.210938 116.503906 103.515625 117.25 C 103.820312 117.996094 104.144531 118.734375 104.496094 119.460938 C 104.84375 120.1875 105.21875 120.902344 105.613281 121.605469 C 106.003906 122.3125 106.421875 123.003906 106.859375 123.679688 C 107.296875 124.359375 107.753906 125.023438 108.230469 125.671875 C 108.710938 126.324219 109.207031 126.957031 109.726562 127.578125 C 110.242188 128.195312 110.777344 128.796875 111.332031 129.382812 C 111.886719 129.96875 112.460938 130.539062 113.050781 131.089844 C 113.640625 131.640625 114.25 132.171875 114.871094 132.683594 C 115.496094 133.195312 116.132812 133.691406 116.785156 134.164062 C 117.441406 134.636719 118.109375 135.089844 118.789062 135.523438 C 119.472656 135.953125 120.167969 136.363281 120.875 136.753906 C 121.582031 137.144531 122.300781 137.511719 123.03125 137.855469 C 123.761719 138.199219 124.5 138.523438 125.25 138.820312 C 126 139.121094 126.761719 139.394531 127.527344 139.648438 C 128.292969 139.898438 129.070312 140.128906 129.851562 140.332031 C 130.632812 140.535156 131.417969 140.714844 132.210938 140.871094 C 133.003906 141.027344 133.800781 141.15625 134.601562 141.261719 C 135.402344 141.367188 136.207031 141.449219 137.011719 141.507812 C 137.816406 141.5625 138.625 141.59375 139.429688 141.601562 C 140.238281 141.605469 141.046875 141.589844 141.851562 141.546875 C 142.660156 141.503906 143.464844 141.433594 144.265625 141.339844 C 145.066406 141.246094 145.867188 141.128906 146.660156 140.988281 C 147.457031 140.84375 148.246094 140.675781 149.03125 140.484375 C 149.816406 140.292969 150.59375 140.078125 151.363281 139.839844 C 152.136719 139.597656 152.898438 139.335938 153.652344 139.050781 C 154.40625 138.761719 155.152344 138.453125 155.890625 138.121094 C 156.625 137.785156 157.347656 137.433594 158.0625 137.054688 C 158.777344 136.675781 159.476562 136.277344 160.167969 135.855469 C 160.855469 135.433594 161.53125 134.992188 162.191406 134.53125 C 162.851562 134.066406 163.5 133.585938 164.132812 133.082031 C 164.761719 132.578125 165.378906 132.054688 165.976562 131.515625 C 166.574219 130.972656 167.15625 130.414062 167.722656 129.839844 C 168.285156 129.261719 168.832031 128.667969 169.359375 128.058594 C 169.886719 127.445312 170.394531 126.820312 170.882812 126.179688 C 171.371094 125.535156 171.839844 124.878906 172.289062 124.207031 C 172.738281 123.535156 173.164062 122.851562 173.570312 122.15625 C 173.972656 121.457031 174.359375 120.75 174.71875 120.027344 C 175.082031 119.304688 175.417969 118.574219 175.734375 117.832031 C 176.050781 117.089844 176.34375 116.339844 176.613281 115.578125 C 176.882812 114.816406 177.128906 114.050781 177.351562 113.273438 C 177.574219 112.5 177.769531 111.71875 177.941406 110.929688 C 178.117188 110.140625 178.265625 109.347656 178.390625 108.550781 C 178.511719 107.753906 178.613281 106.957031 178.6875 106.152344 C 178.761719 105.347656 178.8125 104.542969 178.835938 103.738281 C 178.859375 102.933594 178.859375 102.125 178.835938 101.320312 C 178.808594 100.515625 178.757812 99.710938 178.683594 98.90625 C 178.609375 98.105469 178.507812 97.304688 178.382812 96.507812 C 178.257812 95.710938 178.109375 94.917969 177.933594 94.128906 C 177.757812 93.34375 177.5625 92.5625 177.339844 91.785156 C 177.117188 91.011719 176.871094 90.242188 176.597656 89.484375 C 176.328125 88.722656 176.035156 87.972656 175.71875 87.230469 C 175.402344 86.488281 175.0625 85.757812 174.699219 85.035156 C 174.335938 84.316406 173.953125 83.605469 173.546875 82.910156 C 173.140625 82.214844 172.714844 81.527344 172.265625 80.859375 C 171.816406 80.1875 171.347656 79.53125 170.855469 78.890625 C 170.367188 78.25 169.859375 77.621094 169.332031 77.011719 C 168.804688 76.402344 168.257812 75.808594 167.691406 75.234375 C 167.125 74.65625 166.542969 74.097656 165.945312 73.558594 C 165.34375 73.019531 164.730469 72.496094 164.097656 71.996094 C 163.464844 71.492188 162.816406 71.011719 162.15625 70.546875 Z M 162.15625 70.546875 " fill-opacity="0.7765" fill-rule="evenodd"/><path fill="#56ba48" d="M 210.804688 129.304688 C 209.730469 129.304688 208.660156 129.25 207.59375 129.148438 C 206.523438 129.042969 205.464844 128.886719 204.410156 128.675781 C 203.359375 128.46875 202.316406 128.207031 201.289062 127.898438 C 200.265625 127.585938 199.253906 127.226562 198.261719 126.816406 C 197.269531 126.40625 196.300781 125.949219 195.355469 125.445312 C 194.40625 124.9375 193.488281 124.390625 192.597656 123.792969 C 191.703125 123.199219 190.84375 122.5625 190.011719 121.882812 C 189.183594 121.203125 188.386719 120.484375 187.628906 119.726562 C 186.871094 118.96875 186.148438 118.175781 185.46875 117.347656 C 184.789062 116.519531 184.148438 115.660156 183.550781 114.769531 C 182.957031 113.875 182.402344 112.957031 181.898438 112.011719 C 181.390625 111.070312 180.933594 110.101562 180.523438 109.109375 C 180.109375 108.121094 179.75 107.113281 179.4375 106.085938 C 179.125 105.0625 178.867188 104.023438 178.65625 102.972656 C 178.445312 101.921875 178.289062 100.863281 178.183594 99.796875 C 178.078125 98.730469 178.023438 97.660156 178.023438 96.589844 C 178.023438 95.515625 178.078125 94.449219 178.183594 93.378906 C 178.285156 92.3125 178.445312 91.253906 178.652344 90.203125 C 178.863281 89.152344 179.121094 88.113281 179.433594 87.089844 C 179.746094 86.0625 180.105469 85.054688 180.515625 84.066406 C 180.925781 83.074219 181.386719 82.105469 181.890625 81.160156 C 182.398438 80.214844 182.949219 79.296875 183.542969 78.40625 C 184.140625 77.515625 184.777344 76.65625 185.460938 75.828125 C 186.140625 75 186.859375 74.207031 187.621094 73.445312 C 188.378906 72.6875 189.171875 71.96875 190.003906 71.289062 C 190.832031 70.609375 191.691406 69.972656 192.585938 69.375 C 193.476562 68.78125 194.398438 68.230469 195.34375 67.726562 C 196.289062 67.21875 197.257812 66.761719 198.25 66.351562 C 199.242188 65.941406 200.25 65.582031 201.277344 65.269531 C 202.304688 64.957031 203.34375 64.699219 204.398438 64.488281 C 205.449219 64.28125 206.511719 64.121094 207.578125 64.019531 C 208.648438 63.914062 209.71875 63.859375 210.792969 63.859375 C 211.863281 63.859375 212.933594 63.910156 214.003906 64.015625 C 215.070312 64.121094 216.132812 64.277344 217.183594 64.488281 C 218.238281 64.695312 219.277344 64.957031 220.304688 65.269531 C 221.332031 65.578125 222.339844 65.941406 223.332031 66.347656 C 224.324219 66.757812 225.292969 67.21875 226.238281 67.722656 C 227.1875 68.226562 228.105469 68.777344 229 69.375 C 229.890625 69.96875 230.753906 70.605469 231.582031 71.285156 C 232.410156 71.964844 233.207031 72.683594 233.964844 73.441406 C 234.722656 74.199219 235.445312 74.992188 236.125 75.820312 C 236.804688 76.648438 237.445312 77.511719 238.039062 78.402344 C 238.636719 79.292969 239.1875 80.210938 239.695312 81.15625 C 240.199219 82.101562 240.660156 83.070312 241.070312 84.058594 C 241.480469 85.050781 241.839844 86.058594 242.152344 87.082031 C 242.464844 88.109375 242.726562 89.144531 242.933594 90.199219 C 243.144531 91.25 243.300781 92.308594 243.40625 93.375 C 243.511719 94.441406 243.5625 95.511719 243.5625 96.582031 C 243.5625 97.652344 243.507812 98.722656 243.402344 99.785156 C 243.292969 100.851562 243.136719 101.910156 242.925781 102.960938 C 242.714844 104.011719 242.453125 105.046875 242.140625 106.070312 C 241.828125 107.097656 241.464844 108.101562 241.054688 109.09375 C 240.644531 110.082031 240.183594 111.046875 239.679688 111.992188 C 239.171875 112.9375 238.621094 113.855469 238.023438 114.742188 C 237.429688 115.632812 236.789062 116.492188 236.109375 117.320312 C 235.429688 118.148438 234.710938 118.941406 233.953125 119.699219 C 233.195312 120.457031 232.402344 121.175781 231.570312 121.855469 C 230.742188 122.535156 229.882812 123.171875 228.992188 123.765625 C 228.101562 124.363281 227.179688 124.914062 226.234375 125.417969 C 225.289062 125.925781 224.324219 126.382812 223.332031 126.792969 C 222.34375 127.203125 221.335938 127.566406 220.308594 127.878906 C 219.28125 128.191406 218.242188 128.453125 217.191406 128.664062 C 216.140625 128.875 215.082031 129.03125 214.015625 129.140625 C 212.945312 129.246094 211.878906 129.300781 210.804688 129.304688 Z M 210.804688 129.304688 " fill-opacity="0.7765" fill-rule="evenodd"/></svg>