<svg xmlns="http://www.w3.org/2000/svg" xmlns:xlink="http://www.w3.org/1999/xlink" width="500" zoomAndPan="magnify" viewBox="0 0 375 374.999991" height="500" preserveAspectRatio="xMidYMid meet" version="1.0"><defs><clipPath id="9defb5164b"><path d="M 164.367188 175 L 189 175 L 189 202 L 164.367188 202 Z M 164.367188 175 " clip-rule="nonzero"/></clipPath><clipPath id="c69c6b8f16"><path d="M 170 190 L 196 190 L 196 215.550781 L 170 215.550781 Z M 170 190 " clip-rule="nonzero"/></clipPath><clipPath id="a3693a4987"><path d="M 178 202 L 194 202 L 194 215.550781 L 178 215.550781 Z M 178 202 " clip-rule="nonzero"/></clipPath><clipPath id="33a456d012"><path d="M 205 169 L 210.621094 169 L 210.621094 175 L 205 175 Z M 205 169 " clip-rule="nonzero"/></clipPath><clipPath id="51d46ed13f"><path d="M 196 159.300781 L 200 159.300781 L 200 163 L 196 163 Z M 196 159.300781 " clip-rule="nonzero"/></clipPath></defs><rect x="-37.5" width="450" fill="#ffffff" y="-37.499999" height="449.999989" fill-opacity="1"/><rect x="-37.5" width="450" fill="#ffffff" y="-37.499999" height="449.999989" fill-opacity="1"/><rect x="-37.5" width="450" fill="#f6f6f6" y="-37.499999" height="449.999989" fill-opacity="1"/><path fill="#f9ed32" d="M 186.457031 167.058594 C 186.050781 167.058594 185.664062 166.980469 185.289062 166.828125 C 184.917969 166.671875 184.589844 166.453125 184.304688 166.164062 C 184.019531 165.878906 183.796875 165.550781 183.644531 165.175781 C 183.488281 164.800781 183.410156 164.414062 183.410156 164.007812 C 183.410156 163.605469 183.488281 163.214844 183.640625 162.839844 C 183.796875 162.46875 184.015625 162.136719 184.300781 161.851562 C 184.585938 161.5625 184.914062 161.34375 185.289062 161.1875 C 185.660156 161.03125 186.046875 160.957031 186.453125 160.953125 C 186.855469 160.953125 187.242188 161.03125 187.617188 161.183594 C 187.988281 161.339844 188.316406 161.558594 188.605469 161.84375 C 188.890625 162.128906 189.109375 162.460938 189.265625 162.832031 C 189.421875 163.207031 189.496094 163.597656 189.5 164 C 189.5 164.40625 189.421875 164.796875 189.265625 165.167969 C 189.113281 165.542969 188.894531 165.875 188.609375 166.160156 C 188.324219 166.449219 187.992188 166.667969 187.621094 166.824219 C 187.246094 166.980469 186.859375 167.058594 186.457031 167.058594 Z M 186.457031 167.058594 " fill-opacity="0.7765" fill-rule="evenodd"/><path fill="#662d91" d="M 171.710938 169.414062 C 170.027344 171.371094 168.964844 173.625 168.527344 176.175781 C 167.910156 179.792969 168.851562 183.144531 168.191406 185.394531 C 168.035156 185.898438 167.828125 186.382812 167.570312 186.84375 C 167.878906 187.023438 168.195312 187.183594 168.523438 187.328125 C 168.851562 187.472656 169.1875 187.59375 169.527344 187.699219 C 169.867188 187.804688 170.214844 187.890625 170.566406 187.957031 C 170.917969 188.019531 171.269531 188.066406 171.628906 188.089844 C 171.984375 188.113281 172.339844 188.117188 172.695312 188.101562 C 173.054688 188.085938 173.40625 188.050781 173.761719 187.992188 C 174.113281 187.933594 174.460938 187.855469 174.804688 187.757812 C 175.148438 187.660156 175.484375 187.546875 175.816406 187.410156 C 176.144531 187.273438 176.46875 187.117188 176.78125 186.945312 C 177.09375 186.769531 177.394531 186.582031 177.683594 186.371094 C 177.976562 186.164062 178.253906 185.941406 178.519531 185.699219 C 178.785156 185.460938 179.035156 185.207031 179.269531 184.9375 C 179.507812 184.667969 179.726562 184.386719 179.929688 184.09375 C 180.132812 183.800781 180.320312 183.496094 180.488281 183.179688 C 180.65625 182.863281 180.808594 182.539062 180.9375 182.207031 C 181.070312 181.875 181.183594 181.535156 181.277344 181.1875 C 181.371094 180.84375 181.441406 180.492188 181.496094 180.136719 C 181.546875 179.785156 181.578125 179.429688 181.59375 179.070312 C 181.605469 178.710938 181.597656 178.355469 181.566406 177.996094 C 181.539062 177.640625 181.488281 177.285156 181.417969 176.933594 C 181.351562 176.585938 181.261719 176.238281 181.152344 175.898438 C 181.042969 175.554688 180.914062 175.222656 180.765625 174.894531 C 180.621094 174.570312 180.453125 174.253906 180.269531 173.945312 C 180.085938 173.636719 179.886719 173.34375 179.667969 173.058594 C 179.453125 172.773438 179.21875 172.503906 178.972656 172.246094 C 178.722656 171.988281 178.460938 171.746094 178.183594 171.519531 C 177.910156 171.292969 177.621094 171.082031 177.320312 170.886719 C 177.019531 170.695312 176.710938 170.519531 176.390625 170.359375 C 176.070312 170.203125 175.742188 170.0625 175.402344 169.941406 C 175.066406 169.820312 174.726562 169.71875 174.378906 169.640625 C 174.03125 169.558594 173.679688 169.496094 173.324219 169.457031 C 172.96875 169.417969 172.613281 169.394531 172.257812 169.398438 C 172.082031 169.398438 171.894531 169.402344 171.710938 169.414062 Z M 171.710938 169.414062 " fill-opacity="0.7765" fill-rule="evenodd"/><g clip-path="url(#9defb5164b)"><path fill="#92278f" d="M 168.34375 177.769531 C 168.148438 180.765625 168.753906 183.480469 168.191406 185.402344 C 167.230469 188.691406 162.964844 191.667969 164.957031 193.359375 C 165.585938 193.867188 166.671875 193.898438 167.308594 194.398438 C 168.320312 195.191406 167.628906 196.046875 167.539062 196.664062 C 167.496094 196.960938 167.761719 197.429688 168.636719 198.003906 C 167.976562 198.496094 168.035156 198.910156 168.273438 199.292969 C 168.917969 199.734375 169.601562 200.117188 170.316406 200.4375 C 171.03125 200.757812 171.769531 201.011719 172.53125 201.199219 C 173.292969 201.386719 174.066406 201.503906 174.847656 201.546875 C 175.628906 201.59375 176.410156 201.570312 177.1875 201.476562 C 177.964844 201.378906 178.730469 201.214844 179.476562 200.980469 C 180.226562 200.746094 180.945312 200.445312 181.640625 200.082031 C 182.335938 199.714844 182.992188 199.292969 183.609375 198.808594 C 184.226562 198.324219 184.792969 197.785156 185.3125 197.199219 C 185.835938 196.609375 186.296875 195.980469 186.703125 195.308594 C 187.113281 194.636719 187.453125 193.933594 187.734375 193.199219 C 188.011719 192.464844 188.226562 191.710938 188.367188 190.941406 C 188.511719 190.167969 188.585938 189.386719 188.585938 188.601562 C 188.589844 187.816406 188.523438 187.035156 188.382812 186.261719 C 188.246094 185.488281 188.039062 184.734375 187.765625 183.996094 C 187.492188 183.261719 187.152344 182.554688 186.75 181.882812 C 186.347656 181.207031 185.886719 180.574219 185.371094 179.984375 C 184.855469 179.390625 184.289062 178.851562 183.675781 178.363281 C 183.0625 177.875 182.410156 177.445312 181.71875 177.074219 C 181.027344 176.707031 180.308594 176.402344 179.5625 176.164062 C 178.8125 175.921875 178.050781 175.753906 177.273438 175.652344 C 176.496094 175.550781 175.71875 175.523438 174.933594 175.5625 C 174.152344 175.605469 173.378906 175.714844 172.617188 175.894531 C 171.855469 176.078125 171.113281 176.324219 170.394531 176.640625 C 169.679688 176.957031 168.996094 177.335938 168.34375 177.777344 Z M 168.34375 177.769531 " fill-opacity="0.7765" fill-rule="evenodd"/></g><g clip-path="url(#c69c6b8f16)"><path fill="#007fc6" d="M 171.125 206.523438 C 176.054688 208.535156 182.652344 201.785156 183.539062 215.550781 C 186.746094 213.441406 190.140625 211.707031 193.730469 210.351562 C 194.023438 209.917969 194.292969 209.464844 194.53125 208.992188 C 194.773438 208.523438 194.980469 208.039062 195.160156 207.542969 C 195.339844 207.046875 195.484375 206.542969 195.601562 206.027344 C 195.71875 205.511719 195.800781 204.992188 195.851562 204.46875 C 195.902344 203.941406 195.921875 203.414062 195.90625 202.886719 C 195.890625 202.359375 195.84375 201.835938 195.765625 201.3125 C 195.683594 200.792969 195.570312 200.277344 195.425781 199.769531 C 195.28125 199.261719 195.105469 198.765625 194.902344 198.28125 C 194.695312 197.796875 194.457031 197.324219 194.191406 196.871094 C 193.929688 196.414062 193.636719 195.976562 193.316406 195.558594 C 192.996094 195.136719 192.652344 194.742188 192.28125 194.363281 C 191.914062 193.988281 191.519531 193.636719 191.109375 193.3125 C 190.695312 192.984375 190.261719 192.683594 189.8125 192.414062 C 189.359375 192.140625 188.894531 191.898438 188.414062 191.683594 C 187.933594 191.46875 187.441406 191.285156 186.9375 191.132812 C 186.433594 190.980469 185.921875 190.863281 185.402344 190.773438 C 184.882812 190.6875 184.359375 190.632812 183.835938 190.609375 C 183.308594 190.585938 182.785156 190.597656 182.257812 190.640625 C 181.734375 190.683594 181.214844 190.761719 180.699219 190.871094 C 180.1875 190.976562 179.679688 191.117188 179.183594 191.292969 C 178.683594 191.464844 178.199219 191.667969 177.726562 191.898438 C 177.257812 192.132812 176.800781 192.394531 176.359375 192.683594 C 175.921875 192.976562 175.5 193.292969 175.101562 193.636719 C 174.703125 193.980469 174.324219 194.34375 173.972656 194.734375 C 173.617188 195.125 173.289062 195.539062 172.984375 195.96875 C 172.683594 196.402344 172.410156 196.851562 172.164062 197.316406 C 171.914062 197.78125 171.699219 198.261719 171.511719 198.753906 C 171.324219 199.25 171.171875 199.753906 171.046875 200.265625 C 170.921875 200.777344 170.832031 201.296875 170.773438 201.820312 C 170.710938 202.34375 170.6875 202.871094 170.691406 203.398438 C 170.699219 203.925781 170.738281 204.453125 170.8125 204.976562 C 170.882812 205.496094 170.988281 206.011719 171.125 206.523438 Z M 171.125 206.523438 " fill-opacity="0.7765" fill-rule="evenodd"/></g><g clip-path="url(#a3693a4987)"><path fill="#01a6e6" d="M 178.359375 206.59375 C 180.964844 206.703125 183.066406 208.207031 183.539062 215.550781 C 186.726562 213.453125 190.105469 211.726562 193.667969 210.375 C 193.648438 209.476562 193.484375 208.601562 193.175781 207.757812 C 192.867188 206.914062 192.433594 206.140625 191.871094 205.441406 C 191.308594 204.738281 190.652344 204.148438 189.894531 203.664062 C 189.140625 203.179688 188.328125 202.832031 187.457031 202.617188 C 186.585938 202.402344 185.703125 202.332031 184.808594 202.40625 C 183.917969 202.484375 183.058594 202.703125 182.238281 203.0625 C 181.414062 203.421875 180.671875 203.902344 180.007812 204.507812 C 179.34375 205.113281 178.796875 205.808594 178.359375 206.59375 Z M 178.359375 206.59375 " fill-opacity="0.7765" fill-rule="evenodd"/></g><path fill="#2063b2" d="M 166.449219 193.976562 C 166.757812 194.066406 167.046875 194.203125 167.308594 194.390625 C 168.320312 195.183594 167.628906 196.039062 167.539062 196.65625 C 167.496094 196.953125 167.761719 197.421875 168.636719 197.996094 C 167.625 198.746094 168.304688 199.320312 168.714844 199.871094 C 170.609375 201.242188 167.972656 204.214844 171.101562 206.515625 C 174.257812 207.820312 178.09375 205.519531 180.6875 207.285156 C 180.769531 206.808594 180.824219 206.332031 180.847656 205.847656 C 180.867188 205.367188 180.863281 204.886719 180.824219 204.402344 C 180.789062 203.921875 180.722656 203.445312 180.625 202.972656 C 180.53125 202.5 180.40625 202.035156 180.253906 201.578125 C 180.101562 201.121094 179.917969 200.671875 179.710938 200.238281 C 179.5 199.804688 179.265625 199.382812 179.007812 198.976562 C 178.746094 198.570312 178.460938 198.183594 178.152344 197.8125 C 177.84375 197.441406 177.511719 197.09375 177.160156 196.765625 C 176.808594 196.433594 176.4375 196.128906 176.046875 195.847656 C 175.660156 195.5625 175.253906 195.304688 174.832031 195.074219 C 174.410156 194.839844 173.976562 194.636719 173.527344 194.457031 C 173.082031 194.28125 172.625 194.128906 172.160156 194.007812 C 171.691406 193.886719 171.222656 193.792969 170.742188 193.730469 C 170.265625 193.667969 169.789062 193.636719 169.304688 193.632812 C 168.824219 193.628906 168.34375 193.65625 167.867188 193.714844 C 167.390625 193.769531 166.917969 193.855469 166.449219 193.972656 Z M 166.449219 193.976562 " fill-opacity="0.7765" fill-rule="evenodd"/><path fill="#12bcbc" d="M 203.109375 194.121094 C 202.8125 194.121094 202.519531 194.09375 202.230469 194.035156 C 201.941406 193.980469 201.660156 193.894531 201.382812 193.78125 C 201.109375 193.664062 200.851562 193.527344 200.605469 193.363281 C 200.359375 193.195312 200.132812 193.007812 199.921875 192.800781 C 199.710938 192.589844 199.523438 192.363281 199.359375 192.113281 C 199.195312 191.867188 199.058594 191.609375 198.945312 191.332031 C 198.832031 191.058594 198.746094 190.777344 198.6875 190.484375 C 198.628906 190.195312 198.601562 189.898438 198.601562 189.601562 C 198.601562 189.304688 198.628906 189.011719 198.6875 188.722656 C 198.746094 188.429688 198.832031 188.148438 198.945312 187.871094 C 199.058594 187.597656 199.195312 187.339844 199.359375 187.089844 C 199.523438 186.84375 199.710938 186.617188 199.921875 186.40625 C 200.128906 186.195312 200.359375 186.007812 200.605469 185.84375 C 200.851562 185.679688 201.109375 185.539062 201.382812 185.425781 C 201.65625 185.3125 201.9375 185.226562 202.230469 185.167969 C 202.519531 185.109375 202.8125 185.082031 203.109375 185.082031 C 203.40625 185.082031 203.699219 185.109375 203.988281 185.167969 C 204.277344 185.226562 204.5625 185.3125 204.835938 185.425781 C 205.109375 185.539062 205.367188 185.679688 205.613281 185.84375 C 205.859375 186.007812 206.085938 186.195312 206.296875 186.40625 C 206.507812 186.617188 206.691406 186.84375 206.855469 187.09375 C 207.023438 187.339844 207.160156 187.601562 207.273438 187.875 C 207.386719 188.148438 207.472656 188.429688 207.53125 188.722656 C 207.585938 189.011719 207.617188 189.308594 207.617188 189.605469 C 207.617188 189.902344 207.585938 190.195312 207.527344 190.484375 C 207.46875 190.777344 207.382812 191.058594 207.269531 191.332031 C 207.15625 191.605469 207.019531 191.867188 206.855469 192.113281 C 206.6875 192.359375 206.503906 192.585938 206.292969 192.796875 C 206.085938 193.007812 205.855469 193.195312 205.609375 193.359375 C 205.367188 193.523438 205.105469 193.664062 204.832031 193.777344 C 204.558594 193.890625 204.277344 193.976562 203.988281 194.035156 C 203.699219 194.09375 203.40625 194.121094 203.109375 194.121094 Z M 203.109375 194.121094 " fill-opacity="0.7765" fill-rule="evenodd"/><path fill="#00b9f1" d="M 193.667969 200.414062 C 193.398438 200.414062 193.132812 200.390625 192.867188 200.339844 C 192.601562 200.285156 192.34375 200.207031 192.09375 200.105469 C 191.84375 200.003906 191.605469 199.875 191.382812 199.726562 C 191.15625 199.574219 190.949219 199.40625 190.757812 199.214844 C 190.566406 199.023438 190.394531 198.816406 190.242188 198.589844 C 190.09375 198.367188 189.964844 198.128906 189.863281 197.878906 C 189.757812 197.628906 189.679688 197.371094 189.625 197.105469 C 189.574219 196.839844 189.546875 196.570312 189.546875 196.300781 C 189.546875 196.027344 189.570312 195.761719 189.625 195.496094 C 189.675781 195.230469 189.753906 194.972656 189.855469 194.71875 C 189.957031 194.46875 190.085938 194.230469 190.234375 194.007812 C 190.382812 193.78125 190.554688 193.574219 190.746094 193.378906 C 190.9375 193.1875 191.144531 193.019531 191.367188 192.867188 C 191.59375 192.714844 191.828125 192.589844 192.078125 192.484375 C 192.328125 192.378906 192.585938 192.300781 192.851562 192.25 C 193.117188 192.195312 193.382812 192.167969 193.652344 192.167969 C 193.921875 192.167969 194.191406 192.195312 194.457031 192.246094 C 194.722656 192.300781 194.976562 192.378906 195.226562 192.480469 C 195.476562 192.585938 195.714844 192.710938 195.9375 192.863281 C 196.164062 193.011719 196.371094 193.183594 196.5625 193.375 C 196.753906 193.566406 196.925781 193.773438 197.074219 194 C 197.226562 194.226562 197.351562 194.464844 197.457031 194.714844 C 197.558594 194.964844 197.636719 195.222656 197.691406 195.488281 C 197.742188 195.753906 197.769531 196.019531 197.769531 196.292969 C 197.769531 196.5625 197.742188 196.828125 197.6875 197.09375 C 197.636719 197.359375 197.558594 197.617188 197.453125 197.867188 C 197.351562 198.117188 197.226562 198.351562 197.074219 198.578125 C 196.925781 198.800781 196.757812 199.011719 196.566406 199.199219 C 196.375 199.390625 196.167969 199.5625 195.945312 199.714844 C 195.722656 199.863281 195.484375 199.992188 195.238281 200.097656 C 194.988281 200.199219 194.734375 200.277344 194.46875 200.332031 C 194.203125 200.386719 193.9375 200.414062 193.667969 200.414062 Z M 193.667969 200.414062 " fill-opacity="0.7765" fill-rule="evenodd"/><path fill="#8dc63f" d="M 203.757812 183.121094 C 203.339844 183.121094 202.9375 183.042969 202.550781 182.882812 C 202.164062 182.71875 201.820312 182.492188 201.523438 182.195312 C 201.226562 181.898438 201 181.554688 200.839844 181.167969 C 200.679688 180.777344 200.597656 180.375 200.597656 179.953125 C 200.601562 179.535156 200.679688 179.128906 200.839844 178.742188 C 201 178.355469 201.230469 178.011719 201.527344 177.714844 C 201.820312 177.417969 202.164062 177.1875 202.550781 177.027344 C 202.9375 176.867188 203.339844 176.785156 203.757812 176.785156 C 204.179688 176.789062 204.582031 176.867188 204.96875 177.027344 C 205.355469 177.191406 205.695312 177.417969 205.992188 177.714844 C 206.289062 178.011719 206.515625 178.355469 206.675781 178.742188 C 206.835938 179.132812 206.917969 179.535156 206.917969 179.957031 C 206.917969 180.375 206.835938 180.78125 206.675781 181.167969 C 206.515625 181.554688 206.285156 181.898438 205.988281 182.195312 C 205.695312 182.492188 205.351562 182.71875 204.964844 182.878906 C 204.578125 183.042969 204.175781 183.121094 203.757812 183.121094 Z M 203.757812 183.121094 " fill-opacity="0.7765" fill-rule="evenodd"/><g clip-path="url(#33a456d012)"><path fill="#ffd900" d="M 205.332031 172.085938 C 205.332031 172.449219 205.402344 172.796875 205.542969 173.132812 C 205.679688 173.46875 205.878906 173.765625 206.136719 174.023438 C 206.390625 174.28125 206.6875 174.480469 207.023438 174.617188 C 207.359375 174.757812 207.707031 174.828125 208.070312 174.828125 C 208.433594 174.828125 208.78125 174.757812 209.117188 174.617188 C 209.449219 174.480469 209.746094 174.28125 210.003906 174.023438 C 210.257812 173.765625 210.457031 173.46875 210.597656 173.132812 C 210.734375 172.796875 210.804688 172.449219 210.804688 172.085938 C 210.804688 171.722656 210.734375 171.371094 210.597656 171.035156 C 210.457031 170.699219 210.257812 170.402344 210.003906 170.144531 C 209.746094 169.886719 209.449219 169.691406 209.117188 169.550781 C 208.78125 169.410156 208.433594 169.339844 208.070312 169.339844 C 207.707031 169.339844 207.359375 169.410156 207.023438 169.550781 C 206.6875 169.691406 206.390625 169.886719 206.136719 170.144531 C 205.878906 170.402344 205.679688 170.699219 205.542969 171.035156 C 205.402344 171.371094 205.332031 171.722656 205.332031 172.085938 Z M 205.332031 172.085938 " fill-opacity="0.7765" fill-rule="nonzero"/></g><path fill="#009444" d="M 202.289062 167.058594 C 201.953125 167.058594 201.625 166.996094 201.3125 166.863281 C 201 166.734375 200.722656 166.550781 200.484375 166.308594 C 200.246094 166.070312 200.058594 165.792969 199.929688 165.480469 C 199.800781 165.164062 199.734375 164.839844 199.734375 164.5 C 199.734375 164.160156 199.800781 163.832031 199.929688 163.519531 C 200.058594 163.207031 200.242188 162.929688 200.480469 162.6875 C 200.722656 162.449219 200.996094 162.261719 201.308594 162.132812 C 201.625 162.003906 201.949219 161.9375 202.289062 161.9375 C 202.625 161.9375 202.953125 162.003906 203.265625 162.132812 C 203.578125 162.261719 203.855469 162.445312 204.09375 162.6875 C 204.332031 162.925781 204.519531 163.203125 204.648438 163.519531 C 204.777344 163.832031 204.84375 164.160156 204.84375 164.5 C 204.839844 164.835938 204.777344 165.164062 204.648438 165.476562 C 204.515625 165.789062 204.332031 166.066406 204.09375 166.308594 C 203.855469 166.546875 203.578125 166.730469 203.265625 166.863281 C 202.953125 166.992188 202.628906 167.058594 202.289062 167.058594 Z M 202.289062 167.058594 " fill-opacity="0.7765" fill-rule="evenodd"/><path fill="#56ba48" d="M 201.421875 173.441406 C 201.199219 173.441406 200.984375 173.398438 200.777344 173.3125 C 200.570312 173.226562 200.390625 173.105469 200.230469 172.945312 C 200.074219 172.789062 199.949219 172.605469 199.863281 172.398438 C 199.78125 172.191406 199.738281 171.972656 199.738281 171.75 C 199.738281 171.527344 199.78125 171.308594 199.863281 171.101562 C 199.949219 170.894531 200.074219 170.710938 200.230469 170.554688 C 200.390625 170.394531 200.570312 170.273438 200.777344 170.1875 C 200.984375 170.101562 201.199219 170.058594 201.421875 170.058594 C 201.648438 170.058594 201.863281 170.101562 202.070312 170.1875 C 202.277344 170.273438 202.457031 170.394531 202.617188 170.554688 C 202.773438 170.710938 202.894531 170.894531 202.980469 171.101562 C 203.066406 171.308594 203.109375 171.527344 203.109375 171.75 C 203.109375 171.972656 203.066406 172.1875 202.980469 172.394531 C 202.894531 172.601562 202.773438 172.785156 202.613281 172.945312 C 202.457031 173.101562 202.273438 173.226562 202.066406 173.3125 C 201.863281 173.398438 201.648438 173.441406 201.421875 173.441406 Z M 201.421875 173.441406 " fill-opacity="0.7765" fill-rule="evenodd"/><g clip-path="url(#51d46ed13f)"><path fill="#fbad17" d="M 197.90625 162.683594 C 197.683594 162.683594 197.464844 162.640625 197.261719 162.554688 C 197.054688 162.472656 196.871094 162.347656 196.710938 162.191406 C 196.554688 162.03125 196.433594 161.847656 196.347656 161.640625 C 196.261719 161.433594 196.21875 161.21875 196.21875 160.992188 C 196.21875 160.769531 196.261719 160.554688 196.347656 160.347656 C 196.433594 160.140625 196.554688 159.957031 196.710938 159.796875 C 196.871094 159.640625 197.054688 159.515625 197.261719 159.429688 C 197.464844 159.34375 197.683594 159.300781 197.90625 159.300781 C 198.128906 159.300781 198.34375 159.34375 198.550781 159.429688 C 198.757812 159.515625 198.941406 159.640625 199.097656 159.796875 C 199.257812 159.957031 199.378906 160.140625 199.464844 160.347656 C 199.550781 160.554688 199.59375 160.769531 199.59375 160.992188 C 199.589844 161.21875 199.546875 161.433594 199.460938 161.640625 C 199.378906 161.847656 199.253906 162.03125 199.097656 162.1875 C 198.9375 162.347656 198.757812 162.46875 198.550781 162.554688 C 198.34375 162.640625 198.128906 162.683594 197.90625 162.683594 Z M 197.90625 162.683594 " fill-opacity="0.7765" fill-rule="evenodd"/></g><path fill="#f15c22" d="M 208.265625 166.457031 C 208.097656 166.457031 207.933594 166.421875 207.777344 166.355469 C 207.621094 166.289062 207.484375 166.199219 207.367188 166.078125 C 207.246094 165.957031 207.15625 165.820312 207.089844 165.660156 C 207.027344 165.503906 206.996094 165.339844 206.996094 165.171875 C 206.996094 165.003906 207.027344 164.839844 207.09375 164.683594 C 207.160156 164.527344 207.25 164.386719 207.371094 164.269531 C 207.492188 164.148438 207.628906 164.054688 207.785156 163.992188 C 207.941406 163.925781 208.105469 163.894531 208.273438 163.894531 C 208.441406 163.894531 208.605469 163.929688 208.761719 163.992188 C 208.917969 164.058594 209.054688 164.152344 209.175781 164.269531 C 209.296875 164.390625 209.386719 164.53125 209.453125 164.6875 C 209.515625 164.84375 209.550781 165.007812 209.550781 165.175781 C 209.546875 165.347656 209.515625 165.507812 209.449219 165.667969 C 209.386719 165.824219 209.292969 165.960938 209.171875 166.082031 C 209.050781 166.203125 208.914062 166.292969 208.757812 166.359375 C 208.597656 166.425781 208.4375 166.457031 208.265625 166.457031 Z M 208.265625 166.457031 " fill-opacity="0.7765" fill-rule="evenodd"/><path fill="#fbad17" d="M 177.914062 179.519531 C 177.914062 180.21875 177.984375 180.917969 178.121094 181.605469 C 178.257812 182.292969 178.460938 182.964844 178.726562 183.613281 C 178.996094 184.261719 179.324219 184.878906 179.714844 185.460938 C 180.101562 186.046875 180.546875 186.585938 181.039062 187.082031 C 181.535156 187.582031 182.074219 188.023438 182.65625 188.414062 C 183.238281 188.804688 183.855469 189.132812 184.503906 189.402344 C 185.148438 189.671875 185.816406 189.875 186.503906 190.011719 C 187.191406 190.148438 187.882812 190.21875 188.585938 190.21875 C 189.285156 190.21875 189.980469 190.148438 190.667969 190.011719 C 191.355469 189.875 192.019531 189.671875 192.667969 189.402344 C 193.316406 189.132812 193.929688 188.804688 194.511719 188.414062 C 195.09375 188.023438 195.632812 187.582031 196.128906 187.082031 C 196.625 186.585938 197.066406 186.046875 197.457031 185.460938 C 197.84375 184.878906 198.175781 184.261719 198.441406 183.613281 C 198.710938 182.964844 198.914062 182.292969 199.050781 181.605469 C 199.1875 180.917969 199.253906 180.21875 199.253906 179.519531 C 199.253906 178.816406 199.1875 178.121094 199.050781 177.429688 C 198.914062 176.742188 198.710938 176.074219 198.441406 175.421875 C 198.175781 174.773438 197.84375 174.15625 197.457031 173.574219 C 197.066406 172.988281 196.625 172.449219 196.128906 171.953125 C 195.632812 171.457031 195.09375 171.011719 194.511719 170.621094 C 193.929688 170.230469 193.316406 169.902344 192.667969 169.632812 C 192.019531 169.363281 191.355469 169.160156 190.667969 169.023438 C 189.980469 168.886719 189.285156 168.820312 188.585938 168.820312 C 187.882812 168.820312 187.191406 168.886719 186.503906 169.023438 C 185.816406 169.160156 185.148438 169.363281 184.503906 169.632812 C 183.855469 169.902344 183.238281 170.230469 182.65625 170.621094 C 182.074219 171.011719 181.535156 171.457031 181.039062 171.953125 C 180.546875 172.449219 180.101562 172.988281 179.714844 173.574219 C 179.324219 174.15625 178.996094 174.773438 178.726562 175.421875 C 178.460938 176.074219 178.257812 176.742188 178.121094 177.429688 C 177.984375 178.121094 177.914062 178.816406 177.914062 179.519531 Z M 177.914062 179.519531 " fill-opacity="0.7765" fill-rule="nonzero"/><path fill="#ec008b" d="M 182.691406 163.324219 C 177.578125 164.378906 173.292969 166.949219 170.769531 170.644531 C 170.8125 170.957031 170.875 171.265625 170.957031 171.570312 C 171.039062 171.875 171.136719 172.175781 171.257812 172.46875 C 171.375 172.761719 171.511719 173.046875 171.664062 173.320312 C 171.820312 173.597656 171.988281 173.863281 172.175781 174.117188 C 172.363281 174.375 172.5625 174.617188 172.78125 174.84375 C 172.996094 175.074219 173.226562 175.289062 173.472656 175.492188 C 173.714844 175.691406 173.96875 175.878906 174.234375 176.046875 C 174.5 176.214844 174.777344 176.367188 175.0625 176.503906 C 175.347656 176.640625 175.640625 176.757812 175.9375 176.855469 C 176.238281 176.953125 176.542969 177.035156 176.851562 177.09375 C 177.160156 177.15625 177.472656 177.195312 177.789062 177.21875 C 178.101562 177.242188 178.417969 177.242188 178.730469 177.226562 C 179.046875 177.210938 179.359375 177.171875 179.667969 177.117188 C 179.980469 177.0625 180.285156 176.984375 180.585938 176.890625 C 180.886719 176.796875 181.183594 176.6875 181.46875 176.554688 C 181.757812 176.425781 182.035156 176.277344 182.304688 176.113281 C 182.570312 175.945312 182.828125 175.765625 183.078125 175.570312 C 183.324219 175.371094 183.554688 175.160156 183.777344 174.933594 C 183.996094 174.707031 184.203125 174.46875 184.394531 174.21875 C 184.582031 173.964844 184.757812 173.703125 184.917969 173.429688 C 185.074219 173.15625 185.214844 172.875 185.339844 172.582031 C 185.460938 172.292969 185.566406 171.996094 185.652344 171.691406 C 185.742188 171.386719 185.808594 171.078125 185.855469 170.765625 C 185.90625 170.453125 185.933594 170.140625 185.945312 169.824219 C 185.953125 169.507812 185.941406 169.191406 185.914062 168.875 C 185.882812 168.5625 185.835938 168.25 185.769531 167.941406 C 185.699219 167.632812 185.613281 167.328125 185.507812 167.03125 C 185.402344 166.734375 185.277344 166.445312 185.136719 166.160156 C 184.996094 165.878906 184.835938 165.605469 184.664062 165.34375 C 184.488281 165.078125 184.296875 164.828125 184.089844 164.589844 C 183.882812 164.351562 183.664062 164.125 183.429688 163.914062 C 183.195312 163.703125 182.949219 163.503906 182.691406 163.324219 Z M 182.691406 163.324219 " fill-opacity="0.7765" fill-rule="evenodd"/><path fill="#56ba48" d="M 192.175781 174.828125 C 191.757812 174.828125 191.34375 174.789062 190.929688 174.707031 C 190.519531 174.625 190.121094 174.503906 189.730469 174.34375 C 189.34375 174.179688 188.976562 173.984375 188.625 173.75 C 188.277344 173.515625 187.953125 173.25 187.65625 172.953125 C 187.363281 172.65625 187.097656 172.332031 186.863281 171.984375 C 186.628906 171.632812 186.433594 171.265625 186.273438 170.875 C 186.113281 170.488281 185.992188 170.085938 185.910156 169.671875 C 185.828125 169.261719 185.785156 168.84375 185.785156 168.421875 C 185.785156 168.003906 185.828125 167.585938 185.90625 167.171875 C 185.988281 166.761719 186.109375 166.359375 186.269531 165.96875 C 186.433594 165.582031 186.628906 165.210938 186.863281 164.863281 C 187.09375 164.511719 187.359375 164.1875 187.65625 163.890625 C 187.953125 163.59375 188.277344 163.328125 188.625 163.09375 C 188.972656 162.859375 189.339844 162.664062 189.730469 162.5 C 190.117188 162.339844 190.515625 162.21875 190.929688 162.136719 C 191.339844 162.054688 191.753906 162.015625 192.175781 162.015625 C 192.59375 162.015625 193.011719 162.054688 193.421875 162.136719 C 193.832031 162.21875 194.234375 162.339844 194.621094 162.5 C 195.007812 162.664062 195.375 162.859375 195.726562 163.09375 C 196.074219 163.328125 196.398438 163.59375 196.695312 163.890625 C 196.988281 164.1875 197.253906 164.511719 197.488281 164.863281 C 197.722656 165.210938 197.917969 165.582031 198.078125 165.96875 C 198.238281 166.359375 198.359375 166.757812 198.441406 167.171875 C 198.523438 167.585938 198.566406 168 198.566406 168.421875 C 198.566406 168.84375 198.523438 169.257812 198.441406 169.671875 C 198.359375 170.082031 198.238281 170.484375 198.074219 170.871094 C 197.914062 171.257812 197.71875 171.628906 197.484375 171.976562 C 197.253906 172.328125 196.988281 172.652344 196.691406 172.949219 C 196.394531 173.246094 196.070312 173.511719 195.722656 173.746094 C 195.375 173.980469 195.007812 174.175781 194.621094 174.335938 C 194.234375 174.5 193.832031 174.621094 193.421875 174.703125 C 193.011719 174.785156 192.597656 174.828125 192.175781 174.828125 Z M 192.175781 174.828125 " fill-opacity="0.7765" fill-rule="evenodd"/></svg>