<svg xmlns="http://www.w3.org/2000/svg" xmlns:xlink="http://www.w3.org/1999/xlink" width="500" zoomAndPan="magnify" viewBox="0 0 375 374.999991" height="500" preserveAspectRatio="xMidYMid meet" version="1.0"><defs><clipPath id="9c81694553"><path d="M 32.046875 108 L 194 108 L 194 282 L 32.046875 282 Z M 32.046875 108 " clip-rule="nonzero"/></clipPath><clipPath id="65eebb3d3c"><path d="M 305 66 L 342.945312 66 L 342.945312 104 L 305 104 Z M 305 66 " clip-rule="nonzero"/></clipPath></defs><rect x="-37.5" width="450" fill="#ffffff" y="-37.499999" height="449.999989" fill-opacity="1"/><rect x="-37.5" width="450" fill="#ffffff" y="-37.499999" height="449.999989" fill-opacity="1"/><rect x="-37.5" width="450" fill="#f6f6f6" y="-37.499999" height="449.999989" fill-opacity="1"/><path fill="#f9ed32" d="M 179.539062 51.710938 C 178.871094 51.710938 178.207031 51.679688 177.542969 51.613281 C 176.878906 51.546875 176.21875 51.449219 175.566406 51.320312 C 174.910156 51.191406 174.265625 51.027344 173.625 50.835938 C 172.988281 50.640625 172.363281 50.417969 171.746094 50.164062 C 171.128906 49.90625 170.527344 49.625 169.9375 49.308594 C 169.351562 48.996094 168.777344 48.652344 168.226562 48.285156 C 167.671875 47.914062 167.136719 47.519531 166.621094 47.09375 C 166.105469 46.671875 165.609375 46.226562 165.136719 45.753906 C 164.667969 45.285156 164.21875 44.792969 163.796875 44.277344 C 163.371094 43.761719 162.976562 43.226562 162.605469 42.675781 C 162.234375 42.121094 161.890625 41.550781 161.578125 40.960938 C 161.261719 40.375 160.976562 39.773438 160.722656 39.160156 C 160.464844 38.542969 160.242188 37.917969 160.046875 37.28125 C 159.855469 36.640625 159.691406 35.996094 159.5625 35.34375 C 159.429688 34.691406 159.332031 34.03125 159.265625 33.371094 C 159.199219 32.707031 159.167969 32.042969 159.167969 31.375 C 159.167969 30.710938 159.199219 30.046875 159.265625 29.382812 C 159.328125 28.71875 159.425781 28.0625 159.554688 27.40625 C 159.683594 26.753906 159.847656 26.109375 160.039062 25.472656 C 160.234375 24.832031 160.457031 24.207031 160.710938 23.589844 C 160.964844 22.976562 161.25 22.375 161.566406 21.785156 C 161.878906 21.199219 162.21875 20.628906 162.589844 20.074219 C 162.960938 19.519531 163.355469 18.984375 163.777344 18.46875 C 164.203125 17.953125 164.648438 17.460938 165.121094 16.988281 C 165.589844 16.519531 166.085938 16.070312 166.597656 15.648438 C 167.113281 15.222656 167.648438 14.828125 168.203125 14.457031 C 168.757812 14.085938 169.328125 13.742188 169.914062 13.429688 C 170.503906 13.113281 171.105469 12.828125 171.722656 12.574219 C 172.335938 12.316406 172.964844 12.09375 173.601562 11.898438 C 174.238281 11.703125 174.886719 11.542969 175.539062 11.410156 C 176.195312 11.28125 176.851562 11.183594 177.515625 11.117188 C 178.179688 11.050781 178.84375 11.015625 179.511719 11.015625 C 180.179688 11.015625 180.84375 11.046875 181.507812 11.109375 C 182.171875 11.175781 182.832031 11.273438 183.484375 11.402344 C 184.140625 11.53125 184.785156 11.691406 185.421875 11.882812 C 186.0625 12.074219 186.691406 12.300781 187.304688 12.554688 C 187.921875 12.808594 188.523438 13.089844 189.113281 13.402344 C 189.703125 13.71875 190.273438 14.058594 190.828125 14.425781 C 191.382812 14.796875 191.921875 15.191406 192.4375 15.613281 C 192.953125 16.035156 193.445312 16.480469 193.917969 16.953125 C 194.390625 17.421875 194.839844 17.914062 195.261719 18.429688 C 195.6875 18.941406 196.085938 19.476562 196.457031 20.03125 C 196.828125 20.582031 197.171875 21.152344 197.488281 21.742188 C 197.800781 22.328125 198.085938 22.929688 198.34375 23.542969 C 198.601562 24.160156 198.824219 24.785156 199.019531 25.421875 C 199.214844 26.058594 199.378906 26.703125 199.507812 27.355469 C 199.640625 28.011719 199.738281 28.667969 199.804688 29.332031 C 199.875 29.992188 199.90625 30.65625 199.910156 31.324219 C 199.910156 31.992188 199.875 32.65625 199.808594 33.320312 C 199.746094 33.984375 199.648438 34.640625 199.515625 35.296875 C 199.386719 35.949219 199.226562 36.597656 199.03125 37.234375 C 198.839844 37.875 198.613281 38.5 198.359375 39.117188 C 198.101562 39.734375 197.820312 40.335938 197.503906 40.921875 C 197.191406 41.511719 196.847656 42.082031 196.476562 42.636719 C 196.105469 43.191406 195.710938 43.726562 195.285156 44.242188 C 194.863281 44.757812 194.414062 45.253906 193.945312 45.726562 C 193.472656 46.199219 192.980469 46.644531 192.464844 47.070312 C 191.949219 47.492188 191.414062 47.890625 190.859375 48.261719 C 190.304688 48.632812 189.730469 48.976562 189.144531 49.289062 C 188.554688 49.605469 187.953125 49.890625 187.335938 50.148438 C 186.71875 50.402344 186.09375 50.628906 185.453125 50.824219 C 184.816406 51.019531 184.167969 51.179688 183.515625 51.3125 C 182.859375 51.445312 182.199219 51.542969 181.535156 51.609375 C 180.871094 51.675781 180.207031 51.710938 179.539062 51.710938 Z M 179.539062 51.710938 " fill-opacity="0.7765" fill-rule="evenodd"/><path fill="#662d91" d="M 80.859375 67.398438 C 78.105469 70.589844 75.578125 73.949219 73.28125 77.484375 C 70.984375 81.015625 68.933594 84.6875 67.132812 88.496094 C 65.332031 92.308594 63.796875 96.21875 62.527344 100.238281 C 61.257812 104.253906 60.265625 108.339844 59.550781 112.492188 C 55.421875 136.613281 61.71875 158.941406 57.300781 173.953125 C 56.265625 177.316406 54.882812 180.53125 53.144531 183.597656 C 54.179688 184.199219 55.226562 184.769531 56.292969 185.308594 C 57.355469 185.847656 58.433594 186.355469 59.53125 186.835938 C 60.625 187.3125 61.730469 187.757812 62.851562 188.175781 C 63.96875 188.589844 65.101562 188.972656 66.242188 189.320312 C 67.382812 189.671875 68.535156 189.988281 69.695312 190.273438 C 70.851562 190.558594 72.019531 190.808594 73.195312 191.023438 C 74.367188 191.242188 75.546875 191.425781 76.730469 191.574219 C 77.917969 191.726562 79.105469 191.839844 80.296875 191.921875 C 81.488281 192.003906 82.679688 192.050781 83.875 192.0625 C 85.070312 192.078125 86.261719 192.054688 87.453125 192 C 88.648438 191.945312 89.835938 191.855469 91.027344 191.734375 C 92.214844 191.609375 93.394531 191.453125 94.574219 191.261719 C 95.753906 191.070312 96.925781 190.847656 98.09375 190.589844 C 99.257812 190.328125 100.414062 190.039062 101.5625 189.714844 C 102.714844 189.390625 103.851562 189.03125 104.980469 188.640625 C 106.109375 188.253906 107.226562 187.832031 108.328125 187.378906 C 109.433594 186.921875 110.523438 186.4375 111.601562 185.921875 C 112.675781 185.40625 113.738281 184.859375 114.785156 184.28125 C 115.828125 183.707031 116.855469 183.097656 117.867188 182.464844 C 118.875 181.828125 119.867188 181.164062 120.839844 180.46875 C 121.8125 179.777344 122.761719 179.058594 123.695312 178.308594 C 124.625 177.5625 125.535156 176.789062 126.421875 175.992188 C 127.304688 175.191406 128.167969 174.367188 129.007812 173.519531 C 129.847656 172.671875 130.660156 171.796875 131.449219 170.902344 C 132.238281 170.007812 133 169.089844 133.738281 168.152344 C 134.472656 167.210938 135.183594 166.253906 135.863281 165.273438 C 136.546875 164.292969 137.199219 163.296875 137.824219 162.277344 C 138.445312 161.261719 139.039062 160.226562 139.605469 159.175781 C 140.167969 158.125 140.703125 157.058594 141.207031 155.976562 C 141.710938 154.894531 142.183594 153.800781 142.621094 152.691406 C 143.0625 151.582031 143.472656 150.464844 143.847656 149.332031 C 144.222656 148.199219 144.566406 147.058594 144.878906 145.90625 C 145.1875 144.753906 145.464844 143.59375 145.710938 142.425781 C 145.953125 141.257812 146.164062 140.085938 146.339844 138.90625 C 146.515625 137.726562 146.660156 136.542969 146.769531 135.355469 C 146.875 134.167969 146.949219 132.976562 146.992188 131.785156 C 147.03125 130.59375 147.039062 129.402344 147.007812 128.207031 C 146.980469 127.015625 146.917969 125.824219 146.820312 124.636719 C 146.726562 123.445312 146.59375 122.261719 146.429688 121.082031 C 146.265625 119.898438 146.066406 118.722656 145.835938 117.554688 C 145.601562 116.382812 145.335938 115.222656 145.039062 114.066406 C 144.738281 112.910156 144.40625 111.765625 144.042969 110.628906 C 143.679688 109.496094 143.28125 108.371094 142.851562 107.257812 C 142.421875 106.144531 141.960938 105.042969 141.46875 103.957031 C 140.976562 102.871094 140.453125 101.800781 139.902344 100.742188 C 139.347656 99.6875 138.761719 98.644531 138.148438 97.621094 C 137.535156 96.601562 136.894531 95.59375 136.222656 94.609375 C 135.550781 93.621094 134.851562 92.65625 134.125 91.710938 C 133.398438 90.761719 132.644531 89.839844 131.863281 88.933594 C 131.085938 88.03125 130.28125 87.152344 129.449219 86.292969 C 128.617188 85.4375 127.765625 84.605469 126.886719 83.796875 C 126.007812 82.988281 125.109375 82.207031 124.183594 81.449219 C 123.261719 80.691406 122.316406 79.964844 121.351562 79.261719 C 120.386719 78.558594 119.402344 77.882812 118.398438 77.238281 C 117.394531 76.59375 116.375 75.976562 115.335938 75.386719 C 114.296875 74.800781 113.238281 74.242188 112.167969 73.714844 C 111.097656 73.1875 110.011719 72.691406 108.914062 72.226562 C 107.8125 71.761719 106.699219 71.332031 105.574219 70.929688 C 104.453125 70.527344 103.316406 70.160156 102.171875 69.824219 C 101.023438 69.488281 99.871094 69.183594 98.707031 68.914062 C 97.542969 68.644531 96.375 68.40625 95.199219 68.203125 C 94.019531 68 92.839844 67.832031 91.652344 67.695312 C 90.46875 67.5625 89.277344 67.460938 88.085938 67.394531 C 86.894531 67.324219 85.699219 67.292969 84.503906 67.292969 C 83.328125 67.292969 82.089844 67.332031 80.859375 67.398438 Z M 80.859375 67.398438 " fill-opacity="0.7765" fill-rule="evenodd"/><g clip-path="url(#9c81694553)"><path fill="#92278f" d="M 58.332031 123.101562 C 57.027344 143.085938 61.066406 161.175781 57.300781 174.003906 C 50.859375 195.917969 22.308594 215.769531 35.652344 227.046875 C 39.871094 230.425781 47.136719 230.648438 51.394531 233.964844 C 58.175781 239.25 53.539062 244.964844 52.9375 249.089844 C 52.648438 251.046875 54.425781 254.195312 60.292969 258.019531 C 55.863281 261.28125 56.269531 264.046875 57.851562 266.59375 C 60.007812 268.070312 62.230469 269.449219 64.515625 270.726562 C 66.796875 272.003906 69.132812 273.175781 71.523438 274.242188 C 73.914062 275.308594 76.347656 276.265625 78.824219 277.113281 C 81.300781 277.960938 83.808594 278.695312 86.351562 279.316406 C 88.894531 279.9375 91.460938 280.441406 94.046875 280.828125 C 96.636719 281.21875 99.238281 281.488281 101.851562 281.640625 C 104.464844 281.796875 107.078125 281.832031 109.695312 281.75 C 112.308594 281.667969 114.917969 281.46875 117.515625 281.148438 C 120.113281 280.832031 122.691406 280.398438 125.25 279.847656 C 127.808594 279.296875 130.339844 278.632812 132.835938 277.851562 C 135.335938 277.074219 137.792969 276.183594 140.210938 275.183594 C 142.628906 274.183594 144.996094 273.074219 147.316406 271.859375 C 149.632812 270.644531 151.890625 269.328125 154.089844 267.910156 C 156.289062 266.488281 158.417969 264.976562 160.480469 263.363281 C 162.542969 261.753906 164.527344 260.050781 166.433594 258.261719 C 168.339844 256.472656 170.164062 254.597656 171.902344 252.644531 C 173.640625 250.6875 175.285156 248.660156 176.839844 246.554688 C 178.394531 244.453125 179.851562 242.28125 181.207031 240.046875 C 182.566406 237.8125 183.820312 235.519531 184.972656 233.171875 C 186.121094 230.824219 187.164062 228.429688 188.097656 225.984375 C 189.03125 223.542969 189.851562 221.0625 190.5625 218.546875 C 191.273438 216.03125 191.867188 213.488281 192.34375 210.917969 C 192.824219 208.347656 193.1875 205.761719 193.429688 203.15625 C 193.675781 200.554688 193.800781 197.945312 193.8125 195.332031 C 193.820312 192.714844 193.710938 190.105469 193.484375 187.5 C 193.257812 184.898438 192.910156 182.308594 192.449219 179.734375 C 191.988281 177.160156 191.410156 174.613281 190.71875 172.09375 C 190.027344 169.570312 189.222656 167.085938 188.304688 164.636719 C 187.386719 162.1875 186.363281 159.785156 185.226562 157.429688 C 184.09375 155.074219 182.851562 152.773438 181.511719 150.53125 C 180.167969 148.285156 178.726562 146.105469 177.1875 143.992188 C 175.644531 141.878906 174.011719 139.835938 172.289062 137.871094 C 170.5625 135.90625 168.753906 134.019531 166.859375 132.214844 C 164.960938 130.414062 162.988281 128.699219 160.9375 127.074219 C 158.886719 125.449219 156.769531 123.921875 154.578125 122.488281 C 152.390625 121.054688 150.140625 119.722656 147.832031 118.492188 C 145.523438 117.261719 143.164062 116.136719 140.75 115.121094 C 138.339844 114.101562 135.886719 113.195312 133.394531 112.398438 C 130.902344 111.605469 128.375 110.921875 125.820312 110.355469 C 123.265625 109.785156 120.691406 109.335938 118.09375 109 C 115.5 108.664062 112.894531 108.449219 110.277344 108.347656 C 107.664062 108.246094 105.046875 108.265625 102.433594 108.402344 C 99.820312 108.539062 97.21875 108.792969 94.625 109.164062 C 92.035156 109.535156 89.46875 110.023438 86.921875 110.625 C 84.375 111.226562 81.859375 111.945312 79.378906 112.773438 C 76.894531 113.605469 74.457031 114.546875 72.058594 115.597656 C 69.660156 116.648438 67.316406 117.804688 65.023438 119.066406 C 62.734375 120.328125 60.503906 121.691406 58.332031 123.15625 Z M 58.332031 123.101562 " fill-opacity="0.7765" fill-rule="evenodd"/></g><path fill="#007fc6" d="M 76.925781 314.804688 C 109.921875 328.222656 154.085938 283.222656 160.03125 375 C 181.480469 360.929688 204.210938 349.375 228.222656 340.335938 C 229.210938 338.882812 230.15625 337.398438 231.050781 335.886719 C 231.949219 334.375 232.796875 332.835938 233.597656 331.269531 C 234.398438 329.707031 235.148438 328.117188 235.847656 326.503906 C 236.546875 324.894531 237.199219 323.261719 237.796875 321.609375 C 238.394531 319.957031 238.941406 318.285156 239.433594 316.597656 C 239.929688 314.914062 240.371094 313.210938 240.757812 311.496094 C 241.144531 309.785156 241.476562 308.058594 241.757812 306.324219 C 242.035156 304.589844 242.261719 302.847656 242.433594 301.097656 C 242.601562 299.347656 242.71875 297.597656 242.777344 295.839844 C 242.839844 294.082031 242.84375 292.328125 242.796875 290.570312 C 242.746094 288.8125 242.640625 287.058594 242.484375 285.308594 C 242.324219 283.558594 242.109375 281.816406 241.84375 280.078125 C 241.574219 278.34375 241.25 276.617188 240.875 274.898438 C 240.5 273.183594 240.070312 271.480469 239.585938 269.789062 C 239.101562 268.101562 238.566406 266.425781 237.980469 264.769531 C 237.390625 263.113281 236.753906 261.476562 236.0625 259.859375 C 235.371094 258.246094 234.632812 256.652344 233.84375 255.082031 C 233.054688 253.511719 232.214844 251.964844 231.328125 250.449219 C 230.441406 248.929688 229.507812 247.441406 228.527344 245.980469 C 227.546875 244.523438 226.523438 243.09375 225.453125 241.699219 C 224.386719 240.304688 223.273438 238.941406 222.117188 237.617188 C 220.964844 236.289062 219.769531 235.003906 218.535156 233.75 C 217.300781 232.5 216.027344 231.289062 214.714844 230.117188 C 213.402344 228.945312 212.058594 227.8125 210.675781 226.726562 C 209.292969 225.636719 207.878906 224.59375 206.433594 223.59375 C 204.984375 222.59375 203.507812 221.640625 202.003906 220.734375 C 200.496094 219.828125 198.960938 218.96875 197.402344 218.15625 C 195.839844 217.34375 194.257812 216.582031 192.648438 215.871094 C 191.039062 215.160156 189.410156 214.496094 187.761719 213.886719 C 186.109375 213.277344 184.445312 212.71875 182.757812 212.210938 C 181.074219 211.703125 179.375 211.25 177.664062 210.851562 C 175.949219 210.449219 174.226562 210.101562 172.492188 209.808594 C 170.753906 209.515625 169.011719 209.277344 167.265625 209.09375 C 165.515625 208.910156 163.761719 208.78125 162.003906 208.707031 C 160.246094 208.632812 158.488281 208.613281 156.726562 208.648438 C 154.96875 208.683594 153.210938 208.777344 151.460938 208.921875 C 149.707031 209.066406 147.957031 209.265625 146.21875 209.519531 C 144.476562 209.773438 142.746094 210.082031 141.023438 210.445312 C 139.304688 210.808594 137.59375 211.222656 135.898438 211.691406 C 134.203125 212.164062 132.523438 212.683594 130.863281 213.257812 C 129.199219 213.832031 127.554688 214.457031 125.933594 215.132812 C 124.308594 215.8125 122.707031 216.539062 121.128906 217.316406 C 119.550781 218.089844 118 218.917969 116.472656 219.789062 C 114.945312 220.664062 113.449219 221.585938 111.980469 222.550781 C 110.511719 223.519531 109.074219 224.53125 107.667969 225.589844 C 106.261719 226.644531 104.890625 227.746094 103.554688 228.886719 C 102.21875 230.03125 100.917969 231.214844 99.65625 232.4375 C 98.394531 233.664062 97.171875 234.925781 95.988281 236.226562 C 94.804688 237.523438 93.660156 238.859375 92.5625 240.234375 C 91.460938 241.605469 90.40625 243.007812 89.394531 244.445312 C 88.382812 245.882812 87.417969 247.351562 86.496094 248.851562 C 85.574219 250.347656 84.703125 251.875 83.878906 253.425781 C 83.054688 254.976562 82.28125 256.554688 81.554688 258.15625 C 80.828125 259.757812 80.152344 261.378906 79.527344 263.019531 C 78.90625 264.664062 78.332031 266.324219 77.8125 268.003906 C 77.292969 269.683594 76.824219 271.375 76.410156 273.085938 C 75.996094 274.792969 75.636719 276.511719 75.328125 278.242188 C 75.023438 279.972656 74.769531 281.710938 74.570312 283.457031 C 74.375 285.203125 74.230469 286.953125 74.144531 288.707031 C 74.054688 290.464844 74.023438 292.21875 74.042969 293.976562 C 74.066406 295.734375 74.140625 297.488281 74.273438 299.242188 C 74.40625 300.996094 74.59375 302.742188 74.832031 304.480469 C 75.074219 306.222656 75.367188 307.953125 75.71875 309.675781 C 76.066406 311.398438 76.472656 313.109375 76.925781 314.804688 Z M 76.925781 314.804688 " fill-opacity="0.7765" fill-rule="evenodd"/><path fill="#01a6e6" d="M 125.363281 315.277344 C 142.796875 316.007812 156.855469 326.03125 160.03125 375 C 181.359375 361.011719 203.957031 349.503906 227.816406 340.476562 C 227.78125 338.992188 227.6875 337.511719 227.53125 336.03125 C 227.375 334.554688 227.15625 333.085938 226.878906 331.625 C 226.605469 330.167969 226.269531 328.71875 225.875 327.285156 C 225.480469 325.855469 225.027344 324.441406 224.515625 323.042969 C 224.003906 321.648438 223.4375 320.273438 222.816406 318.925781 C 222.195312 317.574219 221.515625 316.253906 220.785156 314.960938 C 220.054688 313.664062 219.273438 312.402344 218.4375 311.171875 C 217.605469 309.941406 216.722656 308.746094 215.792969 307.585938 C 214.859375 306.429688 213.882812 305.308594 212.859375 304.230469 C 211.835938 303.152344 210.769531 302.117188 209.664062 301.125 C 208.554688 300.132812 207.410156 299.1875 206.226562 298.289062 C 205.039062 297.390625 203.820312 296.539062 202.566406 295.742188 C 201.3125 294.941406 200.027344 294.195312 198.710938 293.5 C 197.394531 292.804688 196.054688 292.167969 194.6875 291.582031 C 193.320312 290.996094 191.929688 290.46875 190.519531 289.996094 C 189.109375 289.523438 187.679688 289.109375 186.238281 288.753906 C 184.792969 288.398438 183.335938 288.105469 181.867188 287.867188 C 180.398438 287.628906 178.921875 287.453125 177.4375 287.339844 C 175.957031 287.222656 174.46875 287.167969 172.980469 287.171875 C 171.496094 287.175781 170.007812 287.242188 168.527344 287.367188 C 167.042969 287.492188 165.570312 287.679688 164.101562 287.925781 C 162.636719 288.171875 161.179688 288.476562 159.738281 288.84375 C 158.296875 289.207031 156.871094 289.628906 155.464844 290.113281 C 154.054688 290.59375 152.671875 291.128906 151.308594 291.726562 C 149.945312 292.320312 148.605469 292.96875 147.296875 293.671875 C 145.984375 294.375 144.707031 295.128906 143.457031 295.9375 C 142.207031 296.746094 140.992188 297.601562 139.816406 298.507812 C 138.636719 299.414062 137.496094 300.367188 136.394531 301.367188 C 135.292969 302.367188 134.234375 303.410156 133.21875 304.496094 C 132.203125 305.582031 131.234375 306.707031 130.308594 307.871094 C 129.386719 309.035156 128.511719 310.234375 127.6875 311.472656 C 126.859375 312.707031 126.085938 313.976562 125.363281 315.277344 Z M 125.363281 315.277344 " fill-opacity="0.7765" fill-rule="evenodd"/><path fill="#2063b2" d="M 45.644531 231.15625 C 47.714844 231.757812 49.632812 232.675781 51.394531 233.910156 C 58.175781 239.199219 53.539062 244.914062 52.9375 249.039062 C 52.648438 250.996094 54.425781 254.140625 60.292969 257.964844 C 53.511719 262.964844 58.074219 266.789062 60.804688 270.46875 C 73.492188 279.605469 55.839844 299.40625 76.769531 314.753906 C 97.898438 323.445312 123.585938 308.109375 140.941406 319.882812 C 141.214844 318.300781 141.441406 316.710938 141.617188 315.113281 C 141.792969 313.515625 141.917969 311.914062 141.996094 310.308594 C 142.074219 308.703125 142.101562 307.097656 142.078125 305.488281 C 142.054688 303.882812 141.980469 302.277344 141.859375 300.675781 C 141.738281 299.074219 141.566406 297.476562 141.34375 295.882812 C 141.121094 294.292969 140.851562 292.707031 140.53125 291.132812 C 140.210938 289.558594 139.84375 287.996094 139.425781 286.441406 C 139.007812 284.890625 138.542969 283.351562 138.03125 281.832031 C 137.515625 280.308594 136.957031 278.800781 136.351562 277.3125 C 135.746094 275.824219 135.09375 274.355469 134.398438 272.90625 C 133.699219 271.457031 132.957031 270.03125 132.171875 268.628906 C 131.386719 267.226562 130.558594 265.851562 129.6875 264.5 C 128.816406 263.148438 127.902344 261.828125 126.949219 260.53125 C 125.996094 259.238281 125.003906 257.972656 123.96875 256.742188 C 122.9375 255.507812 121.871094 254.308594 120.761719 253.140625 C 119.65625 251.976562 118.515625 250.84375 117.339844 249.746094 C 116.160156 248.652344 114.953125 247.59375 113.710938 246.574219 C 112.464844 245.550781 111.195312 244.570312 109.890625 243.628906 C 108.585938 242.6875 107.253906 241.785156 105.894531 240.925781 C 104.535156 240.066406 103.152344 239.25 101.742188 238.476562 C 100.332031 237.699219 98.898438 236.972656 97.445312 236.285156 C 95.988281 235.601562 94.511719 234.960938 93.019531 234.367188 C 91.523438 233.773438 90.011719 233.226562 88.480469 232.726562 C 86.953125 232.226562 85.410156 231.777344 83.851562 231.371094 C 82.296875 230.96875 80.726562 230.613281 79.148438 230.304688 C 77.570312 229.996094 75.980469 229.738281 74.386719 229.53125 C 72.789062 229.320312 71.191406 229.164062 69.585938 229.050781 C 67.980469 228.941406 66.375 228.882812 64.765625 228.871094 C 63.15625 228.863281 61.546875 228.902344 59.941406 228.992188 C 58.335938 229.082031 56.734375 229.21875 55.136719 229.410156 C 53.539062 229.597656 51.945312 229.835938 50.363281 230.125 C 48.78125 230.410156 47.207031 230.746094 45.644531 231.132812 Z M 45.644531 231.15625 " fill-opacity="0.7765" fill-rule="evenodd"/><path fill="#12bcbc" d="M 291.007812 232.136719 C 290.019531 232.136719 289.03125 232.089844 288.050781 231.992188 C 287.066406 231.894531 286.089844 231.753906 285.121094 231.558594 C 284.152344 231.367188 283.191406 231.128906 282.246094 230.84375 C 281.300781 230.554688 280.371094 230.222656 279.457031 229.847656 C 278.546875 229.46875 277.652344 229.046875 276.78125 228.582031 C 275.910156 228.117188 275.0625 227.613281 274.242188 227.0625 C 273.417969 226.515625 272.625 225.929688 271.863281 225.300781 C 271.097656 224.675781 270.367188 224.015625 269.667969 223.316406 C 268.96875 222.617188 268.304688 221.886719 267.675781 221.125 C 267.050781 220.363281 266.460938 219.570312 265.914062 218.75 C 265.363281 217.929688 264.855469 217.082031 264.390625 216.210938 C 263.921875 215.34375 263.5 214.449219 263.121094 213.539062 C 262.746094 212.628906 262.410156 211.699219 262.125 210.753906 C 261.835938 209.808594 261.597656 208.851562 261.40625 207.886719 C 261.210938 206.917969 261.066406 205.941406 260.96875 204.960938 C 260.871094 203.976562 260.824219 202.992188 260.824219 202.003906 C 260.824219 201.015625 260.871094 200.03125 260.96875 199.050781 C 261.066406 198.066406 261.210938 197.09375 261.402344 196.125 C 261.597656 195.15625 261.835938 194.199219 262.121094 193.253906 C 262.410156 192.308594 262.742188 191.382812 263.121094 190.46875 C 263.496094 189.558594 263.917969 188.667969 264.386719 187.796875 C 264.851562 186.925781 265.359375 186.078125 265.90625 185.257812 C 266.457031 184.4375 267.046875 183.644531 267.671875 182.882812 C 268.300781 182.121094 268.960938 181.390625 269.660156 180.691406 C 270.359375 179.992188 271.089844 179.332031 271.855469 178.703125 C 272.617188 178.078125 273.410156 177.492188 274.234375 176.941406 C 275.054688 176.394531 275.902344 175.886719 276.773438 175.421875 C 277.644531 174.957031 278.539062 174.535156 279.449219 174.15625 C 280.363281 173.78125 281.292969 173.449219 282.238281 173.160156 C 283.183594 172.875 284.140625 172.636719 285.113281 172.441406 C 286.082031 172.25 287.058594 172.105469 288.039062 172.007812 C 289.023438 171.914062 290.011719 171.863281 291 171.863281 C 291.988281 171.863281 292.972656 171.914062 293.957031 172.007812 C 294.941406 172.105469 295.917969 172.25 296.886719 172.445312 C 297.855469 172.636719 298.8125 172.875 299.757812 173.164062 C 300.703125 173.449219 301.632812 173.78125 302.546875 174.160156 C 303.460938 174.539062 304.351562 174.960938 305.222656 175.425781 C 306.09375 175.890625 306.941406 176.398438 307.761719 176.945312 C 308.582031 177.496094 309.375 178.082031 310.140625 178.710938 C 310.902344 179.335938 311.636719 180 312.335938 180.695312 C 313.03125 181.394531 313.695312 182.125 314.320312 182.890625 C 314.949219 183.652344 315.535156 184.445312 316.085938 185.265625 C 316.632812 186.085938 317.140625 186.933594 317.605469 187.804688 C 318.074219 188.675781 318.496094 189.566406 318.871094 190.476562 C 319.25 191.390625 319.582031 192.320312 319.867188 193.261719 C 320.15625 194.207031 320.394531 195.164062 320.585938 196.132812 C 320.78125 197.101562 320.925781 198.078125 321.019531 199.058594 C 321.117188 200.042969 321.164062 201.027344 321.164062 202.011719 C 321.164062 203 321.113281 203.984375 321.011719 204.964844 C 320.914062 205.945312 320.769531 206.917969 320.574219 207.886719 C 320.378906 208.851562 320.140625 209.808594 319.851562 210.75 C 319.5625 211.695312 319.230469 212.621094 318.851562 213.53125 C 318.472656 214.441406 318.050781 215.332031 317.585938 216.199219 C 317.117188 217.070312 316.609375 217.914062 316.0625 218.734375 C 315.511719 219.554688 314.925781 220.34375 314.300781 221.105469 C 313.671875 221.867188 313.011719 222.597656 312.3125 223.292969 C 311.613281 223.992188 310.882812 224.652344 310.121094 225.277344 C 309.359375 225.90625 308.566406 226.492188 307.746094 227.039062 C 306.925781 227.589844 306.082031 228.09375 305.210938 228.5625 C 304.339844 229.027344 303.449219 229.449219 302.539062 229.828125 C 301.625 230.203125 300.699219 230.539062 299.753906 230.824219 C 298.808594 231.113281 297.855469 231.351562 296.886719 231.546875 C 295.917969 231.742188 294.945312 231.886719 293.960938 231.984375 C 292.980469 232.085938 291.996094 232.132812 291.007812 232.136719 Z M 291.007812 232.136719 " fill-opacity="0.7765" fill-rule="evenodd"/><path fill="#00b9f1" d="M 227.816406 274.085938 C 226.917969 274.085938 226.015625 274.046875 225.117188 273.960938 C 224.222656 273.875 223.328125 273.746094 222.445312 273.570312 C 221.558594 273.398438 220.6875 273.179688 219.820312 272.921875 C 218.957031 272.664062 218.109375 272.363281 217.277344 272.019531 C 216.441406 271.675781 215.625 271.292969 214.828125 270.871094 C 214.035156 270.449219 213.261719 269.988281 212.507812 269.492188 C 211.757812 268.992188 211.03125 268.457031 210.335938 267.886719 C 209.636719 267.316406 208.96875 266.714844 208.328125 266.082031 C 207.6875 265.445312 207.082031 264.78125 206.507812 264.085938 C 205.933594 263.390625 205.398438 262.667969 204.894531 261.921875 C 204.390625 261.171875 203.925781 260.402344 203.5 259.609375 C 203.074219 258.816406 202.6875 258.003906 202.339844 257.171875 C 201.992188 256.339844 201.6875 255.492188 201.421875 254.632812 C 201.160156 253.769531 200.9375 252.898438 200.761719 252.015625 C 200.582031 251.132812 200.449219 250.242188 200.359375 249.347656 C 200.269531 248.449219 200.222656 247.550781 200.222656 246.648438 C 200.21875 245.75 200.261719 244.851562 200.347656 243.953125 C 200.4375 243.058594 200.566406 242.167969 200.742188 241.285156 C 200.914062 240.398438 201.132812 239.527344 201.394531 238.664062 C 201.652344 237.800781 201.957031 236.953125 202.300781 236.121094 C 202.644531 235.289062 203.027344 234.476562 203.449219 233.679688 C 203.875 232.882812 204.335938 232.113281 204.835938 231.363281 C 205.335938 230.613281 205.871094 229.890625 206.441406 229.191406 C 207.011719 228.496094 207.617188 227.828125 208.253906 227.191406 C 208.890625 226.550781 209.558594 225.945312 210.253906 225.375 C 210.949219 224.800781 211.671875 224.265625 212.421875 223.761719 C 213.171875 223.261719 213.941406 222.796875 214.738281 222.371094 C 215.53125 221.949219 216.347656 221.5625 217.179688 221.214844 C 218.011719 220.871094 218.859375 220.566406 219.722656 220.304688 C 220.585938 220.042969 221.457031 219.820312 222.34375 219.644531 C 223.226562 219.46875 224.117188 219.335938 225.015625 219.246094 C 225.914062 219.15625 226.8125 219.113281 227.714844 219.109375 C 228.617188 219.109375 229.515625 219.152344 230.414062 219.242188 C 231.308594 219.328125 232.203125 219.460938 233.085938 219.636719 C 233.96875 219.808594 234.84375 220.027344 235.707031 220.289062 C 236.570312 220.550781 237.417969 220.851562 238.253906 221.195312 C 239.085938 221.539062 239.898438 221.925781 240.695312 222.347656 C 241.492188 222.773438 242.265625 223.234375 243.015625 223.734375 C 243.765625 224.234375 244.488281 224.769531 245.1875 225.339844 C 245.882812 225.914062 246.550781 226.515625 247.1875 227.152344 C 247.828125 227.789062 248.433594 228.457031 249.003906 229.152344 C 249.578125 229.847656 250.113281 230.570312 250.613281 231.320312 C 251.117188 232.066406 251.578125 232.839844 252.003906 233.632812 C 252.429688 234.429688 252.816406 235.242188 253.160156 236.074219 C 253.503906 236.90625 253.808594 237.753906 254.070312 238.613281 C 254.332031 239.476562 254.550781 240.347656 254.726562 241.230469 C 254.90625 242.117188 255.035156 243.003906 255.125 243.902344 C 255.214844 244.796875 255.257812 245.695312 255.257812 246.597656 C 255.257812 247.496094 255.210938 248.390625 255.121094 249.285156 C 255.03125 250.179688 254.898438 251.066406 254.722656 251.945312 C 254.546875 252.828125 254.328125 253.699219 254.066406 254.558594 C 253.804688 255.417969 253.5 256.261719 253.15625 257.089844 C 252.8125 257.921875 252.429688 258.730469 252.003906 259.523438 C 251.582031 260.316406 251.121094 261.085938 250.621094 261.832031 C 250.121094 262.578125 249.585938 263.300781 249.015625 263.996094 C 248.449219 264.691406 247.84375 265.355469 247.210938 265.992188 C 246.574219 266.628906 245.910156 267.230469 245.21875 267.800781 C 244.523438 268.371094 243.804688 268.910156 243.054688 269.410156 C 242.308594 269.910156 241.539062 270.371094 240.75 270.796875 C 239.957031 271.222656 239.144531 271.609375 238.316406 271.957031 C 237.488281 272.300781 236.640625 272.605469 235.78125 272.871094 C 234.921875 273.132812 234.054688 273.355469 233.171875 273.535156 C 232.289062 273.714844 231.402344 273.847656 230.507812 273.941406 C 229.613281 274.03125 228.71875 274.082031 227.816406 274.085938 Z M 227.816406 274.085938 " fill-opacity="0.7765" fill-rule="evenodd"/><path fill="#8dc63f" d="M 295.34375 158.800781 C 294.652344 158.800781 293.960938 158.765625 293.273438 158.699219 C 292.582031 158.628906 291.898438 158.527344 291.21875 158.394531 C 290.542969 158.257812 289.871094 158.089844 289.207031 157.890625 C 288.542969 157.6875 287.894531 157.457031 287.253906 157.191406 C 286.613281 156.925781 285.988281 156.632812 285.378906 156.304688 C 284.765625 155.980469 284.175781 155.625 283.597656 155.238281 C 283.023438 154.855469 282.46875 154.445312 281.933594 154.003906 C 281.398438 153.566406 280.882812 153.101562 280.394531 152.613281 C 279.90625 152.125 279.441406 151.613281 279 151.078125 C 278.5625 150.542969 278.148438 149.988281 277.765625 149.410156 C 277.378906 148.835938 277.023438 148.242188 276.699219 147.632812 C 276.371094 147.023438 276.078125 146.398438 275.8125 145.761719 C 275.546875 145.121094 275.3125 144.46875 275.113281 143.808594 C 274.914062 143.148438 274.746094 142.476562 274.609375 141.796875 C 274.472656 141.121094 274.375 140.4375 274.304688 139.746094 C 274.238281 139.058594 274.203125 138.371094 274.203125 137.675781 C 274.203125 136.984375 274.238281 136.296875 274.304688 135.605469 C 274.375 134.917969 274.476562 134.234375 274.609375 133.558594 C 274.746094 132.878906 274.914062 132.207031 275.117188 131.546875 C 275.316406 130.886719 275.550781 130.234375 275.816406 129.59375 C 276.082031 128.957031 276.375 128.332031 276.703125 127.722656 C 277.03125 127.113281 277.386719 126.519531 277.769531 125.945312 C 278.15625 125.371094 278.566406 124.816406 279.007812 124.28125 C 279.445312 123.746094 279.910156 123.234375 280.402344 122.746094 C 280.890625 122.257812 281.402344 121.792969 281.9375 121.351562 C 282.472656 120.914062 283.03125 120.503906 283.605469 120.121094 C 284.183594 119.734375 284.773438 119.378906 285.386719 119.054688 C 285.996094 118.726562 286.621094 118.433594 287.261719 118.167969 C 287.902344 117.90625 288.554688 117.671875 289.214844 117.472656 C 289.878906 117.269531 290.550781 117.101562 291.230469 116.96875 C 291.90625 116.832031 292.59375 116.734375 293.28125 116.664062 C 293.972656 116.597656 294.660156 116.5625 295.355469 116.5625 C 296.046875 116.566406 296.738281 116.597656 297.425781 116.667969 C 298.117188 116.734375 298.800781 116.835938 299.480469 116.972656 C 300.15625 117.105469 300.828125 117.273438 301.492188 117.476562 C 302.152344 117.675781 302.804688 117.910156 303.445312 118.175781 C 304.085938 118.441406 304.710938 118.734375 305.320312 119.0625 C 305.929688 119.390625 306.523438 119.746094 307.097656 120.128906 C 307.675781 120.511719 308.230469 120.925781 308.765625 121.363281 C 309.300781 121.804688 309.8125 122.269531 310.300781 122.757812 C 310.792969 123.246094 311.257812 123.757812 311.695312 124.292969 C 312.132812 124.828125 312.546875 125.382812 312.929688 125.960938 C 313.316406 126.535156 313.667969 127.128906 313.996094 127.738281 C 314.320312 128.347656 314.617188 128.972656 314.882812 129.613281 C 315.148438 130.25 315.378906 130.902344 315.578125 131.5625 C 315.78125 132.226562 315.949219 132.894531 316.082031 133.574219 C 316.21875 134.253906 316.320312 134.9375 316.386719 135.625 C 316.453125 136.3125 316.488281 137.003906 316.488281 137.695312 C 316.484375 138.386719 316.449219 139.074219 316.382812 139.761719 C 316.3125 140.449219 316.210938 141.132812 316.074219 141.8125 C 315.9375 142.488281 315.769531 143.15625 315.566406 143.820312 C 315.367188 144.480469 315.132812 145.128906 314.867188 145.769531 C 314.601562 146.40625 314.304688 147.03125 313.980469 147.640625 C 313.652344 148.25 313.296875 148.839844 312.910156 149.414062 C 312.527344 149.988281 312.113281 150.542969 311.675781 151.078125 C 311.234375 151.613281 310.773438 152.121094 310.28125 152.609375 C 309.792969 153.101562 309.28125 153.5625 308.746094 154 C 308.210938 154.441406 307.65625 154.851562 307.082031 155.234375 C 306.503906 155.621094 305.914062 155.972656 305.300781 156.300781 C 304.691406 156.625 304.066406 156.921875 303.429688 157.1875 C 302.789062 157.449219 302.140625 157.683594 301.476562 157.886719 C 300.816406 158.085938 300.144531 158.253906 299.464844 158.390625 C 298.789062 158.523438 298.105469 158.628906 297.414062 158.695312 C 296.726562 158.765625 296.039062 158.796875 295.34375 158.800781 Z M 295.34375 158.800781 " fill-opacity="0.7765" fill-rule="evenodd"/><g clip-path="url(#65eebb3d3c)"><path fill="#ffd900" d="M 305.890625 85.214844 C 305.890625 85.8125 305.917969 86.410156 305.976562 87.007812 C 306.035156 87.601562 306.125 88.195312 306.242188 88.78125 C 306.359375 89.367188 306.503906 89.949219 306.679688 90.523438 C 306.851562 91.09375 307.054688 91.660156 307.285156 92.210938 C 307.511719 92.765625 307.769531 93.304688 308.050781 93.832031 C 308.335938 94.363281 308.640625 94.875 308.976562 95.371094 C 309.308594 95.871094 309.664062 96.351562 310.046875 96.8125 C 310.425781 97.277344 310.828125 97.71875 311.25 98.144531 C 311.675781 98.566406 312.121094 98.96875 312.582031 99.347656 C 313.046875 99.730469 313.527344 100.085938 314.027344 100.417969 C 314.523438 100.75 315.039062 101.058594 315.566406 101.339844 C 316.09375 101.621094 316.636719 101.878906 317.191406 102.109375 C 317.746094 102.335938 318.308594 102.539062 318.882812 102.710938 C 319.457031 102.886719 320.035156 103.03125 320.625 103.148438 C 321.210938 103.265625 321.804688 103.351562 322.402344 103.410156 C 323 103.46875 323.597656 103.5 324.195312 103.5 C 324.796875 103.5 325.394531 103.46875 325.992188 103.410156 C 326.585938 103.351562 327.179688 103.265625 327.765625 103.148438 C 328.355469 103.03125 328.9375 102.886719 329.511719 102.710938 C 330.082031 102.539062 330.648438 102.335938 331.203125 102.109375 C 331.753906 101.878906 332.296875 101.621094 332.824219 101.339844 C 333.355469 101.058594 333.867188 100.75 334.367188 100.417969 C 334.863281 100.085938 335.347656 99.730469 335.808594 99.347656 C 336.273438 98.96875 336.714844 98.566406 337.140625 98.144531 C 337.5625 97.71875 337.964844 97.277344 338.347656 96.8125 C 338.726562 96.351562 339.082031 95.871094 339.417969 95.371094 C 339.75 94.875 340.058594 94.363281 340.339844 93.832031 C 340.625 93.304688 340.878906 92.765625 341.109375 92.210938 C 341.339844 91.660156 341.539062 91.09375 341.714844 90.523438 C 341.886719 89.949219 342.035156 89.367188 342.148438 88.78125 C 342.265625 88.195312 342.355469 87.601562 342.414062 87.007812 C 342.472656 86.410156 342.503906 85.8125 342.503906 85.214844 C 342.503906 84.617188 342.472656 84.019531 342.414062 83.421875 C 342.355469 82.824219 342.265625 82.234375 342.148438 81.648438 C 342.035156 81.058594 341.886719 80.480469 341.714844 79.90625 C 341.539062 79.332031 341.339844 78.769531 341.109375 78.214844 C 340.878906 77.664062 340.625 77.121094 340.339844 76.59375 C 340.058594 76.066406 339.75 75.554688 339.417969 75.054688 C 339.082031 74.558594 338.726562 74.078125 338.347656 73.613281 C 337.964844 73.152344 337.5625 72.707031 337.140625 72.285156 C 336.714844 71.859375 336.273438 71.460938 335.808594 71.078125 C 335.347656 70.699219 334.863281 70.34375 334.367188 70.011719 C 333.867188 69.679688 333.355469 69.371094 332.824219 69.089844 C 332.296875 68.804688 331.753906 68.550781 331.203125 68.320312 C 330.648438 68.089844 330.082031 67.890625 329.511719 67.714844 C 328.9375 67.542969 328.355469 67.398438 327.765625 67.28125 C 327.179688 67.164062 326.585938 67.074219 325.992188 67.015625 C 325.394531 66.957031 324.796875 66.929688 324.195312 66.929688 C 323.597656 66.929688 323 66.957031 322.402344 67.015625 C 321.804688 67.074219 321.210938 67.164062 320.625 67.28125 C 320.035156 67.398438 319.457031 67.542969 318.882812 67.714844 C 318.308594 67.890625 317.746094 68.089844 317.191406 68.320312 C 316.636719 68.550781 316.09375 68.804688 315.566406 69.089844 C 315.039062 69.371094 314.523438 69.679688 314.027344 70.011719 C 313.527344 70.34375 313.046875 70.699219 312.582031 71.078125 C 312.121094 71.460938 311.675781 71.859375 311.25 72.285156 C 310.828125 72.707031 310.425781 73.152344 310.046875 73.613281 C 309.664062 74.078125 309.308594 74.558594 308.976562 75.054688 C 308.640625 75.554688 308.335938 76.066406 308.050781 76.59375 C 307.769531 77.121094 307.511719 77.664062 307.285156 78.214844 C 307.054688 78.769531 306.851562 79.332031 306.679688 79.90625 C 306.503906 80.480469 306.359375 81.058594 306.242188 81.648438 C 306.125 82.234375 306.035156 82.824219 305.976562 83.421875 C 305.917969 84.019531 305.890625 84.617188 305.890625 85.214844 Z M 305.890625 85.214844 " fill-opacity="0.7765" fill-rule="nonzero"/></g><path fill="#009444" d="M 285.519531 51.710938 C 284.960938 51.710938 284.402344 51.683594 283.84375 51.628906 C 283.285156 51.574219 282.734375 51.492188 282.183594 51.386719 C 281.636719 51.277344 281.09375 51.140625 280.558594 50.980469 C 280.019531 50.816406 279.496094 50.628906 278.976562 50.414062 C 278.460938 50.203125 277.953125 49.964844 277.460938 49.699219 C 276.964844 49.4375 276.488281 49.148438 276.019531 48.839844 C 275.554688 48.53125 275.105469 48.195312 274.671875 47.84375 C 274.238281 47.488281 273.824219 47.113281 273.429688 46.71875 C 273.03125 46.324219 272.65625 45.910156 272.300781 45.476562 C 271.945312 45.046875 271.613281 44.597656 271.300781 44.132812 C 270.992188 43.667969 270.703125 43.1875 270.4375 42.695312 C 270.175781 42.203125 269.933594 41.699219 269.71875 41.179688 C 269.503906 40.664062 269.316406 40.140625 269.152344 39.605469 C 268.992188 39.070312 268.855469 38.527344 268.746094 37.980469 C 268.636719 37.429688 268.554688 36.878906 268.5 36.320312 C 268.445312 35.765625 268.414062 35.207031 268.414062 34.648438 C 268.414062 34.089844 268.441406 33.53125 268.496094 32.972656 C 268.550781 32.417969 268.632812 31.863281 268.742188 31.316406 C 268.851562 30.769531 268.988281 30.226562 269.148438 29.691406 C 269.3125 29.15625 269.5 28.628906 269.714844 28.113281 C 269.925781 27.597656 270.167969 27.089844 270.429688 26.597656 C 270.695312 26.105469 270.980469 25.625 271.292969 25.160156 C 271.601562 24.695312 271.9375 24.246094 272.289062 23.8125 C 272.644531 23.382812 273.019531 22.96875 273.417969 22.574219 C 273.8125 22.175781 274.226562 21.800781 274.660156 21.445312 C 275.09375 21.089844 275.539062 20.757812 276.007812 20.449219 C 276.472656 20.136719 276.949219 19.851562 277.445312 19.585938 C 277.9375 19.320312 278.445312 19.082031 278.960938 18.867188 C 279.476562 18.65625 280.003906 18.464844 280.539062 18.304688 C 281.074219 18.140625 281.617188 18.003906 282.167969 17.898438 C 282.714844 17.789062 283.269531 17.707031 283.828125 17.648438 C 284.382812 17.59375 284.941406 17.566406 285.503906 17.566406 C 286.0625 17.566406 286.621094 17.59375 287.175781 17.648438 C 287.734375 17.703125 288.289062 17.785156 288.835938 17.894531 C 289.386719 18.003906 289.929688 18.140625 290.464844 18.300781 C 291 18.464844 291.527344 18.652344 292.042969 18.867188 C 292.5625 19.078125 293.066406 19.320312 293.558594 19.582031 C 294.054688 19.84375 294.535156 20.132812 295 20.441406 C 295.464844 20.753906 295.914062 21.085938 296.347656 21.441406 C 296.78125 21.796875 297.195312 22.171875 297.589844 22.566406 C 297.984375 22.960938 298.363281 23.375 298.714844 23.808594 C 299.070312 24.238281 299.40625 24.6875 299.714844 25.152344 C 300.027344 25.617188 300.316406 26.097656 300.578125 26.589844 C 300.84375 27.082031 301.082031 27.589844 301.296875 28.105469 C 301.511719 28.621094 301.699219 29.148438 301.859375 29.683594 C 302.023438 30.21875 302.160156 30.757812 302.269531 31.308594 C 302.378906 31.855469 302.460938 32.410156 302.515625 32.964844 C 302.570312 33.523438 302.597656 34.078125 302.597656 34.640625 C 302.597656 35.199219 302.566406 35.753906 302.511719 36.3125 C 302.457031 36.867188 302.375 37.417969 302.265625 37.964844 C 302.15625 38.515625 302.019531 39.054688 301.855469 39.589844 C 301.695312 40.125 301.503906 40.648438 301.289062 41.164062 C 301.078125 41.679688 300.835938 42.183594 300.574219 42.679688 C 300.308594 43.171875 300.023438 43.648438 299.710938 44.113281 C 299.402344 44.578125 299.066406 45.027344 298.714844 45.457031 C 298.359375 45.890625 297.984375 46.304688 297.589844 46.699219 C 297.191406 47.09375 296.78125 47.46875 296.347656 47.824219 C 295.914062 48.175781 295.46875 48.511719 295.003906 48.820312 C 294.539062 49.132812 294.058594 49.417969 293.566406 49.683594 C 293.074219 49.945312 292.566406 50.1875 292.050781 50.402344 C 291.535156 50.613281 291.011719 50.804688 290.476562 50.964844 C 289.941406 51.128906 289.398438 51.265625 288.851562 51.375 C 288.300781 51.484375 287.75 51.570312 287.191406 51.625 C 286.636719 51.679688 286.078125 51.710938 285.519531 51.710938 Z M 285.519531 51.710938 " fill-opacity="0.7765" fill-rule="evenodd"/><path fill="#56ba48" d="M 279.71875 94.257812 C 278.976562 94.257812 278.242188 94.1875 277.515625 94.042969 C 276.789062 93.898438 276.082031 93.683594 275.398438 93.402344 C 274.710938 93.117188 274.0625 92.769531 273.445312 92.359375 C 272.828125 91.945312 272.257812 91.480469 271.734375 90.957031 C 271.210938 90.433594 270.742188 89.863281 270.332031 89.246094 C 269.917969 88.632812 269.570312 87.980469 269.289062 87.296875 C 269.003906 86.613281 268.789062 85.910156 268.644531 85.183594 C 268.5 84.457031 268.429688 83.722656 268.429688 82.980469 C 268.429688 82.242188 268.5 81.507812 268.644531 80.78125 C 268.789062 80.054688 269.003906 79.351562 269.289062 78.667969 C 269.570312 77.984375 269.917969 77.332031 270.332031 76.71875 C 270.742188 76.101562 271.210938 75.53125 271.734375 75.007812 C 272.257812 74.484375 272.828125 74.015625 273.445312 73.605469 C 274.0625 73.195312 274.710938 72.847656 275.398438 72.5625 C 276.082031 72.28125 276.789062 72.066406 277.515625 71.921875 C 278.242188 71.777344 278.976562 71.707031 279.71875 71.707031 C 280.460938 71.707031 281.195312 71.777344 281.921875 71.921875 C 282.648438 72.066406 283.351562 72.28125 284.039062 72.5625 C 284.722656 72.847656 285.375 73.195312 285.988281 73.605469 C 286.605469 74.015625 287.175781 74.484375 287.699219 75.007812 C 288.226562 75.53125 288.691406 76.101562 289.105469 76.71875 C 289.515625 77.332031 289.863281 77.984375 290.148438 78.667969 C 290.433594 79.351562 290.644531 80.054688 290.789062 80.78125 C 290.933594 81.507812 291.007812 82.242188 291.007812 82.980469 C 291.003906 83.722656 290.933594 84.453125 290.785156 85.179688 C 290.640625 85.90625 290.425781 86.609375 290.140625 87.292969 C 289.855469 87.976562 289.507812 88.625 289.097656 89.242188 C 288.683594 89.855469 288.21875 90.425781 287.691406 90.949219 C 287.167969 91.472656 286.597656 91.9375 285.984375 92.351562 C 285.367188 92.761719 284.71875 93.109375 284.035156 93.394531 C 283.351562 93.675781 282.644531 93.890625 281.917969 94.039062 C 281.191406 94.183594 280.457031 94.257812 279.71875 94.257812 Z M 279.71875 94.257812 " fill-opacity="0.7765" fill-rule="evenodd"/><path fill="#fbad17" d="M 256.171875 22.554688 C 255.429688 22.554688 254.695312 22.480469 253.96875 22.335938 C 253.242188 22.191406 252.535156 21.976562 251.851562 21.695312 C 251.167969 21.410156 250.515625 21.0625 249.898438 20.652344 C 249.285156 20.242188 248.714844 19.773438 248.191406 19.25 C 247.664062 18.726562 247.199219 18.15625 246.785156 17.542969 C 246.375 16.925781 246.027344 16.277344 245.742188 15.59375 C 245.457031 14.90625 245.246094 14.203125 245.101562 13.476562 C 244.957031 12.75 244.882812 12.015625 244.882812 11.277344 C 244.882812 10.535156 244.957031 9.804688 245.101562 9.078125 C 245.246094 8.351562 245.457031 7.644531 245.742188 6.960938 C 246.027344 6.277344 246.375 5.628906 246.785156 5.011719 C 247.199219 4.394531 247.664062 3.828125 248.191406 3.304688 C 248.714844 2.777344 249.285156 2.3125 249.898438 1.902344 C 250.515625 1.488281 251.167969 1.140625 251.851562 0.859375 C 252.535156 0.574219 253.242188 0.359375 253.96875 0.214844 C 254.695312 0.0703125 255.429688 0 256.171875 0 C 256.914062 0 257.648438 0.0703125 258.375 0.214844 C 259.101562 0.359375 259.808594 0.574219 260.492188 0.859375 C 261.175781 1.140625 261.828125 1.488281 262.445312 1.902344 C 263.0625 2.3125 263.632812 2.777344 264.15625 3.304688 C 264.679688 3.828125 265.148438 4.394531 265.558594 5.011719 C 265.972656 5.628906 266.320312 6.277344 266.601562 6.960938 C 266.886719 7.644531 267.101562 8.351562 267.246094 9.078125 C 267.390625 9.804688 267.460938 10.535156 267.460938 11.277344 C 267.460938 12.015625 267.386719 12.75 267.242188 13.476562 C 267.09375 14.199219 266.878906 14.90625 266.59375 15.589844 C 266.3125 16.269531 265.964844 16.921875 265.550781 17.535156 C 265.140625 18.152344 264.671875 18.71875 264.148438 19.242188 C 263.625 19.765625 263.054688 20.234375 262.4375 20.644531 C 261.824219 21.054688 261.171875 21.402344 260.488281 21.6875 C 259.804688 21.972656 259.097656 22.1875 258.371094 22.332031 C 257.648438 22.476562 256.914062 22.550781 256.171875 22.554688 Z M 256.171875 22.554688 " fill-opacity="0.7765" fill-rule="evenodd"/><path fill="#f15c22" d="M 325.515625 47.691406 C 324.957031 47.6875 324.398438 47.632812 323.851562 47.519531 C 323.300781 47.40625 322.769531 47.242188 322.25 47.027344 C 321.734375 46.8125 321.242188 46.546875 320.777344 46.234375 C 320.3125 45.921875 319.882812 45.566406 319.488281 45.167969 C 319.09375 44.769531 318.742188 44.339844 318.433594 43.871094 C 318.121094 43.40625 317.863281 42.914062 317.648438 42.394531 C 317.4375 41.875 317.277344 41.34375 317.167969 40.792969 C 317.0625 40.242188 317.007812 39.6875 317.007812 39.128906 C 317.011719 38.570312 317.066406 38.015625 317.179688 37.464844 C 317.289062 36.917969 317.453125 36.382812 317.667969 35.867188 C 317.882812 35.351562 318.148438 34.859375 318.460938 34.394531 C 318.773438 33.929688 319.128906 33.5 319.527344 33.105469 C 319.921875 32.710938 320.355469 32.359375 320.820312 32.046875 C 321.289062 31.738281 321.78125 31.476562 322.300781 31.261719 C 322.816406 31.050781 323.351562 30.890625 323.902344 30.78125 C 324.453125 30.671875 325.007812 30.617188 325.566406 30.621094 C 326.128906 30.621094 326.683594 30.675781 327.234375 30.785156 C 327.78125 30.894531 328.316406 31.058594 328.835938 31.273438 C 329.351562 31.488281 329.84375 31.75 330.308594 32.0625 C 330.773438 32.375 331.207031 32.726562 331.601562 33.125 C 332 33.519531 332.351562 33.949219 332.664062 34.417969 C 332.972656 34.882812 333.238281 35.375 333.449219 35.890625 C 333.664062 36.410156 333.828125 36.941406 333.9375 37.492188 C 334.046875 38.039062 334.101562 38.59375 334.101562 39.15625 C 334.097656 39.714844 334.042969 40.273438 333.929688 40.824219 C 333.820312 41.375 333.65625 41.90625 333.4375 42.425781 C 333.222656 42.945312 332.957031 43.4375 332.644531 43.902344 C 332.332031 44.371094 331.972656 44.800781 331.574219 45.195312 C 331.175781 45.59375 330.746094 45.945312 330.277344 46.257812 C 329.808594 46.570312 329.3125 46.832031 328.792969 47.046875 C 328.273438 47.257812 327.738281 47.421875 327.1875 47.527344 C 326.636719 47.636719 326.078125 47.691406 325.515625 47.691406 Z M 325.515625 47.691406 " fill-opacity="0.7765" fill-rule="evenodd"/><path fill="#fbad17" d="M 122.386719 134.769531 C 122.386719 135.9375 122.414062 137.105469 122.472656 138.269531 C 122.527344 139.4375 122.613281 140.601562 122.730469 141.761719 C 122.84375 142.925781 122.988281 144.082031 123.160156 145.238281 C 123.328125 146.390625 123.53125 147.542969 123.757812 148.6875 C 123.984375 149.832031 124.242188 150.96875 124.527344 152.101562 C 124.808594 153.234375 125.121094 154.359375 125.460938 155.476562 C 125.800781 156.59375 126.164062 157.703125 126.558594 158.800781 C 126.953125 159.898438 127.375 160.988281 127.820312 162.066406 C 128.269531 163.144531 128.742188 164.210938 129.242188 165.269531 C 129.742188 166.324219 130.265625 167.367188 130.816406 168.394531 C 131.367188 169.425781 131.945312 170.441406 132.542969 171.441406 C 133.144531 172.441406 133.769531 173.429688 134.417969 174.398438 C 135.070312 175.371094 135.742188 176.324219 136.4375 177.261719 C 137.132812 178.199219 137.851562 179.117188 138.59375 180.019531 C 139.335938 180.921875 140.097656 181.808594 140.882812 182.671875 C 141.667969 183.535156 142.472656 184.382812 143.300781 185.207031 C 144.125 186.03125 144.972656 186.835938 145.839844 187.621094 C 146.703125 188.40625 147.589844 189.167969 148.492188 189.90625 C 149.394531 190.648438 150.316406 191.367188 151.253906 192.0625 C 152.195312 192.757812 153.148438 193.429688 154.121094 194.078125 C 155.09375 194.726562 156.078125 195.351562 157.082031 195.949219 C 158.085938 196.550781 159.101562 197.125 160.132812 197.675781 C 161.164062 198.226562 162.207031 198.75 163.261719 199.25 C 164.320312 199.75 165.386719 200.222656 166.464844 200.667969 C 167.546875 201.117188 168.636719 201.535156 169.738281 201.929688 C 170.835938 202.324219 171.945312 202.6875 173.066406 203.027344 C 174.183594 203.367188 175.308594 203.675781 176.441406 203.960938 C 177.578125 204.246094 178.714844 204.5 179.863281 204.726562 C 181.007812 204.957031 182.160156 205.15625 183.316406 205.328125 C 184.472656 205.496094 185.632812 205.640625 186.792969 205.753906 C 187.957031 205.871094 189.121094 205.957031 190.289062 206.011719 C 191.457031 206.070312 192.625 206.097656 193.792969 206.097656 C 194.960938 206.097656 196.128906 206.070312 197.296875 206.011719 C 198.464844 205.957031 199.628906 205.871094 200.792969 205.753906 C 201.957031 205.640625 203.113281 205.496094 204.269531 205.328125 C 205.425781 205.15625 206.578125 204.957031 207.722656 204.726562 C 208.871094 204.5 210.011719 204.246094 211.144531 203.960938 C 212.277344 203.675781 213.402344 203.367188 214.523438 203.027344 C 215.640625 202.6875 216.75 202.324219 217.851562 201.929688 C 218.949219 201.535156 220.039062 201.117188 221.121094 200.667969 C 222.199219 200.222656 223.269531 199.75 224.324219 199.25 C 225.378906 198.75 226.425781 198.226562 227.453125 197.675781 C 228.484375 197.125 229.5 196.550781 230.503906 195.949219 C 231.507812 195.351562 232.492188 194.726562 233.464844 194.078125 C 234.4375 193.429688 235.390625 192.757812 236.332031 192.0625 C 237.269531 191.367188 238.191406 190.648438 239.09375 189.90625 C 239.996094 189.167969 240.882812 188.40625 241.746094 187.621094 C 242.613281 186.835938 243.460938 186.03125 244.285156 185.207031 C 245.113281 184.382812 245.917969 183.535156 246.703125 182.671875 C 247.488281 181.808594 248.25 180.921875 248.992188 180.019531 C 249.734375 179.117188 250.453125 178.199219 251.148438 177.261719 C 251.84375 176.324219 252.515625 175.371094 253.167969 174.398438 C 253.816406 173.429688 254.441406 172.441406 255.042969 171.441406 C 255.644531 170.441406 256.21875 169.425781 256.769531 168.394531 C 257.320312 167.367188 257.84375 166.324219 258.34375 165.269531 C 258.84375 164.210938 259.320312 163.144531 259.765625 162.066406 C 260.210938 160.988281 260.632812 159.898438 261.027344 158.800781 C 261.421875 157.703125 261.789062 156.59375 262.125 155.476562 C 262.464844 154.359375 262.777344 153.234375 263.0625 152.101562 C 263.34375 150.96875 263.601562 149.832031 263.828125 148.6875 C 264.058594 147.542969 264.257812 146.390625 264.429688 145.238281 C 264.601562 144.082031 264.742188 142.925781 264.855469 141.761719 C 264.972656 140.601562 265.058594 139.4375 265.113281 138.269531 C 265.171875 137.105469 265.203125 135.9375 265.203125 134.769531 C 265.203125 133.605469 265.171875 132.4375 265.113281 131.269531 C 265.058594 130.105469 264.972656 128.941406 264.855469 127.78125 C 264.742188 126.617188 264.601562 125.460938 264.429688 124.304688 C 264.257812 123.152344 264.058594 122 263.828125 120.855469 C 263.601562 119.710938 263.34375 118.574219 263.0625 117.441406 C 262.777344 116.308594 262.464844 115.183594 262.125 114.066406 C 261.789062 112.949219 261.421875 111.839844 261.027344 110.742188 C 260.632812 109.644531 260.210938 108.554688 259.765625 107.476562 C 259.320312 106.398438 258.84375 105.332031 258.34375 104.273438 C 257.84375 103.21875 257.320312 102.175781 256.769531 101.148438 C 256.21875 100.117188 255.644531 99.101562 255.042969 98.101562 C 254.441406 97.101562 253.816406 96.113281 253.167969 95.144531 C 252.515625 94.171875 251.84375 93.21875 251.148438 92.28125 C 250.453125 91.34375 249.734375 90.425781 248.992188 89.523438 C 248.25 88.621094 247.488281 87.734375 246.703125 86.871094 C 245.917969 86.007812 245.113281 85.160156 244.285156 84.335938 C 243.460938 83.511719 242.613281 82.707031 241.746094 81.921875 C 240.882812 81.136719 239.996094 80.375 239.09375 79.632812 C 238.191406 78.894531 237.269531 78.175781 236.332031 77.480469 C 235.390625 76.785156 234.4375 76.113281 233.464844 75.464844 C 232.492188 74.816406 231.507812 74.191406 230.503906 73.59375 C 229.5 72.992188 228.484375 72.417969 227.453125 71.867188 C 226.425781 71.316406 225.378906 70.792969 224.324219 70.292969 C 223.269531 69.792969 222.199219 69.320312 221.121094 68.875 C 220.039062 68.425781 218.949219 68.007812 217.851562 67.613281 C 216.75 67.21875 215.640625 66.855469 214.523438 66.515625 C 213.402344 66.175781 212.277344 65.867188 211.144531 65.582031 C 210.011719 65.296875 208.871094 65.042969 207.722656 64.816406 C 206.578125 64.585938 205.425781 64.386719 204.269531 64.214844 C 203.113281 64.042969 201.957031 63.902344 200.792969 63.789062 C 199.628906 63.671875 198.464844 63.585938 197.296875 63.53125 C 196.128906 63.472656 194.960938 63.445312 193.792969 63.445312 C 192.625 63.445312 191.457031 63.472656 190.289062 63.53125 C 189.121094 63.585938 187.957031 63.671875 186.792969 63.789062 C 185.632812 63.902344 184.472656 64.042969 183.316406 64.214844 C 182.160156 64.386719 181.007812 64.585938 179.863281 64.816406 C 178.714844 65.042969 177.578125 65.296875 176.441406 65.582031 C 175.308594 65.867188 174.183594 66.175781 173.066406 66.515625 C 171.945312 66.855469 170.835938 67.21875 169.738281 67.613281 C 168.636719 68.007812 167.546875 68.425781 166.464844 68.875 C 165.386719 69.320312 164.320312 69.792969 163.261719 70.292969 C 162.207031 70.792969 161.164062 71.316406 160.132812 71.867188 C 159.101562 72.417969 158.085938 72.992188 157.082031 73.59375 C 156.078125 74.191406 155.09375 74.816406 154.121094 75.464844 C 153.148438 76.113281 152.195312 76.785156 151.253906 77.480469 C 150.316406 78.175781 149.394531 78.894531 148.492188 79.632812 C 147.589844 80.375 146.703125 81.136719 145.839844 81.921875 C 144.972656 82.707031 144.125 83.511719 143.300781 84.335938 C 142.472656 85.160156 141.667969 86.007812 140.882812 86.871094 C 140.097656 87.734375 139.335938 88.621094 138.59375 89.523438 C 137.851562 90.425781 137.132812 91.34375 136.4375 92.28125 C 135.742188 93.21875 135.070312 94.171875 134.417969 95.144531 C 133.769531 96.113281 133.144531 97.101562 132.542969 98.101562 C 131.945312 99.101562 131.367188 100.117188 130.816406 101.148438 C 130.265625 102.175781 129.742188 103.21875 129.242188 104.273438 C 128.742188 105.332031 128.269531 106.398438 127.820312 107.476562 C 127.375 108.554688 126.953125 109.644531 126.558594 110.742188 C 126.164062 111.839844 125.800781 112.949219 125.460938 114.066406 C 125.121094 115.183594 124.808594 116.308594 124.523438 117.441406 C 124.242188 118.574219 123.984375 119.710938 123.757812 120.855469 C 123.53125 122 123.328125 123.152344 123.160156 124.304688 C 122.988281 125.460938 122.84375 126.617188 122.730469 127.78125 C 122.613281 128.941406 122.527344 130.105469 122.472656 131.269531 C 122.414062 132.4375 122.386719 133.605469 122.386719 134.769531 Z M 122.386719 134.769531 " fill-opacity="0.7765" fill-rule="nonzero"/><path fill="#ec008b" d="M 154.347656 26.808594 C 120.125 33.855469 91.457031 50.980469 74.550781 75.609375 C 74.695312 76.652344 74.871094 77.6875 75.082031 78.71875 C 75.289062 79.753906 75.53125 80.777344 75.804688 81.792969 C 76.078125 82.808594 76.382812 83.816406 76.71875 84.816406 C 77.054688 85.8125 77.417969 86.800781 77.816406 87.777344 C 78.214844 88.75 78.640625 89.714844 79.097656 90.664062 C 79.550781 91.613281 80.039062 92.546875 80.550781 93.464844 C 81.066406 94.382812 81.609375 95.285156 82.179688 96.171875 C 82.75 97.058594 83.347656 97.925781 83.972656 98.773438 C 84.59375 99.621094 85.246094 100.449219 85.921875 101.257812 C 86.59375 102.066406 87.296875 102.851562 88.019531 103.617188 C 88.742188 104.382812 89.492188 105.125 90.261719 105.84375 C 91.03125 106.5625 91.824219 107.257812 92.636719 107.925781 C 93.449219 108.59375 94.285156 109.238281 95.136719 109.859375 C 95.992188 110.476562 96.863281 111.066406 97.753906 111.632812 C 98.640625 112.195312 99.546875 112.730469 100.472656 113.238281 C 101.394531 113.746094 102.332031 114.226562 103.285156 114.675781 C 104.238281 115.125 105.203125 115.546875 106.183594 115.9375 C 107.164062 116.328125 108.152344 116.6875 109.152344 117.015625 C 110.15625 117.34375 111.167969 117.640625 112.1875 117.910156 C 113.207031 118.175781 114.234375 118.410156 115.265625 118.613281 C 116.300781 118.816406 117.339844 118.984375 118.386719 119.125 C 119.429688 119.261719 120.480469 119.371094 121.53125 119.441406 C 122.582031 119.515625 123.632812 119.558594 124.6875 119.566406 C 125.742188 119.574219 126.796875 119.550781 127.847656 119.492188 C 128.902344 119.4375 129.949219 119.347656 130.996094 119.226562 C 132.042969 119.105469 133.085938 118.949219 134.125 118.765625 C 135.160156 118.578125 136.191406 118.359375 137.214844 118.109375 C 138.242188 117.859375 139.253906 117.578125 140.261719 117.265625 C 141.269531 116.953125 142.265625 116.609375 143.25 116.234375 C 144.234375 115.859375 145.207031 115.457031 146.167969 115.023438 C 147.128906 114.585938 148.074219 114.125 149.003906 113.628906 C 149.9375 113.136719 150.851562 112.617188 151.75 112.066406 C 152.648438 111.515625 153.53125 110.9375 154.394531 110.335938 C 155.257812 109.730469 156.101562 109.101562 156.925781 108.445312 C 157.746094 107.789062 158.550781 107.105469 159.332031 106.398438 C 160.113281 105.695312 160.875 104.964844 161.609375 104.210938 C 162.347656 103.457031 163.058594 102.683594 163.746094 101.886719 C 164.4375 101.089844 165.097656 100.269531 165.738281 99.433594 C 166.375 98.59375 166.984375 97.734375 167.570312 96.859375 C 168.15625 95.984375 168.710938 95.089844 169.242188 94.179688 C 169.769531 93.269531 170.269531 92.34375 170.742188 91.402344 C 171.214844 90.460938 171.65625 89.503906 172.070312 88.535156 C 172.480469 87.566406 172.863281 86.585938 173.214844 85.59375 C 173.566406 84.601562 173.886719 83.597656 174.175781 82.585938 C 174.464844 81.574219 174.722656 80.554688 174.949219 79.523438 C 175.175781 78.496094 175.371094 77.460938 175.53125 76.421875 C 175.695312 75.382812 175.824219 74.335938 175.921875 73.289062 C 176.015625 72.242188 176.082031 71.191406 176.113281 70.136719 C 176.144531 69.085938 176.144531 68.03125 176.113281 66.980469 C 176.078125 65.929688 176.011719 64.878906 175.914062 63.828125 C 175.816406 62.78125 175.6875 61.738281 175.523438 60.695312 C 175.359375 59.65625 175.164062 58.621094 174.9375 57.59375 C 174.710938 56.566406 174.449219 55.546875 174.160156 54.535156 C 173.871094 53.523438 173.546875 52.519531 173.195312 51.527344 C 172.84375 50.535156 172.460938 49.554688 172.046875 48.585938 C 171.632812 47.617188 171.1875 46.664062 170.714844 45.722656 C 170.242188 44.78125 169.742188 43.855469 169.210938 42.945312 C 168.683594 42.035156 168.125 41.144531 167.539062 40.269531 C 166.953125 39.394531 166.339844 38.535156 165.703125 37.699219 C 165.0625 36.859375 164.398438 36.042969 163.710938 35.246094 C 163.019531 34.449219 162.308594 33.675781 161.570312 32.925781 C 160.832031 32.171875 160.074219 31.441406 159.289062 30.738281 C 158.507812 30.03125 157.703125 29.351562 156.878906 28.695312 C 156.054688 28.039062 155.210938 27.410156 154.347656 26.808594 Z M 154.347656 26.808594 " fill-opacity="0.7765" fill-rule="evenodd"/><path fill="#56ba48" d="M 217.835938 103.511719 C 216.433594 103.511719 215.039062 103.445312 213.644531 103.308594 C 212.25 103.171875 210.867188 102.96875 209.492188 102.695312 C 208.117188 102.421875 206.761719 102.082031 205.417969 101.675781 C 204.078125 101.269531 202.761719 100.800781 201.46875 100.265625 C 200.171875 99.730469 198.910156 99.132812 197.671875 98.472656 C 196.4375 97.816406 195.238281 97.097656 194.070312 96.320312 C 192.90625 95.542969 191.785156 94.710938 190.699219 93.824219 C 189.617188 92.9375 188.582031 91.996094 187.589844 91.007812 C 186.597656 90.019531 185.660156 88.984375 184.769531 87.902344 C 183.882812 86.820312 183.046875 85.699219 182.269531 84.535156 C 181.492188 83.371094 180.769531 82.175781 180.109375 80.941406 C 179.449219 79.707031 178.851562 78.445312 178.316406 77.152344 C 177.777344 75.859375 177.308594 74.542969 176.898438 73.203125 C 176.492188 71.867188 176.152344 70.507812 175.878906 69.136719 C 175.605469 67.765625 175.402344 66.382812 175.261719 64.992188 C 175.125 63.597656 175.054688 62.203125 175.054688 60.804688 C 175.054688 59.402344 175.125 58.007812 175.261719 56.617188 C 175.398438 55.222656 175.601562 53.839844 175.875 52.46875 C 176.148438 51.097656 176.488281 49.742188 176.894531 48.402344 C 177.300781 47.0625 177.773438 45.746094 178.308594 44.453125 C 178.84375 43.160156 179.441406 41.898438 180.101562 40.664062 C 180.761719 39.429688 181.480469 38.230469 182.257812 37.066406 C 183.039062 35.902344 183.871094 34.78125 184.757812 33.699219 C 185.648438 32.617188 186.585938 31.582031 187.578125 30.59375 C 188.566406 29.601562 189.605469 28.664062 190.6875 27.777344 C 191.769531 26.890625 192.894531 26.054688 194.058594 25.277344 C 195.222656 24.5 196.421875 23.78125 197.65625 23.125 C 198.894531 22.464844 200.15625 21.867188 201.453125 21.332031 C 202.746094 20.792969 204.0625 20.324219 205.402344 19.917969 C 206.742188 19.511719 208.101562 19.171875 209.472656 18.898438 C 210.847656 18.625 212.230469 18.421875 213.625 18.28125 C 215.019531 18.144531 216.417969 18.078125 217.816406 18.078125 C 219.21875 18.078125 220.617188 18.144531 222.011719 18.28125 C 223.402344 18.417969 224.789062 18.625 226.160156 18.898438 C 227.535156 19.167969 228.894531 19.507812 230.234375 19.914062 C 231.574219 20.320312 232.890625 20.792969 234.183594 21.328125 C 235.480469 21.863281 236.746094 22.460938 237.980469 23.121094 C 239.214844 23.777344 240.414062 24.496094 241.578125 25.273438 C 242.746094 26.050781 243.867188 26.882812 244.953125 27.773438 C 246.035156 28.660156 247.070312 29.597656 248.0625 30.585938 C 249.050781 31.574219 249.992188 32.613281 250.878906 33.691406 C 251.769531 34.773438 252.601562 35.898438 253.378906 37.058594 C 254.160156 38.222656 254.878906 39.421875 255.539062 40.65625 C 256.199219 41.890625 256.796875 43.152344 257.332031 44.445312 C 257.867188 45.738281 258.339844 47.054688 258.746094 48.394531 C 259.152344 49.730469 259.492188 51.089844 259.765625 52.460938 C 260.039062 53.832031 260.246094 55.214844 260.382812 56.605469 C 260.519531 58 260.589844 59.394531 260.589844 60.792969 C 260.585938 62.191406 260.515625 63.585938 260.375 64.976562 C 260.238281 66.371094 260.027344 67.75 259.753906 69.121094 C 259.480469 70.492188 259.136719 71.847656 258.730469 73.183594 C 258.324219 74.519531 257.851562 75.835938 257.3125 77.125 C 256.777344 78.417969 256.179688 79.679688 255.519531 80.914062 C 254.855469 82.144531 254.136719 83.34375 253.359375 84.503906 C 252.582031 85.667969 251.75 86.789062 250.859375 87.871094 C 249.972656 88.949219 249.035156 89.984375 248.042969 90.972656 C 247.054688 91.960938 246.019531 92.898438 244.9375 93.789062 C 243.855469 94.675781 242.734375 95.507812 241.570312 96.285156 C 240.40625 97.0625 239.207031 97.78125 237.976562 98.441406 C 236.742188 99.101562 235.476562 99.699219 234.183594 100.234375 C 232.894531 100.773438 231.578125 101.246094 230.238281 101.652344 C 228.898438 102.058594 227.542969 102.402344 226.171875 102.675781 C 224.800781 102.953125 223.417969 103.160156 222.023438 103.296875 C 220.632812 103.4375 219.234375 103.507812 217.835938 103.511719 Z M 217.835938 103.511719 " fill-opacity="0.7765" fill-rule="evenodd"/></svg>