<?xml version="1.0" standalone="no"?>
<!DOCTYPE svg PUBLIC "-//W3C//DTD SVG 20010904//EN"
 "http://www.w3.org/TR/2001/REC-SVG-20010904/DTD/svg10.dtd">
<svg version="1.0" xmlns="http://www.w3.org/2000/svg"
 width="2480.000000pt" height="3397.000000pt" viewBox="0 0 2480.000000 3397.000000"
 preserveAspectRatio="xMidYMid meet">

<g transform="translate(0.000000,3397.000000) scale(0.100000,-0.100000)"
fill="#000000" stroke="none">
<path d="M11106 29021 c-3 -4 -312 -982 -686 -2172 -374 -1190 -699 -2220
-722 -2289 -23 -69 -41 -127 -41 -130 1 -3 -3 -11 -9 -17 -6 -7 -8 -13 -5 -13
3 0 -5 -33 -19 -72 -14 -40 -27 -82 -29 -92 -3 -11 -14 -49 -26 -85 -27 -85
-28 -90 -30 -99 -1 -4 -13 -38 -26 -77 -14 -38 -26 -77 -28 -85 -2 -8 -4 -15
-5 -15 -1 0 -3 -8 -5 -17 -2 -9 -11 -41 -20 -70 -17 -55 -21 -66 -25 -83 -2
-5 -14 -41 -27 -80 -14 -38 -25 -74 -27 -80 -1 -5 -5 -16 -9 -22 -5 -7 -6 -13
-3 -13 3 0 -6 -33 -20 -72 -14 -40 -27 -83 -30 -94 -5 -28 -462 -1483 -516
-1644 -23 -69 -43 -128 -44 -132 -1 -5 -2 -9 -4 -10 -1 -2 -3 -11 -5 -20 -3
-18 -32 -111 -42 -138 -3 -8 -7 -20 -9 -27 -2 -10 -23 -78 -50 -163 -3 -8 -5
-15 -4 -15 0 0 -11 -34 -26 -75 -14 -41 -27 -82 -29 -90 -2 -8 -4 -15 -5 -15
-1 0 -3 -8 -5 -17 -2 -9 -11 -41 -20 -70 -18 -59 -22 -71 -23 -78 -1 -3 -13
-39 -28 -80 -14 -41 -26 -79 -28 -85 -1 -5 -5 -16 -9 -22 -5 -7 -6 -13 -3 -13
3 0 -6 -33 -20 -72 -14 -40 -27 -83 -30 -94 -2 -12 -110 -358 -239 -769 -130
-411 -234 -749 -233 -750 2 -2 442 190 978 426 536 236 1065 468 1175 515 110
47 211 91 225 98 14 8 70 32 125 56 55 23 111 47 125 55 14 7 70 31 125 55 55
23 111 47 125 55 14 7 70 31 125 55 55 23 111 47 125 55 14 7 70 31 125 55 55
23 111 47 125 55 14 7 70 31 125 55 55 23 111 47 125 55 14 7 70 31 125 55 55
23 111 47 125 55 14 7 70 31 125 55 55 23 111 47 125 55 14 7 70 31 125 55 55
23 111 47 125 55 14 7 70 31 125 55 55 23 111 47 125 55 14 7 70 31 125 55 55
23 111 47 125 55 14 7 70 31 125 55 55 23 111 47 125 55 14 7 70 31 125 55 55
23 112 48 127 56 14 8 28 14 31 14 4 0 -38 -213 -423 -2140 -132 -663 -243
-1216 -245 -1230 -3 -14 -7 -34 -10 -45 -2 -11 -6 -33 -10 -50 -3 -16 -7 -41
-10 -55 -3 -14 -7 -36 -10 -50 -3 -14 -7 -36 -10 -50 -3 -14 -7 -34 -10 -45
-2 -11 -6 -33 -10 -50 -6 -36 -14 -73 -19 -100 -3 -11 -7 -36 -10 -55 -3 -19
-172 -872 -376 -1894 -203 -1023 -368 -1861 -367 -1862 1 -2 315 781 696 1739
382 958 705 1767 719 1797 23 53 33 76 51 123 4 12 13 34 20 50 6 15 16 38 21
52 6 14 15 36 20 50 6 14 14 35 19 48 109 282 941 2374 972 2445 12 26 25 57
30 70 5 12 14 33 19 47 6 14 15 36 20 50 6 14 15 36 20 50 6 14 14 35 19 48 4
12 13 33 18 47 6 14 89 225 186 470 280 710 1326 3330 1344 3367 8 19 14 36
11 38 -2 3 -63 -18 -134 -46 -166 -65 -161 -63 -216 -88 -26 -11 -123 -50
-215 -87 -192 -75 -190 -74 -263 -107 -30 -13 -116 -48 -190 -76 -164 -64
-164 -64 -222 -90 -26 -11 -123 -50 -215 -87 -192 -75 -190 -74 -263 -107 -30
-13 -116 -48 -190 -76 -74 -29 -146 -58 -160 -63 -14 -6 -36 -15 -50 -21 -14
-5 -33 -14 -43 -19 -39 -20 -3180 -1288 -3183 -1285 -3 3 282 670 553 1292 85
197 111 255 157 360 8 17 44 102 81 190 38 88 81 189 97 225 16 36 35 79 42
95 8 17 51 118 96 225 94 220 134 312 155 353 8 16 15 32 15 37 0 5 403 944
896 2087 493 1143 899 2086 901 2096 5 16 -61 17 -1280 17 -707 0 -1288 -4
-1291 -9z"/>
</g>
</svg>
